<?xml version="1.0" encoding="UTF-8" standalone="no"?>
<svg xmlns:dc="http://purl.org/dc/elements/1.1/" xmlns:cc="http://creativecommons.org/ns#" xmlns:rdf="http://www.w3.org/1999/02/22-rdf-syntax-ns#" xmlns:svg="http://www.w3.org/2000/svg" xmlns="http://www.w3.org/2000/svg" id="svg8" version="1.1" viewBox="0 0 4.5614166 8.8688335" height="8.8688335mm" width="4.5614166mm">
<defs id="defs2" />
<metadata id="metadata5">
<rdf:RDF>
<cc:Work rdf:about="">
<dc:format>image/svg+xml</dc:format>
<dc:type rdf:resource="http://purl.org/dc/dcmitype/StillImage" />
<dc:title></dc:title>
</cc:Work>
</rdf:RDF>
</metadata>
<g transform="translate(-56.714502,-112.95734)" id="layer1">
<g id="text817" style="font-style:normal;font-variant:normal;font-weight:normal;font-stretch:normal;font-size:10.58333302px;line-height:1.25;font-family:'bree serif';-inkscape-font-specification:'bree serif';text-align:center;letter-spacing:0px;word-spacing:0px;text-anchor:middle;fill:#000000;fill-opacity:1;stroke:none;stroke-width:0.26458332" aria-label="$">
<path id="path838" style="font-style:normal;font-variant:normal;font-weight:normal;font-stretch:normal;font-family:'bree serif';-inkscape-font-specification:'bree serif';stroke-width:0.26458332;fill:#c5c5c5;fill-opacity:1" d="m 58.566585,121.82617 h 0.79375 v -1.09008 c 1.121833,-0.16933 1.915583,-0.85725 1.915583,-2.00025 0,-1.28058 -0.973666,-1.69333 -1.905,-1.97908 h -0.01058 v -1.86267 c 0.137583,0.0106 0.275167,0.0423 0.391583,0.0741 0.179917,0.0635 0.211667,0.13759 0.211667,0.32809 v 0.5715 l 1.037167,-0.0635 v -1.49225 c -0.518584,-0.24342 -1.068917,-0.37042 -1.640417,-0.40217 v -0.9525 h -0.79375 v 0.97367 c -1.121833,0.15875 -1.852083,0.86783 -1.852083,1.92616 0,1.22767 0.878416,1.64042 1.852083,1.905 v 1.97909 c -0.211667,0 -0.41275,-0.0318 -0.560917,-0.0847 -0.179916,-0.0635 -0.211666,-0.13758 -0.211666,-0.32808 v -0.61384 l -1.04775,0.0741 v 1.57691 c 0.550333,0.254 1.121833,0.381 1.820333,0.40217 z m 1.397,-3.03741 c 0,0.49741 -0.243417,0.762 -0.60325,0.87841 v -1.651 c 0.359833,0.14817 0.60325,0.37042 0.60325,0.77259 z m -1.947333,-3.048 c 0,-0.42334 0.211666,-0.66675 0.550333,-0.78317 v 1.524 c -0.338667,-0.15875 -0.550333,-0.35983 -0.550333,-0.74083 z" />
</g>
</g>
</svg>
