<?xml version="1.0" encoding="UTF-8" standalone="no"?>
<svg xmlns:dc="http://purl.org/dc/elements/1.1/" xmlns:cc="http://creativecommons.org/ns#" xmlns:rdf="http://www.w3.org/1999/02/22-rdf-syntax-ns#" xmlns:svg="http://www.w3.org/2000/svg" xmlns="http://www.w3.org/2000/svg" viewBox="0 0 1160.9216 1306.2148" height="1306.2148" width="1160.9216" id="svg14060" version="1.1">
<metadata id="metadata14066">
<rdf:RDF>
<cc:Work rdf:about="">
<dc:format>image/svg+xml</dc:format>
<dc:type rdf:resource="http://purl.org/dc/dcmitype/StillImage" />
<dc:title></dc:title>
</cc:Work>
</rdf:RDF>
</metadata>
<defs id="defs14064" />
<path id="path14070" d="M 548.42642,1305.8711 C 490.68898,1301.9168 441.05752,1292.0666 389.9932,1274.4274 228.43042,1218.6186 98.401739,1092.3563 37.663959,932.30366 9.378789,857.76825 -2.885171,780.96667 0.56886897,700.00002 6.598209,558.66535 63.533829,425.7811 161.88543,323.49709 256.2784,225.32999 381.27248,163.70194 516.42642,148.69146 c 9.9,-1.09952 21.3,-2.0745 25.33333,-2.16663 4.03334,-0.0921 6.28334,-0.44189 5,-0.77727 -2.15068,-0.56202 -2.33333,-3.47232 -2.33333,-37.17866 V 72.000002 H 507.75975 471.09308 V 36.000001 0 h 109.33334 109.33334 v 35.978572 35.978571 l -36.33334,0.354763 -36.33333,0.354763 -0.35459,36.239661 c -0.32377,33.08993 -0.55555,36.2923 -2.66667,36.84534 -1.27164,0.33311 0.98792,0.67599 5.02126,0.76195 22.37733,0.47689 70.92681,8.12529 103.33333,16.27894 215.51366,54.22437 382.49728,228.72262 426.67288,445.87412 25.4158,124.93501 9.562,254.97434 -44.7562,367.10758 -14.3646,29.65404 -21.8803,43.04354 -38.1896,68.03604 -33.9074,51.9601 -74.24479,96.3625 -123.0604,135.4621 -86.5791,69.3467 -188.1503,111.2418 -300.66668,124.0158 -17.69312,2.0088 -78.13448,3.6695 -94,2.5829 z m 54.64637,-72.5527 c 39.93111,-2.0166 67.93342,-6.1818 104.68697,-15.5715 190.36068,-48.633 337.74384,-207.0522 372.51934,-400.41355 6.1665,-34.28789 7.3158,-48.38853 7.3895,-90.66666 0.09,-51.55673 -3.2928,-80.46501 -14.7397,-125.96646 C 1027.8453,421.49317 885.19792,278.61037 706.30796,233.4741 663.30062,222.62278 627.0323,218.23102 580.42642,218.23102 c -45.58209,0 -82.84364,4.40628 -123.33334,14.58449 -146.24701,36.76326 -269.73372,137.50718 -334.78769,273.12921 -27.385671,57.09257 -43.553761,117.77895 -48.680881,182.72196 -3.12941,39.63891 0.31978,96.67055 8.21962,135.90957 23.832331,118.37669 87.309761,222.74695 181.248951,298.01135 82.96111,66.4688 185.09154,105.3439 290.66667,110.6399 11.36667,0.5702 21.26667,1.1192 22,1.2199 0.73334,0.1006 13.0242,-0.4074 27.31304,-1.129 z M 568.42642,797.39925 c -27.94228,-5.20508 -50.7886,-26.23603 -58.01959,-53.40931 -2.5208,-9.47292 -2.51679,-26.7037 0.008,-36.39886 4.04343,-15.5238 14.85396,-31.30496 27.16946,-39.66186 l 6.77337,-4.59587 0.0344,-150.33334 0.0344,-150.33333 h 36 36 l 0.0344,150.33333 0.0344,150.33334 6.77289,4.59587 c 12.3155,8.3569 23.12603,24.13806 27.16946,39.66186 2.52527,9.69516 2.52928,26.92594 0.008,36.39886 -8.05108,30.25511 -34.56727,52.02483 -65.65342,53.90127 -5.7014,0.34414 -13.06617,0.1228 -16.36617,-0.49196 z m 445.65798,-487.0743 -25.65409,-25.6794 38.34209,-38.32494 38.342,-38.32495 25.6541,25.6794 25.6541,25.6794 -38.3421,38.32495 -38.342,38.32495 z" style="fill:#c5c5c5;stroke-width:1.33333337;opacity:1;fill-opacity:1" />
</svg>
