<?xml version="1.0" encoding="UTF-8" standalone="no"?>
<svg
   xmlns:dc="http://purl.org/dc/elements/1.1/"
   xmlns:cc="http://creativecommons.org/ns#"
   xmlns:rdf="http://www.w3.org/1999/02/22-rdf-syntax-ns#"
   xmlns:svg="http://www.w3.org/2000/svg"
   xmlns="http://www.w3.org/2000/svg"
   id="svg8"
   version="1.1"
   viewBox="0 0 503.55436 184.49385"
   height="184.49385mm"
   width="503.55435mm">
  <defs
     id="defs2" />
  <metadata
     id="metadata5">
    <rdf:RDF>
      <cc:Work
         rdf:about="">
        <dc:format>image/svg+xml</dc:format>
        <dc:type
           rdf:resource="http://purl.org/dc/dcmitype/StillImage" />
        <dc:title></dc:title>
      </cc:Work>
    </rdf:RDF>
  </metadata>
  <path
     style="fill:#070707;fill-opacity:1;stroke:none;stroke-width:0.28174424px;stroke-linecap:butt;stroke-linejoin:miter;stroke-opacity:1"
     d="m 166.60051,159.92517 c 3.81041,12.38381 5.57972,17.14683 21.91002,17.55509 16.3303,0.40825 24.49533,-3.12973 26.67271,-9.66185 2.17737,-6.53212 -48.58273,-7.89324 -48.58273,-7.89324 z m 226.59668,3.81235 c -9.826,0.0165 -22.0597,2.17582 -22.0597,2.17582 4.21866,14.01684 8.02931,16.19386 16.46663,16.05777 8.43732,-0.13608 17.14667,-5.57962 17.69101,-13.88086 0.22114,-3.37238 -5.3749,-4.36401 -12.09794,-4.35273 z"
     id="path2141" />
  <path
     style="fill:#0f0f0f;fill-opacity:1;stroke:none;stroke-width:0.28174424px;stroke-linecap:butt;stroke-linejoin:miter;stroke-opacity:1"
     d="m 255.74556,170.57419 c 8.96815,0.15597 13.72517,0.078 14.66098,-0.15597 0.93581,-0.23395 11.30767,-48.89592 11.30767,-48.89592 0,0 -21.91348,-0.62388 -23.47316,9.28008 -1.55968,9.90396 -2.49549,39.77181 -2.49549,39.77181 z"
     id="path2139" />
  <path
     style="fill:#0f0f0f;fill-opacity:1;stroke:none;stroke-width:0.28174424px;stroke-linecap:butt;stroke-linejoin:miter;stroke-opacity:1"
     d="m 279.4657,184.49384 c 18.74861,-0.66171 19.85146,-0.22057 21.83661,-4.85258 1.98515,-4.63201 2.97772,-11.13888 2.97772,-13.01374 0,-1.87486 -13.12403,-5.29372 -17.20461,2.64686 -4.08057,7.94059 -7.60972,15.21946 -7.60972,15.21946 z"
     id="path2135" />
  <path
     style="fill:#161616;fill-opacity:1;stroke:none;stroke-width:0.28174424px;stroke-linecap:butt;stroke-linejoin:miter;stroke-opacity:1"
     d="m 279.35541,184.27327 c 9.92573,0.33086 14.00631,-16.87374 14.1166,-27.68177 0.11028,-10.80802 -3.97029,-28.34349 -14.55775,-28.12292 -10.58745,0.22057 -13.67545,12.90346 -13.89603,25.80691 -0.22057,12.90346 5.95544,29.22578 14.33718,29.99778 z"
     id="path2133" />
  <path
     style="fill:#0f0f0f;fill-opacity:1;stroke:none;stroke-width:0.28174424px;stroke-linecap:butt;stroke-linejoin:miter;stroke-opacity:1"
     d="m 92.200155,178.86926 c 23.821765,0.22057 25.696625,-0.22057 29.225775,-0.44115 3.52915,-0.22056 4.85258,-1.87485 5.95544,-3.41886 1.10286,-1.544 4.85258,-9.48459 4.63201,-11.35945 -0.22057,-1.87486 -27.24063,-12.13145 -32.424068,0.22058 -5.18344,12.35202 -7.389157,14.99888 -7.389157,14.99888 z"
     id="path2131" />
  <path
     style="fill:#0f0f0f;fill-opacity:1;stroke:none;stroke-width:0.28174424px;stroke-linecap:butt;stroke-linejoin:miter;stroke-opacity:1"
     d="m 75.216118,159.56922 c 5.955439,1.10286 7.940587,0.772 9.264018,0.772 1.323432,0 20.127184,-38.37951 20.127184,-38.37951 0,0 -30.824919,-7.38916 -32.148351,8.71259 -1.323432,16.10175 2.757149,28.89492 2.757149,28.89492 z"
     id="path2127" />
  <path
     style="fill:#1a1a1a;fill-opacity:1;stroke:none;stroke-width:0.28174424px;stroke-linecap:butt;stroke-linejoin:miter;stroke-opacity:1"
     d="m 92.641296,126.75915 c 6.782587,-0.16543 7.940594,-0.33086 8.547164,0.49629 0.60657,0.82714 10.34633,14.8175 6.92747,17.35408 -3.41887,2.53658 -15.474634,-17.85037 -15.474634,-17.85037 z"
     id="path2129" />
  <path
     style="fill:#161616;fill-opacity:1;stroke:none;stroke-width:0.28174424px;stroke-linecap:butt;stroke-linejoin:miter;stroke-opacity:1"
     d="m 92.751582,126.70401 c 7.830308,0 13.675458,13.23431 14.226888,23.82176 0.55143,10.58745 -2.316,28.67434 -14.006316,28.45378 -11.69031,-0.22058 -13.124028,-25.25549 -12.903457,-30.21835 0.220572,-4.96287 3.418866,-22.05719 12.682885,-22.05719 z"
     id="path2125" />
  <path
     style="fill:#232323;fill-opacity:1;stroke:none;stroke-width:0.28174424px;stroke-linecap:butt;stroke-linejoin:miter;stroke-opacity:1"
     d="m 352.31678,26.75596 1.52559,81.42825 L 3.9106637,99.030685 4.2920541,32.667615 Z"
     id="path2061" />
  <path
     style="fill:#efe6de;fill-opacity:1;stroke:none;stroke-width:0.28174424px;stroke-linecap:butt;stroke-linejoin:miter;stroke-opacity:1"
     d="M 390.55183,1.1070167 C 357.84704,2.0605075 165.71832,8.9256537 152.08338,9.4023991 138.44844,9.8791466 65.983015,12.644275 50.441093,13.311719 c -15.541933,0.667444 -31.226876,2.479079 -36.661784,3.1942 -5.4349081,0.715117 -9.2488753,1.239539 -9.8686453,2.574429 -0.6197699,1.334891 23.5989313,1.23954 23.5989313,1.23954 L 359.0389,9.7837958 c 0,0 40.3804,-9.10584958 31.51293,-8.6767791 z"
     id="path2037" />
  <path
     style="fill:#e9e1db;fill-opacity:1;stroke:none;stroke-width:0.28174424px;stroke-linecap:butt;stroke-linejoin:miter;stroke-opacity:1"
     d="m 348.69352,30.331558 c 1.81162,-0.04767 2.38372,0.190698 2.43139,1.716286 0.0477,1.525588 0.14303,5.720955 0.14303,6.817471 0,1.096516 2.14536,-4.195367 2.14536,-4.195367 l 4.29071,-24.552428 c 0,0 56.9235,-9.48725077 50.1537,-9.53492456 -6.76979,-0.0476738 -24.12335,0.90581906 -33.70595,1.85930876 -9.58259,0.9534928 -24.93383,3.2895501 -27.50826,4.6244408 -2.57443,1.3348874 -3.38489,5.339555 -2.52675,6.72212 0.85814,1.382563 4.57677,16.543093 4.57677,16.543093 z"
     id="path2035" />
  <path
     style="fill:#ebe4df;fill-opacity:1;stroke:none;stroke-width:0.28174424px;stroke-linecap:butt;stroke-linejoin:miter;stroke-opacity:1"
     d="M 0.28739173,121.58078 C 0.23968599,115.7168 0.04902277,100.60395 0.00133833,93.500429 -0.04636741,86.396912 1.1932044,44.538594 1.3839102,37.816473 1.5746054,31.094352 2.5757656,24.086183 3.100188,21.273381 3.6246103,18.460578 4.1490327,17.936157 10.537438,17.65011 16.925832,17.364061 340.15976,6.9709942 343.87838,6.732621 c 3.71862,-0.2383722 3.71862,0.2383732 2.6221,1.0488415 -1.09652,0.8104683 -1.52559,2.4314045 -1.66862,3.7662955 -0.14302,1.33489 0.0477,2.145358 0.61977,2.336056 0.5721,0.1907 1.23954,0.381398 2.14537,1.477913 0.90581,1.096518 3.1942,4.147693 2.90814,9.439576 -0.28604,5.291881 -0.38139,5.577929 -1.43023,5.577929 -1.04884,0 -335.484795,6.071774 -338.451368,6.004351 C 7.6569804,36.316167 7.3872832,36.653272 7.0501804,39.080467 6.713067,41.507663 6.5782237,88.837972 6.64564,90.860634 c 0.067406,2.022665 0.1348433,2.090086 1.6855566,2.090086 1.5507027,0 133.9002734,-0.202267 150.6209534,0 16.72068,0.202267 115.35921,1.415864 128.03456,1.618131 12.67535,0.202267 19.01304,0.337109 21.23797,0.471956 2.22491,0.134842 2.39347,0.134842 2.39347,-0.404534 0,-0.539378 -0.0337,-0.606799 0.9102,-0.775355 0.94391,-0.168554 1.28102,0.06742 1.28102,0.370823 0,0.303399 0.26969,0.37082 1.517,0.606799 1.24731,0.235977 35.90226,9.03456 36.64391,8.79858 0.74164,-0.23598 2.58605,27.14486 2.58605,27.14486 L 273.84437,126.87266 91.345914,122.1052 Z"
     id="path2033" />
  <path
     style="fill:#f51f2a;fill-opacity:1;stroke:none;stroke-width:0.28174424px;stroke-linecap:butt;stroke-linejoin:miter;stroke-opacity:1"
     d="m 292.41419,156.15893 c -0.23598,-3.40481 -2.09009,-15.23739 -5.15779,-19.38385 -3.06771,-4.14646 -6.16912,-9.06827 -13.07988,-9.30425 -6.91077,-0.23598 -11.96425,8.32378 -13.82154,14.6306 -1.05026,3.56639 -1.54089,6.69504 -1.72385,10.91162 -0.085,1.95804 0.63592,4.72049 -2.726,4.35948 -3.82477,-0.41071 -146.27224,-5.56232 -147.82295,-5.59603 -1.5507,-0.0337 -2.05637,-0.67422 -2.12379,-4.28131 -0.017,-0.91004 -0.44811,-11.4426 -4.28914,-17.69622 -3.499358,-5.69733 -6.596925,-6.55904 -10.653546,-6.53643 -4.927614,0.0275 -8.971046,4.72076 -10.745134,9.70319 -1.765005,4.95693 -2.752968,8.99683 -2.718636,13.53584 0.01632,2.15771 0.455615,2.44022 -0.960249,2.50764 -26.520567,-0.45286 -76.33705902,6.0669 -75.93983422,-8.91607 0.0251307,-0.94599 -0.23203304,-5.30502 -0.20904271,-8.34101 0.026515,-3.506 -0.10116172,-8.79858 -0.10116172,-9.80991 0,-1.01133 -0.0337561,-1.38215 0.74164315,-1.38215 0.7753567,0 92.9750665,1.17988 99.8184105,1.34844 6.84334,0.16855 245.61868,6.57366 248.11331,6.53994 2.49461,-0.0337 3.74192,-0.0337 3.80934,-0.53938 0.0674,-0.50566 0.47196,31.04788 0.47196,31.04788 z"
     id="path2016" />
  <path
     style="fill:#e7ded6;fill-opacity:1;stroke:none;stroke-width:0.28174424px;stroke-linecap:butt;stroke-linejoin:miter;stroke-opacity:1"
     d="m 498.72555,40.962998 c 2.66978,0.04767 2.76512,0.381397 3.19418,3.81397 0.42908,3.432572 0.7628,10.917488 0.66746,12.538425 -0.0953,1.620937 -0.66746,2.002334 -2.57444,1.906985 -1.90698,-0.09535 -2.52673,-0.762794 -2.90813,-2.336057 -0.3814,-1.573262 -1.33491,-7.818637 -1.38258,-11.537258 -0.0477,-3.71862 0.42907,-4.481414 3.00351,-4.386065 z"
     id="path1884" />
  <path
     style="fill:#f2e7de;fill-opacity:1;stroke:none;stroke-width:0.28174424px;stroke-linecap:butt;stroke-linejoin:miter;stroke-opacity:1"
     d="m 473.9582,23.202165 c -0.30034,0.0054 -0.61677,0.01727 -0.95365,0.03412 0,0 -1.98942,6.742053 -1.18037,6.742053 0.80906,0 1.82081,-0.0673 4.6862,0.101252 2.86548,0.168556 21.91207,4.348682 23.49649,4.652082 1.58441,0.303399 1.21341,0.606897 1.07857,2.427293 -0.1349,1.820398 -0.0333,13.113362 0.0341,15.270869 0.0674,2.157507 -0.0674,2.326447 0.64055,2.360159 0.70793,0.03371 0.84247,0.06749 0.84247,-1.820333 0,-1.887818 0.0677,-15.507501 0.0677,-16.923365 0,-1.415864 0.80863,-0.808662 0.87603,-2.157104 0.0674,-1.348442 -0.26966,-2.157792 -1.68551,-2.899435 -1.41588,-0.741643 -19.14762,-5.663588 -21.97935,-6.674917 -2.47777,-0.884919 -3.81972,-1.150466 -5.92322,-1.11267 z m 0.45507,1.478056 c 1.43476,0.03457 2.02129,0.414403 1.9623,1.38781 -0.0555,0.778744 0.101,0.775061 0.80891,0.842483 0.70794,0.06742 1.03899,0.09546 1.14625,-0.235521 0.13512,-0.416897 0.10075,-0.674262 0.84247,-0.505709 0.74164,0.168556 7.57765,1.645845 9.09552,2.284269 1.63621,0.688185 1.1904,0.947476 0.16916,1.518879 -0.9779,0.547165 -1.71717,1.049319 -4.24552,0.543653 -2.52831,-0.505666 -4.61443,-0.807026 -5.18753,-1.27898 -0.57309,-0.471955 -0.70768,-0.53987 -0.70768,-1.045535 0,-0.505666 -0.0343,-0.707663 -1.04553,-0.707663 -1.01135,0 -1.17963,0.202404 -1.21336,0.74178 -0.0337,0.539377 -0.20249,0.707951 -1.11269,0.640528 -0.91018,-0.06742 -1.17981,-4.180492 -1.17981,-4.180492 0.24022,-0.0084 0.46254,-0.01045 0.66751,-0.0055 z m 18.22753,5.226577 c 0.32026,-0.01264 0.65748,0.07165 1.19685,0.172788 1.07874,0.202266 4.17996,1.045197 5.46102,1.382308 1.28098,0.33711 1.48347,1.044909 1.3823,1.449442 -0.10115,0.404532 -0.43828,0.607037 -1.92158,0.202504 -1.48327,-0.404533 -6.32113,-1.296782 -7.36618,-1.532759 -1.04502,-0.235978 -1.57067,-0.168617 0.15197,-1.265424 0.47195,-0.286544 0.77536,-0.396218 1.09562,-0.408859 z"
     id="path1874" />
  <path
     style="fill:#353535;fill-opacity:1;stroke:none;stroke-width:0.28174424px;stroke-linecap:butt;stroke-linejoin:miter;stroke-opacity:1"
     d="m 354.11865,116.56564 c 0.20226,4.11274 15.29058,2.96855 16.77387,2.96855 8.97857,-9.76546 97.46951,10.28265 117.21431,-12.55968 -0.40456,-4.5847 -1.21362,-11.798861 -1.75298,-16.31614 -0.53937,-4.517282 -2.83173,-18.473655 -3.97792,-24.474222 -1.14616,-6.000566 -5.7983,-26.631726 -6.7422,-30.879318 -0.9439,-4.247593 -1.82041,-5.730879 -1.88782,-8.495184 -0.0674,-2.764304 -2.15752,-20.3614737 -2.15752,-20.3614737 L 456.82297,3.4816028 404.84053,2.9422255 358.25186,9.2799018 355.42013,27.618711 c -0.4669,3.023721 -1.53469,30.26438 -1.67311,44.237441 -1.28343,20.90781 -0.73252,26.054162 0.37163,44.709488 z"
     id="path1867" />
  <path
     style="fill:#ece5df;fill-opacity:1;stroke:none;stroke-width:0.28174424px;stroke-linecap:butt;stroke-linejoin:miter;stroke-opacity:1"
     d="m 351.79626,129.56233 c -0.0674,-4.78697 -1.09567,-21.77875 -1.16309,-23.66657 -0.0674,-1.88782 -0.0565,-2.33599 0.28913,-2.34791 0.34564,-0.0119 0.58401,0.0119 0.63169,-0.85814 0.0477,-0.87006 -0.41516,-51.945221 -0.38145,-56.327657 0.0338,-4.382436 0.84279,-20.66487 1.01133,-25.451841 0.16856,-4.786967 1.8492,-11.1264162 4.51898,-12.8427004 2.66978,-1.7162873 10.48842,-3.7186217 21.83497,-5.1488589 11.34657,-1.4302382 22.02568,-2.38373105 30.98851,-2.76512883 8.96282,-0.38139672 17.73496,0 25.83964,0.57209614 8.10468,0.57209509 23.16986,1.62093659 28.12802,1.90698249 4.95817,0.2860502 8.77213,0.667447 9.53494,6.2930512 0.76279,5.6256043 1.6609,13.6701113 1.89686,16.9063713 0.23599,3.236261 0,3.168839 -0.84278,3.067706 -0.84275,-0.10113 -0.80906,-0.505666 -1.01132,-2.25864 -0.20227,-1.752974 -0.9102,-10.214447 -1.4833,-14.12493 -0.57307,-3.9104807 -1.21359,-5.6971649 -4.61841,-6.1016989 -3.4048,-0.4045319 -29.80055,-1.752974 -38.05976,-1.6181307 -8.25921,0.1348454 -23.76629,0.3708237 -32.0255,1.1124648 -8.2592,0.7416431 -28.24985,2.7643046 -32.12663,3.2362602 -3.87677,0.4719557 -5.25892,1.3147316 -5.832,3.7082166 -0.57309,2.393482 -2.05637,15.675636 -2.25864,18.06912 -0.20227,2.393484 -0.47196,4.011615 -0.70793,8.02323 -0.23599,4.011615 -0.0674,33.677336 0,38.194615 0.0674,4.517281 0.16855,35.430312 0.20226,37.351842 0.0337,1.92153 0.57309,1.95524 1.65184,1.98895 1.07875,0.0337 9.10199,0.26969 10.21445,0.23598 1.11247,-0.0337 1.75297,0.26969 1.92153,-0.57309 0.16855,-0.84278 1.48328,0.26969 1.48328,0.26969 l 0.57309,12.91133 z"
     id="path1865" />
  <path
     style="fill:#eee8e4;fill-opacity:1;stroke:none;stroke-width:0.28174424px;stroke-linecap:butt;stroke-linejoin:miter;stroke-opacity:1"
     d="m 491.87338,123.44122 c -0.17829,-4.23374 -0.66849,-8.55662 -0.89132,-10.20555 -0.22283,-1.64894 -0.57935,-1.64894 -1.11416,-1.9609 -0.53477,-0.31196 -0.62389,-0.98044 -0.93587,-2.13915 -0.31194,-1.15871 -0.80218,-3.16417 -1.29241,-4.18918 -0.49021,-1.02502 -0.75762,-1.38154 -2.94133,-1.24785 -2.18372,0.1337 -21.25786,0.93588 -29.59165,1.24785 -8.3338,0.31195 -25.71446,1.2924 -37.83635,1.69349 -12.12188,0.4011 -42.02551,1.42611 -44.74402,1.51524 -2.71851,0.0891 -2.69778,0.18137 -2.60864,2.0977 0.0891,1.91633 0.10361,2.98798 0.11296,4.67629 0.007,1.43234 -0.40109,1.91633 0.0891,7.26422 0.49022,5.34789 0.53479,10.11643 1.78263,10.20556 1.24784,0.0891 119.97103,-8.95772 119.97103,-8.95772 z"
     id="path1125" />
  <path
     style="fill:#f62530;fill-opacity:1;stroke:none;stroke-width:0.28174424px;stroke-linecap:butt;stroke-linejoin:miter;stroke-opacity:1"
     d="m 374.78366,128.32308 c -13.52373,0 -20.14472,-0.14087 -21.90562,-0.14087 -1.7609,0 -1.26785,0.0704 -1.26785,2.747 0,2.67658 0.84523,23.80739 0.84523,25.70917 0,1.90177 25.85004,0.28174 25.85004,0.28174 z"
     id="path1033" />
  <path
     style="fill:#f6303b;fill-opacity:1;stroke:none;stroke-width:0.28174424px;stroke-linecap:butt;stroke-linejoin:miter;stroke-opacity:1"
     d="m 493.5288,149.76583 c -0.85529,-0.15093 -0.85529,-0.40249 -0.85529,-1.96215 0,-1.55965 0.10063,-2.66651 -0.30189,-3.5218 -0.40247,-0.85529 -1.05654,-1.45903 -1.30808,-4.62865 -0.25157,-3.16963 -0.25157,-6.84237 -0.25157,-8.40202 0,-1.55966 0,-2.01246 0.60375,-2.01246 0.60372,0 0.80497,-0.30187 0.75469,-1.81121 -0.0504,-1.50935 -0.20126,-3.21994 -0.3019,-4.12555 -0.10063,-0.9056 -0.85529,-0.70436 -3.77335,-0.4528 -2.91808,0.25156 -6.38956,0.60374 -18.31337,1.10685 -11.92384,0.50312 -38.0858,1.86153 -48.09777,2.31433 -10.01199,0.45281 -45.28034,1.96215 -47.59466,2.06277 -2.31433,0.10062 -2.61619,0.25156 -2.36464,1.50935 0.25156,1.25779 1.15716,5.03114 1.45903,9.10638 0.30187,4.07522 1.05654,18.0115 1.3081,18.56493 0.25155,0.55342 116.97419,-1.3081 119.03695,-7.74797 z"
     id="path1031" />
  <path
     style="fill:#1b1b1b;fill-opacity:1;stroke:none;stroke-width:0.28174424px;stroke-linecap:butt;stroke-linejoin:miter;stroke-opacity:1"
     d="m 352.92552,156.12522 c -0.6068,1.41587 0.13484,1.61813 -4.24759,1.41587 -4.38245,-0.20227 -53.60057,-2.49462 -55.01643,-2.49462 -1.41587,0 -1.24731,0.16855 -1.28102,1.48329 -0.0337,1.31473 0,10.383 0,11.39433 0,1.01133 0.0337,1.14618 0.87649,1.17988 0.84277,0.0338 59.8371,2.96658 61.21926,3.00029 1.38216,0.0338 -1.55071,-15.97904 -1.55071,-15.97904 z"
     id="path2014" />
  <path
     style="fill:#181818;fill-opacity:1;stroke:none;stroke-width:0.28174424px;stroke-linecap:butt;stroke-linejoin:miter;stroke-opacity:1"
     d="m 378.25558,155.09695 c -11.66879,-0.1423 -22.03017,-0.1423 -23.95125,-0.0711 -1.92108,0.0711 -1.84993,0.49806 -1.92108,1.77878 -0.0711,1.28072 0.49805,11.8111 0.64036,13.23412 0.1423,1.42302 0.21345,2.06339 1.84993,2.06339 1.63648,0 18.08521,-4.38487 19.98546,-6.56762 0.44213,-3.29341 7.77075,-10.58665 3.39658,-10.43751 z"
     id="path1029" />
  <path
     style="fill:#161616;fill-opacity:1;stroke:none;stroke-width:0.28174424px;stroke-linecap:butt;stroke-linejoin:miter;stroke-opacity:1"
     d="m 493.54717,157.8007 c -6.75936,5.40748 -15.2975,7.68432 -23.83565,8.46699 -8.53814,0.78266 -40.3427,2.34799 -51.65575,2.84605 -11.31303,0.49805 -49.16545,2.20569 -56.92093,2.77488 -7.75548,0.56922 -8.39583,-0.21345 -4.62482,-0.92495 3.77101,-0.71151 13.09181,-4.12677 15.51095,-5.19404 2.41914,-1.06727 3.22338,-1.44312 4.00605,-2.29694 0.78266,-0.85381 117.52015,-5.67199 117.52015,-5.67199 z"
     id="path989" />
  <path
     style="fill:#1b1b1b;fill-opacity:1;stroke:none;stroke-width:0.28174424px;stroke-linecap:butt;stroke-linejoin:miter;stroke-opacity:1"
     d="m 489.77616,149.54716 c 4.34022,-0.35575 4.48253,0 4.48253,1.70763 0,1.70763 -0.21345,4.76713 -0.64037,6.119 -0.42691,1.35187 -1.63646,1.99223 -5.4075,2.63259 -3.771,0.64037 -20.20692,2.27684 -25.75672,2.6326 -5.54977,0.35575 -41.47589,2.34065 -51.44229,2.49028 -12.06574,0.18116 -23.62241,0.83741 -35.59285,-0.24143 -1.35385,-0.12202 -0.87212,-0.1499 -1.12115,-3.24497 -0.1488,-1.84942 -0.1423,-3.77101 -0.0711,-4.76713 0.0711,-0.99611 0.1423,-1.70763 1.35187,-1.70763 1.20957,0 14.01678,-0.35575 29.17198,-1.20957 15.1552,-0.85381 72.00499,-3.69986 85.02565,-4.41137 z"
     id="path987" />
  <path
     style="fill:#1b1b1b;fill-opacity:0.68246448;stroke:none;stroke-width:0.28174424px;stroke-linecap:butt;stroke-linejoin:miter;stroke-opacity:1"
     d="m 464.31119,115.13829 c -1.99224,-0.0996 -61.70927,2.78937 -63.15363,2.88898 -1.44438,0.0996 -1.9428,-0.19911 -1.89297,1.44449 0.0498,1.64359 0.84657,10.16025 0.89641,11.55481 0.0498,1.39457 0.0998,1.54407 -1.69322,1.74329 -1.79281,0.19921 -21.57831,1.68916 -23.3435,1.81814 -1.76519,0.12897 -4.48628,0.24953 -4.49635,0.58495 -0.0176,0.28174 0.52828,0.33457 1.25024,0.36979 0.72197,0.0352 0.79241,0.28174 0.84523,1.46154 0.0528,1.17981 0.0881,8.82212 0.21131,10.88238 0.12327,2.06025 0.70436,2.48287 2.11308,2.88787 1.13169,0.2329 2.50477,0.22028 3.44807,0.22397 3.53621,0 19.27454,-1.04552 20.86833,-1.14514 1.59379,-0.0996 1.34493,1.04552 1.44449,3.78484 0.0996,2.73932 0.49797,2.78953 0.79681,1.39497 0.29883,-1.39457 -0.59764,-19.37478 -0.69721,-22.81139 -0.0996,-3.4366 -0.89644,-10.85775 -0.99601,-12.10289 -0.0996,-1.24515 0.39853,-1.34434 1.8429,-1.34434 1.44437,0 17.48166,-0.84683 32.57283,-1.34489 15.09115,-0.49805 23.80727,-1.04633 27.4431,-1.29536 3.63582,-0.24903 3.73559,-0.19901 3.885,0.54808 0.14944,0.74708 0.49767,4.28342 0.74671,6.62429 0.24903,2.34087 0.34882,4.63206 0.44848,6.62429 0.0996,1.99223 0.249,17.53121 0.39841,19.52345 0.14941,1.99223 0.14932,2.4405 0.6972,2.4405 0.54786,0 0,-1.94229 -0.14912,-3.83491 -0.14938,-1.89262 -1.2e-4,-1.89241 0.89642,-1.99203 0.89649,-0.0996 14.54294,-0.5976 18.52742,-0.6972 3.35414,-0.0839 3.78233,-0.74361 4.54589,-2.28367 -0.11383,-0.26458 -0.22607,-0.57249 -0.32908,-0.9707 -0.0286,0.071 -0.0576,0.14162 -0.0825,0.21626 -0.54788,1.64359 -1.29538,2.24103 -3.83547,2.19122 -2.54009,-0.0498 -16.83436,0.94649 -17.97991,0.94649 -1.14551,0 -1.64307,0.29862 -1.74275,-0.54808 -0.0996,-0.8467 -0.49801,-11.75416 -0.49801,-12.99931 0,-1.24514 0.0496,-1.29509 1.69322,-1.24529 1.64359,0.0498 5.03007,-0.19916 13.24804,-0.5976 7.27128,-0.35255 7.68365,-0.38969 8.57835,0.43362 0.0113,-0.6017 0.051,-0.97377 0.20689,-1.14018 -0.27431,-0.0839 -0.62995,-0.15197 -1.11486,-0.18985 -3.18757,-0.24903 -19.32496,0.79709 -20.66969,0.74728 -1.34477,-0.0498 -1.64314,-0.34875 -1.64314,-1.54409 0,-1.19534 -0.94643,-10.16024 -1.24528,-11.65442 -0.29882,-1.49417 -0.0499,-1.49456 -2.04211,-1.59416 z m -65.55781,18.62648 c 1.20731,0.0415 1.37058,0.41211 1.4577,1.5452 0.0996,1.29495 0.64768,12.10283 0.64768,12.7005 0,0.59767 -0.34904,0.84661 -1.39496,0.89641 -1.04592,0.0498 -4.98055,0.44818 -10.75802,0.6972 -5.77748,0.24903 -9.26399,0.5979 -11.90369,0.44848 -1.54455,-0.1634 -2.68854,-0.64725 -2.89888,-1.72568 -0.28176,-1.67286 -0.36979,-9.93148 -0.22892,-11.25216 0.14087,-1.32068 0.28228,-1.52239 1.93699,-1.62003 5.67544,-0.33488 15.02018,-1.33181 22.5577,-1.68881 0.2179,-0.006 0.41193,-0.007 0.5844,-0.001 z"
     id="path1035" />
  <path
     style="fill:#f93c46;fill-opacity:1;stroke:none;stroke-width:0.28174424px;stroke-linecap:butt;stroke-linejoin:miter;stroke-opacity:1"
     d="m 486.5602,132.38412 c -3.48295,-0.0266 -14.63583,0.64446 -15.72212,0.72802 -1.15867,0.0891 -1.96063,0.22261 -1.96063,2.0498 0,1.8272 0.22289,5.12493 0.35658,6.10538 0.13368,0.98044 0.31169,1.42633 1.82694,1.42633 1.51525,0 15.28651,-0.57947 16.93545,-0.71317 1.64893,-0.1337 1.78237,-0.31166 1.78237,-1.5595 0,-1.24783 -0.22289,-4.90269 -0.40115,-6.37336 -0.17826,-1.47067 -0.22263,-1.64864 -2.22809,-1.64864 -0.15876,-0.008 -0.35717,-0.0131 -0.58935,-0.0148 z m -89.46977,4.08529 c -0.47338,0.0134 -1.08174,0.0887 -1.85995,0.13537 -3.28719,0.14942 -16.3361,0.84688 -17.43183,0.94649 -1.09573,0.0996 -2.14166,0.0496 -2.0421,1.79281 0.0996,1.74321 0.249,5.47846 0.39841,6.87302 0.14942,1.39457 0.0994,1.59416 1.59362,1.69377 1.49418,0.0996 16.93413,-0.94673 19.02599,-1.19576 2.09188,-0.24903 2.24105,-0.19873 2.19122,-2.04155 -0.0363,-1.34426 -0.20068,-4.11381 -0.34833,-6.42509 -0.0983,-1.53811 -0.4856,-1.80864 -1.52703,-1.77906 z"
     id="path1040" />
  <path
     style="fill:#eeeeee;fill-opacity:1;stroke:none;stroke-width:0.28764597px;stroke-linecap:butt;stroke-linejoin:miter;stroke-opacity:1"
     d="m 486.59266,134.08999 c -1.38658,0 -5.01105,0.18941 -5.79887,0.28395 -0.78784,0.0945 -0.75586,0.22022 -0.6928,1.26014 0,1.19749 0.22021,3.93943 0.31476,4.53818 0.0945,0.59874 0.18945,0.81908 1.10331,0.8821 0.91387,0.063 3.43449,0.0631 5.1677,-0.12602 1.7332,-0.18907 1.70187,-0.50398 1.73337,-1.22878 0.0315,-0.72479 -8e-5,-3.8129 -0.0946,-4.75828 -0.0946,-0.94539 -0.3463,-0.85129 -1.73284,-0.85129 z m -9.14294,0.41987 c -0.29541,0.002 -0.66546,0.0215 -1.13028,0.0215 -1.89078,0.063 -4.7901,0.22052 -5.51492,0.25203 -0.72475,0.0315 -0.72456,0.50428 -0.75608,1.16604 -0.0315,0.66177 -0.032,2.39498 0.0941,3.78154 0.12605,1.38656 0.12602,1.73309 1.07139,1.79612 0.94539,0.063 4.0337,-0.18871 5.5463,-0.31476 1.5126,-0.12605 1.79635,-0.15771 1.8594,-0.91402 0.063,-0.75631 0.0946,-2.5528 0,-4.31751 -0.0709,-1.32354 -0.2836,-1.47681 -1.16991,-1.4709 z m -81.96832,3.86573 c -2.02976,0.0704 -4.50238,0.17608 -5.64643,0.28174 -1.14405,0.10566 -1.36572,0.24433 -1.40267,1.08956 -0.0369,0.84523 0.11052,3.48879 0.14747,4.40445 0.0369,0.91567 0.0458,1.23263 1.67781,1.33829 1.03334,0.0352 3.81113,0.013 5.73669,-0.17609 1.4957,-0.14692 1.47962,-0.0704 1.59031,-0.84523 0.11075,-0.7748 0.11067,-2.04265 0.0369,-4.05008 -0.0738,-2.00743 -0.14719,-1.9722 -2.14005,-2.04264 z m -11.0447,0.54808 c -2.019,0.0704 -4.47875,0.17609 -5.61673,0.28174 -1.13798,0.10566 -1.35822,0.24378 -1.39496,1.08901 -0.0367,0.84523 0.11019,3.48934 0.14692,4.405 0.0367,0.91567 0.2202,1.47916 1.24804,1.51438 1.02786,0.0352 3.57231,0.0233 5.49402,-0.10125 1.88289,-0.12201 2.10478,-0.32137 2.21488,-1.09616 0.11011,-0.7748 0.11024,-2.04265 0.0369,-4.05008 -0.0734,-2.00743 -0.14676,-1.9722 -2.12904,-2.04264 z"
     id="path1042" />
  <path
     style="fill:#0b0b0b;fill-opacity:1;stroke:none;stroke-width:0.28174424px;stroke-linecap:butt;stroke-linejoin:miter;stroke-opacity:1"
     d="m 461.45524,130.71787 c -1.1622,-0.0352 -55.04579,2.50048 -56.98278,2.71178 -1.30307,0.0352 -1.33828,0.10566 -1.30307,1.05654 0.0352,0.95089 0.0704,1.23264 0.88045,1.19742 0.81002,-0.0352 56.56016,-2.74701 57.58149,-2.85266 1.02132,-0.10566 1.16219,-0.35218 1.12697,-1.12698 -0.0352,-0.7748 -0.14087,-0.95089 -1.30306,-0.9861 z m 0.49691,2.99133 c -0.17629,-0.005 -0.40498,2.8e-4 -0.70383,0.007 -3.03813,0.0498 -12.20274,0.72265 -12.55137,0.79736 -0.34866,0.0747 -0.37314,0.199 -0.34832,0.82157 0.0248,0.62257 0.0245,0.82198 1.04553,0.84688 1.02101,0.0249 11.1567,-0.6225 12.17775,-0.69721 1.02098,-0.0747 1.09542,-0.37397 1.02075,-1.09616 -0.056,-0.54163 -0.11173,-0.6627 -0.64051,-0.67904 z m -15.62086,0.87825 c -0.94632,0 -27.01988,1.12064 -27.61754,1.17045 -0.5977,0.0498 -0.54753,0.17421 -0.54753,0.99601 0,0.72218 0.1989,0.87165 1.81758,0.77204 1.6187,-0.0996 25.17707,-1.04566 26.24789,-1.12037 1.07083,-0.0747 1.39472,-0.2741 1.34488,-1.04609 -0.0498,-0.77199 -0.29899,-0.77204 -1.24528,-0.77204 z m -31.01168,1.27225 c -1.44394,0 -9.93148,0.38739 -10.77672,0.45783 -0.84523,0.0704 -1.05654,0.10566 -1.05654,1.26785 0.0352,0.7748 0.3874,0.7748 1.23263,0.81002 0.84524,0.0352 9.75541,-0.52827 10.95281,-0.59871 1.19736,-0.0704 1.3031,-0.3874 1.26785,-1.09176 -0.0352,-0.70436 -0.17609,-0.84523 -1.62003,-0.84523 z m 46.32713,0.72032 c -0.92142,0 -11.70467,0.57242 -12.55137,0.64713 -0.84673,0.0747 -0.72203,0.22429 -0.69723,1.04608 0.0747,0.64748 0.19919,0.79709 1.66846,0.74729 1.46926,-0.0498 9.51284,-0.47351 11.15642,-0.62292 1.64356,-0.14942 1.56889,-0.22402 1.54407,-0.99601 -0.0248,-0.77199 -0.19894,-0.82157 -1.12035,-0.82157 z m -14.88954,0.86999 c -0.0821,-0.002 -0.17406,-0.001 -0.27679,0.002 -0.82179,0.0249 -26.77015,1.02105 -27.54214,1.07085 -0.77201,0.0498 -0.74729,0.14919 -0.74729,0.82157 0,0.52296 0.0499,0.8715 1.24529,0.89641 1.19534,0.0249 25.77427,-0.99614 26.82019,-1.07085 1.04592,-0.0747 1.22001,-0.22389 1.19521,-0.92117 -0.0217,-0.61012 -0.11974,-0.78178 -0.69447,-0.79846 z m -30.55824,1.14679 c -0.79689,-0.0249 -10.65857,0.4482 -11.60489,0.498 -0.94628,0.0498 -0.99601,0.14986 -0.99601,1.09617 0.0249,0.8716 2e-5,1.02105 1.07085,0.97124 1.07083,-0.0498 9.93589,-0.47337 11.10634,-0.54808 1.17043,-0.0747 1.56931,-0.19924 1.49456,-1.07085 -0.0747,-0.8716 -0.27395,-0.92157 -1.07085,-0.94648 z m 45.93367,0.71316 c -0.20429,-0.005 -0.46096,0.003 -0.78471,0.009 -2.93857,0 -11.72935,0.62236 -12.20249,0.62236 -0.47316,0 -0.64733,0.27412 -0.5976,0.84689 0.0498,0.57277 0.0992,0.97084 1.24474,0.94593 1.14552,-0.0249 10.70865,-0.44819 11.85417,-0.5976 1.14554,-0.14942 1.36956,-0.24905 1.29481,-1.07085 -0.056,-0.61635 -0.19607,-0.74208 -0.80892,-0.75609 z m -15.44034,0.7737 c -0.10732,-0.001 -0.22715,0.001 -0.361,0.008 -1.07083,0.0498 -25.77481,1.14541 -26.92033,1.19522 -1.14549,0.0498 -1.21998,0.1493 -1.21998,0.99601 0.0996,0.79689 0.12465,0.82171 1.34489,0.7968 1.22023,-0.0249 23.9318,-0.99586 25.97385,-1.12037 2.042,-0.12452 2.11644,-0.29914 2.09161,-1.02132 -0.0217,-0.63191 -0.15797,-0.84416 -0.90904,-0.85404 z m -30.28367,1.30417 c -0.2502,0.003 -0.5708,0.023 -0.9817,0.0479 -2.24127,0.0747 -10.58393,0.57312 -11.10689,0.62292 -0.52296,0.0498 -0.6726,0.3733 -0.64768,1.02077 0.0249,0.64748 0.10005,0.87151 1.09616,0.89641 0.99611,0.0249 9.41297,-0.54738 10.80753,-0.67189 1.39457,-0.12451 1.74345,-0.24932 1.71853,-1.12092 -0.0187,-0.6537 -0.13536,-0.80333 -0.88595,-0.79516 z m 45.49014,0.71977 c -0.15984,0.004 -0.34227,0.0134 -0.55084,0.0259 -1.96731,0.0249 -11.62962,0.62209 -12.02806,0.6719 -0.39841,0.0498 -0.49804,0.24907 -0.47324,0.87164 0.0248,0.62258 0.0743,0.82212 1.14515,0.82212 1.07082,0 10.08579,-0.57282 11.7045,-0.67244 1.61867,-0.0996 1.46915,-0.54775 1.39441,-1.09561 -0.0654,-0.47939 -0.0731,-0.65411 -1.19192,-0.62347 z m -14.83449,0.82817 c -0.12081,5.7e-4 -0.25689,0.007 -0.4094,0.0193 -1.22023,0.0996 -25.05204,0.99599 -27.2186,1.19522 -0.99611,0.0747 -1.07113,0.1247 -1.02132,0.84688 0.0498,0.72219 0.0252,0.92117 0.62292,0.92117 0.59766,0 0.82142,-0.0997 0.84633,-0.37364 0.0249,-0.27393 0.32405,-0.44779 0.92172,-0.47269 0.59766,-0.0249 25.17651,-0.94676 26.14774,-0.99656 0.9712,-0.0498 1.02118,-0.0747 1.04609,-0.49801 0.0217,-0.37043 -0.0898,-0.64537 -0.93548,-0.64162 z m -30.91538,1.31407 c -1.04593,-0.0249 -9.98612,0.37392 -11.13165,0.42372 -1.14558,0.0498 -1.22037,0.34865 -1.24529,1.17045 0.0498,0.64748 0.0503,0.77162 0.89696,0.84633 0.8467,0.0747 9.98582,-0.44792 11.28078,-0.54753 1.295,-0.0996 1.295,-0.42365 1.36965,-1.02132 0.0747,-0.59767 -0.12454,-0.84674 -1.17045,-0.87165 z m 45.921,0.49801 c -0.77198,0.0249 -9.83662,0.5482 -11.82884,0.72252 -1.17045,0.0747 -1.17033,0.0497 -1.09562,0.89641 0.0746,0.8467 0.24907,0.99629 0.87164,0.94648 0.62257,-0.0498 10.83261,-0.57297 11.85363,-0.64768 1.02101,-0.0747 1.24488,-0.39833 1.21998,-1.09561 -0.0248,-0.69728 -0.24876,-0.84702 -1.02079,-0.82212 z m -43.99942,2.40308 c -0.22685,-0.003 -0.52049,0.006 -0.90026,0.0127 -1.96733,0.0249 -11.63012,0.37336 -12.42701,0.42317 -0.79689,0.0498 -0.92102,0.17435 -0.94594,0.97124 -0.0249,0.7969 0.19925,0.99616 1.07085,0.97125 0.87161,-0.0249 10.70791,-0.44792 12.17719,-0.54753 1.46927,-0.0996 1.69345,-0.17448 1.74329,-1.04608 0.0374,-0.6537 -0.0376,-0.77537 -0.71812,-0.78471 z"
     id="path1050" />
  <path
     style="fill:#eaeaea;fill-opacity:1;stroke:none;stroke-width:0.28174424px;stroke-linecap:butt;stroke-linejoin:miter;stroke-opacity:1"
     d="m 446.19346,144.34257 c 1.78265,-0.0446 1.96091,-0.17827 2.05002,1.06958 0.0891,1.24784 0.26741,4.94679 0.26741,5.70441 0,0.75762 -0.49024,0.66849 -2.27286,0.75762 -1.78263,0.0891 -21.52526,1.20328 -22.99593,1.15871 -1.47067,-0.0446 -1.20327,-0.26739 -1.33696,-1.38154 -0.13371,-1.11414 -0.17827,-3.47613 -0.17827,-4.50114 0,-1.02501 0.0488,-1.24054 0.93588,-1.33697 1.025,-0.11142 19.29697,-1.33697 23.53071,-1.47067 z"
     id="path1081" />
  <path
     style="fill:#0b0b0b;fill-opacity:1;stroke:none;stroke-width:0.28174424px;stroke-linecap:butt;stroke-linejoin:miter;stroke-opacity:1"
     d="m 440.04322,146.07809 c -0.9083,0.0284 -1.2204,0.48363 -1.23648,1.39797 0,0.95817 0.23411,1.15573 0.89145,1.19138 0.65734,0.0357 0.89108,0.01 1.10277,-0.0931 0.21168,-0.10314 0.16733,0.44369 0.12271,0.96794 -0.0446,0.52423 -0.37895,0.55059 -0.93603,0.54701 -0.55707,-0.004 -0.63505,-0.20301 -0.72416,-0.44691 -0.0891,-0.2439 -0.20047,-0.20887 -0.32303,-0.18492 -0.12256,0.024 -0.15597,0.14676 -0.0446,0.51292 0.11142,0.36615 0.46786,0.59538 1.27005,0.6068 0.80218,0.0114 1.12552,-0.28238 1.20346,-0.85165 0.0779,-0.56927 0.0557,-1.81707 0,-2.50708 -0.0557,-0.69002 -0.11176,-1.10113 -1.32617,-1.14036 z m 4.27789,0.0119 c -0.0973,-0.0109 -0.1649,0.0586 -0.25478,0.24062 -0.11984,0.24274 -0.25824,0.70815 -0.34503,0.96272 -0.0868,0.25457 -0.26276,0.18399 -0.38905,-0.0305 -0.12629,-0.21447 -0.31427,-0.58632 -0.43747,-0.88992 -0.12321,-0.3036 -0.29021,-0.29608 -0.49526,-0.16663 -0.20506,0.12946 -0.18491,0.18601 0.20471,0.84081 0.20996,0.37232 0.39388,0.5323 0.55359,0.74748 0.15954,0.21518 0.1638,0.41584 0.15847,0.57179 -0.005,0.15596 -0.0545,0.28842 -0.20965,0.58615 -0.15517,0.29772 -0.52415,0.97025 -0.61137,1.23597 -0.0872,0.26574 0.0776,0.35077 0.30321,0.26277 0.19027,-0.0742 0.33026,-0.53955 0.51232,-0.97049 0.18206,-0.43094 0.44781,-0.36971 0.52991,-0.16732 0.0821,0.2024 0.24792,0.55163 0.39456,0.82228 0.14662,0.27064 0.28025,0.27367 0.41656,0.1985 0.13633,-0.0751 0.16259,-0.17529 0.016,-0.44594 -0.14663,-0.27065 -0.43081,-0.76687 -0.59816,-1.08255 -0.16732,-0.31567 -0.13862,-0.49359 -0.0485,-0.84843 0.0903,-0.35483 0.47881,-0.94846 0.60365,-1.33601 0.12486,-0.38755 -0.0305,-0.41331 -0.19479,-0.49482 -0.0411,-0.0204 -0.0766,-0.0329 -0.10896,-0.0365 z m -7.23015,0.16131 c -0.92474,0.0125 -1.31456,0.65324 -1.32564,1.34416 -0.0111,0.69092 0.10021,0.70056 0.27846,0.89868 0.1783,0.19813 0.10009,0.31052 0.011,0.36744 -0.0891,0.0569 -0.14502,0.20252 -0.16729,0.86016 -0.0222,0.65765 0.0892,1.00129 1.30363,0.99594 1.21435,-0.005 1.19238,-0.49486 1.20346,-1.04094 0.0112,-0.54608 -0.0224,-0.86888 -0.17829,-0.97818 -0.156,-0.1093 -0.21157,-0.23102 -0.1001,-0.32166 0.11143,-0.0906 0.15566,-0.28095 0.16674,-1.01643 0.0112,-0.73549 -0.33402,-1.08737 -1.19191,-1.10917 z m -2.98583,0.20777 c -0.65735,-0.002 -1.09219,0.37149 -1.14789,0.90703 -0.0557,0.53554 -0.14446,2.11854 -0.0776,2.50758 0.0669,0.38905 0.21137,0.81047 0.61246,0.89416 0.40109,0.0837 1.09208,0.0969 1.42633,-0.0413 0.33424,-0.13823 0.55687,-0.85453 0.46774,-1.47725 -0.0891,-0.62271 -0.43454,-0.77386 -0.99161,-0.81087 -0.55706,-0.037 -0.61483,-0.0108 -0.78195,0.0695 -0.16716,0.0803 -0.2121,-0.12737 -0.18984,-0.77387 0.0223,-0.64651 0.0436,-0.76536 0.80121,-0.78676 0.7576,-0.0214 0.72778,0.3693 0.75003,0.50269 0.0223,0.13339 0.17832,0.17655 0.31201,0.16361 0.13364,-0.0129 0.12539,-0.21856 0.0974,-0.54445 -0.0425,-0.49416 -0.74279,-0.61604 -1.2783,-0.60999 z m -3.63737,0.22156 c -0.30426,0.008 -0.69559,0.0186 -1.05873,0.0375 -0.0779,0.007 -0.0325,0.29279 -0.0325,0.41535 0,0.12255 0.0167,0.23918 0.0891,0.23266 0.0725,-0.007 0.1,0.0434 0.11666,0.21028 0.0167,0.16689 0.0803,2.63568 0.0803,2.83781 0,0.0446 -0.12138,0.0347 -0.21626,0.036 -0.0669,9.1e-4 -0.0559,0.4505 -0.0401,0.5921 0.0158,0.14158 0.61061,0.051 1.54024,0.0699 0.9296,0.0189 0.92952,-0.37498 1.02408,-0.78593 0.0946,-0.41095 0.0316,-1.02467 -0.0787,-1.16498 -0.11032,-0.14032 -0.14153,-0.28199 -0.0627,-0.40911 0.0788,-0.12712 0.11022,-0.55273 0.0787,-1.05651 -0.0315,-0.50378 -0.25264,-1.02631 -1.4401,-1.015 z m 9.54245,0.0104 c 0.67961,-0.009 0.83546,0.0776 0.86888,0.72339 0.0334,0.64575 -0.14468,0.78226 -0.77974,0.79088 -0.63506,0.009 -0.7803,-0.13465 -0.7803,-0.72515 0.0669,-0.63597 0.0115,-0.77991 0.69116,-0.78912 z m -11.44751,0.15632 c -0.033,-7.5e-4 -0.0699,0.002 -0.11117,0.006 -0.23633,0.0505 -0.26818,0.11384 -0.28394,0.55524 -0.0158,0.44139 0.0474,2.23684 0.0947,3.05553 0.0473,0.81869 0.20513,0.80042 0.40996,0.78189 0.20483,-0.0185 0.31476,-0.0199 0.31476,-0.50832 0,-0.48845 -0.0627,-2.58344 -0.11005,-3.1973 -0.0413,-0.53713 -0.0829,-0.68823 -0.31421,-0.6935 z m -1.46541,0.0617 c -0.15859,0.003 -0.3654,0.0179 -0.63557,0.0438 -1.12279,0.0875 -1.4452,0.0893 -1.41368,0.41977 0.0209,0.21931 0,0.31497 0.47269,0.32431 0.47269,0.009 0.61432,0.0388 0.63008,0.49551 0.0158,0.45672 0.12626,2.29896 0.18929,2.72353 0.063,0.42456 0.17302,0.43858 0.36209,0.4045 0.18907,-0.0341 0.25253,-0.0505 0.20525,-0.50684 -0.0473,-0.45629 -0.1671,-1.98199 -0.17828,-2.4832 -0.0112,-0.50122 -0.0666,-0.78987 0.33456,-0.83987 0.40109,-0.05 0.59015,-0.0528 0.56789,-0.3087 -0.0167,-0.19196 -0.0586,-0.28295 -0.53432,-0.27285 z m 9.94909,-0.0777 c 0.72419,0.0125 0.8246,0.0338 0.80231,0.72485 -0.0222,0.69107 -0.10052,0.90355 -0.7913,0.89063 -0.69076,-0.0129 -0.83574,-0.12235 -0.80231,-0.80243 0.0334,-0.68008 0.12282,-0.79284 0.7913,-0.81305 z m -6.23964,0.32894 c 0.54358,-0.0231 0.55966,0.23667 0.5833,0.81145 0.0236,0.57479 -0.13389,0.60076 -0.27569,0.64207 -0.14181,0.0413 -0.68567,0.0484 -0.859,0.0507 -0.1733,0.002 -0.18914,-0.0287 -0.22066,-0.45374 -0.0241,-0.3542 -0.0313,-0.86601 -0.0313,-0.95267 0,-0.0866 0.2598,-0.0747 0.8034,-0.0978 z m 6.25065,1.73227 c 0.77991,5.9e-4 0.83546,0.0556 0.82432,0.65742 -0.0111,0.60178 -0.1111,0.8034 -0.70161,0.80027 -0.5905,-0.003 -0.84675,-0.0221 -0.85789,-0.65696 -0.0111,-0.63492 0.0779,-0.81409 0.73518,-0.80073 z m -2.91869,0.0842 c 0.55707,0.004 0.73518,0.0456 0.6906,0.72581 -0.0445,0.68023 -0.22309,0.72732 -0.79131,0.67932 -0.56821,-0.048 -0.6796,-0.25817 -0.63503,-0.8047 0.0445,-0.54654 0.17867,-0.60402 0.73574,-0.60043 z m -3.22961,0.11257 c 0.54358,-0.0231 0.55966,0.23668 0.5833,0.81147 0.0236,0.57478 -0.13388,0.6002 -0.27569,0.64151 -0.14181,0.0413 -0.68566,0.0489 -0.85899,0.0513 -0.17331,0.002 -0.18914,-0.0287 -0.22066,-0.45374 -0.0241,-0.35419 -0.0314,-0.86655 -0.0314,-0.95321 0,-0.0867 0.25981,-0.0742 0.80341,-0.0973 z"
     id="path1083" />
  <path
     style="fill:#5c4e4f;fill-opacity:0.65876776;stroke:none;stroke-width:0.28174424px;stroke-linecap:butt;stroke-linejoin:miter;stroke-opacity:1"
     d="m 453.41313,122.19338 c 2.40654,0 2.62937,0 2.8522,1.60437 0.22283,1.60437 0.44567,2.62938 -0.57935,2.76308 -1.02501,0.1337 -39.48527,2.00546 -41.98095,1.91632 -2.49568,-0.0891 -2.71851,0 -2.85221,-1.87175 -0.1337,-1.87177 -0.1337,-2.36199 1.02502,-2.49569 1.1587,-0.1337 37.2124,-1.96089 41.53529,-1.91633 z"
     id="path1127" />
  <path
     style="fill:#d3d3d3;fill-opacity:1;stroke:none;stroke-width:0.28174424px;stroke-linecap:butt;stroke-linejoin:miter;stroke-opacity:1"
     d="m 486.56688,117.18356 c 2.05002,-0.0891 2.58798,-0.33807 2.85539,1.71196 0.26737,2.05002 0.49021,5.88268 0.49021,7.26422 0,1.38153 -0.17826,1.64893 -1.87177,1.73806 -1.69348,0.0891 -3.43157,0.0891 -4.90221,-0.0446 -1.47068,-0.1337 -1.29243,-0.53479 -1.42611,-1.73807 -0.13371,-1.20327 -0.38263,-5.43385 -0.42721,-6.81539 -0.0446,-1.38154 0.007,-1.79344 0.96198,-1.91949 1.14506,-0.086 2.92667,-0.19326 4.31972,-0.19673 z"
     id="path1129" />
  <path
     style="fill:#fb630d;fill-opacity:1;stroke:none;stroke-width:0.28174424px;stroke-linecap:butt;stroke-linejoin:miter;stroke-opacity:1"
     d="m 486.6239,118.74352 c 1.54412,0 1.73321,-0.28361 1.89079,1.32354 0.15754,1.60715 0.37812,4.38027 0.37812,5.4517 0,1.07144 -0.18908,1.10295 -1.57562,1.229 -1.38656,0.12605 -2.58405,0.12605 -3.37186,0.063 -0.78782,-0.063 -0.94539,-0.22059 -1.07145,-1.13446 -0.12605,-0.91387 -0.28361,-4.22271 -0.31513,-5.29414 -0.0315,-1.07143 0.0315,-1.32354 0.56723,-1.41808 0.53571,-0.0945 1.85927,-0.18907 3.49792,-0.22058 z"
     id="path1131" />
  <path
     style="fill:#d3d3d3;fill-opacity:1;stroke:none;stroke-width:0.28174424px;stroke-linecap:butt;stroke-linejoin:miter;stroke-opacity:1"
     d="m 381.35029,121.88142 c 2.18373,-0.0446 2.36198,0.53479 2.58482,2.00546 0.22282,1.47067 0.53478,5.83812 0.57935,7.21966 0.0446,1.38154 -0.53479,1.47067 -2.40656,1.64893 -1.87175,0.17826 -3.60982,0.17826 -4.81309,0.1337 -1.20328,-0.0446 -1.51524,-0.44566 -1.6935,-1.64894 -0.17827,-1.20327 -0.57936,-5.97181 -0.62392,-7.35335 -0.0446,-1.38154 0.22283,-1.78263 1.1587,-1.87176 0.93589,-0.0891 2.89677,-0.17826 5.2142,-0.1337 z"
     id="path1133" />
  <path
     style="fill:#fb630d;fill-opacity:1;stroke:none;stroke-width:0.28174424px;stroke-linecap:butt;stroke-linejoin:miter;stroke-opacity:1"
     d="m 381.5919,123.40741 c 1.35505,-0.0315 1.29203,0.063 1.51262,1.44959 0.22058,1.38656 0.40966,4.82145 0.44118,5.67229 0.0315,0.85085 -0.0315,0.81933 -1.57564,0.94538 -1.54412,0.12605 -3.11977,0.0945 -4.06515,0.0945 -0.94538,0 -0.97689,-0.18907 -1.10294,-1.0084 -0.12606,-0.81934 -0.36512,-4.90993 -0.40426,-5.81299 -0.0316,-0.73025 0.058,-1.06679 0.777,-1.1421 0.76296,-0.0799 2.11677,-0.13528 4.41719,-0.19831 z"
     id="path1135" />
  <g
     id="g1863"
     transform="matrix(0.07908714,-0.00334413,0,0.08853301,420.6252,109.66268)">
    <path
       style="fill:#df3e33"
       d="m 80.458931,63.314209 c 0.32924,-0.9878 23.420579,-1.30336 110.083329,-1.5044 97.07027,-0.22519 109.6667,-0.08161 109.6667,1.25 0,1.33009 -12.75491,1.5044 -110.08333,1.5044 -87.62221,0 -109.998329,-0.25505 -109.666699,-1.25 z m 26.571209,-37.5 c -6.1419,-6.42509 -7.169429,-10.15901 -4.18564,-15.21017 3.2391,-5.4833497 5.51137,-6.0398297 24.66242,-6.0398297 h 17.48938 l -1.00675,3.96627 -1.00674,3.9662597 -10.03061,0.28374 c -8.23053,0.23281 -10.2264,0.59488 -11.12161,2.01757 -0.91036,1.44675 -0.14146,2.6934 4.64368,7.529 3.15408,3.18733 5.73469,6.11961 5.73469,6.51616 0,0.39655 -4.85867,0.721 -10.79705,0.721 h -10.79705 z m 36.22713,3.5 c 0.0266,-0.1375 1.49185,-5.65 3.25618,-12.25 l 3.20788,-11.9999997 14.37621,-0.27826 c 11.55905,-0.22374 14.83326,0.0212 16.70863,1.25 2.90887,1.90596 3.40279,1.91006 3.40279,0.02826 0,-1.25877 2.15679,-1.5 13.41111,-1.5 h 13.4111 l 2.5889,3.07673 c 3.15985,3.7552597 3.15324,3.5176797 0.38023,13.6732697 l -2.25269,8.25 h -8.26932 c -4.54813,0 -8.26446,-0.1125 -8.25851,-0.25 0.006,-0.1375 0.68096,-2.45902 1.5,-5.15893 2.25831,-7.4443 1.98919,-10.42747 -1.00858,-11.17986 -3.53073,-0.88616 -5.13962,-0.003 -5.93702,3.25803 -0.38067,1.55692 -1.37051,5.19326 -2.19963,8.08076 l -1.50751,5.25 h -8.32932 -8.32933 l 1.85313,-7.20435 c 2.11908,-8.23823 1.55738,-9.79565 -3.53287,-9.79565 -3.21432,0 -3.25033,0.0554 -5.51969,8.5 l -2.28426,8.5 h -8.35787 c -4.59683,0 -8.33613,-0.1125 -8.30956,-0.25 z m 72.95421,-1 c 0.002,-1.07557 4.01545,-16.85645 5.59488,-21.9999997 0.48676,-1.58516 2.29971,-1.75 19.24748,-1.75 19.90864,0 21.43189,0.32672 25.08896,5.38127 1.37629,1.9022097 1.48019,1.8440197 2.5886,-1.44976 l 1.15475,-3.43151 22.23493,-0.26933 22.23492,-0.26933 -0.70705,2.26933 c -2.12523,6.8210697 -1.90999,6.6564997 -9.11914,6.9726697 l -6.76414,0.29666 -2.12163,7.5 -2.12164,7.5 -8.15672,0.29044 c -9.35481,0.33311 -9.03968,0.79076 -6.2273,-9.04362 l 1.92941,-6.74682 h -6.42941 -6.42942 v 3.54966 c 0,1.95231 -0.68262,4.8697 -1.51693,6.48307 -2.41073,4.66184 -6.12058,5.96727 -16.95816,5.96727 -9.35737,0 -9.59652,-0.0582 -10.54966,-2.5651 -0.53639,-1.4108 -0.97525,-2.7608 -0.97525,-3 0,-0.23919 2.385,-0.4349 5.3,-0.4349 5.96504,0 7.7,-1.15889 7.7,-5.1433 0,-3.84179 -3.31255,-5.8567 -9.62851,-5.8567 h -5.18349 l -2.24546,8.5 -2.24547,8.5 h -7.84853 c -5.61351,0 -7.84782,-0.35596 -7.84602,-1.25 z"
       id="path4826" />
    <path
       style="fill:#16130f"
       d="m 85.007241,49.064209 1.53084,-5.5 h 13.33544 c 12.002109,0 13.535409,-0.19997 15.335439,-2 2.28336,-2.28336 2.37655,-2.8794 1.0115,-6.46976 l -0.9885,-2.59995 10.2385,0.28485 10.2385,0.28486 v 6.66997 c 0,5.72558 -0.35397,7.05351 -2.5,9.37887 -4.57579,4.95817 -7.2287,5.45116 -29.33417,5.45116 H 83.476391 Z m 52.281699,2.25 c 0.5172,-1.7875 1.88508,-6.7375 3.03974,-11 l 2.09938,-7.75 h 7.89045 c 4.33975,0 7.89823,0.3375 7.90773,0.75 0.01,0.4125 -1.21473,5.3625 -2.72053,11 l -2.73782,10.25 h -8.20966 -8.20966 z m 25.92002,2.10816 c 0,-0.62802 1.23116,-5.57802 2.73591,-11 l 2.73591,-9.85816 h 8.1935 8.19351 l -1.95435,6.75 c -1.07489,3.7125 -2.44655,8.6625 -3.04813,11 l -1.09378,4.25 h -7.88128 c -5.24021,0 -7.88129,-0.38264 -7.88129,-1.14184 z m 27.09552,-5.60816 c 1.07489,-3.7125 2.44655,-8.6625 3.04813,-11 l 1.09378,-4.25 h 7.94867 c 7.08942,0 7.89592,0.18918 7.46063,1.75 -0.26842,0.9625 -0.71964,2.65 -1.00272,3.75 -0.28307,1.1 -1.46283,5.2625 -2.62169,9.25 l -2.10701,7.25 h -7.88707 -7.88707 z m 19.10452,5.04437 c 0.25108,-0.9869 1.53678,-5.95687 2.8571,-11.04437 l 2.4006,-9.25 h 7.77113 c 4.27412,0 7.75274,0.3375 7.73027,0.75 -0.0225,0.4125 -1.26719,5.25 -2.76603,10.75 l -2.72517,10 -7.8622,0.29437 c -7.14237,0.26742 -7.82041,0.13009 -7.4057,-1.5 z m 37.39736,-0.04437 c -0.29555,-0.9625 -1.64342,-5.9125 -2.99526,-11 l -2.45788,-9.25 h 6.20536 c 3.95885,0 6.99833,0.55541 8.39571,1.53417 1.96428,1.37584 4.36032,7.6128 6.80583,17.71583 l 0.66566,2.75 h -8.04102 c -6.78674,0 -8.12485,-0.27298 -8.5784,-1.75 z m 23.93874,-1.41456 c 0.38228,-1.7405 1.67174,-6.578 2.86545,-10.75 l 2.1704,-7.58544 8.15471,-0.28948 8.15472,-0.28949 -1.96565,6.78949 c -1.0811,3.73421 -2.45784,8.70198 -3.05942,11.03948 l -1.09378,4.25 h -7.96074 -7.96074 z"
       id="path4822" />
    <path
       id="path1820"
       d="M 33.254631,62.714904 C 26.799418,61.315173 22.107174,58.715544 17.221648,53.832197 12.968063,49.580519 9.742983,44.205296 8.891655,39.948661 l -0.379667,-1.898336 7.535536,-0.434181 c 4.14454,-0.2388 10.532671,-0.435543 14.195843,-0.437203 l 6.66032,-0.0033 3.479935,-4.65018 3.479935,-4.650179 h 17.948426 17.948418 l -2.74836,3.64018 -2.74836,3.640181 -13.349602,0.17961 -13.349603,0.17961 -2.197635,2.989401 c -1.208701,1.644171 -2.908076,3.811486 -3.776384,4.816257 l -1.578749,1.826857 h -9.84734 -9.847348 l 2.96164,3.018963 c 1.628905,1.660427 4.605811,3.815446 6.615352,4.788928 3.107237,1.505237 4.547943,1.774056 9.632516,1.797294 5.303157,0.02424 6.429232,-0.193653 9.964671,-1.928177 5.08428,-2.494402 9.712099,-7.237041 11.66908,-11.958601 l 1.529478,-3.689845 h 4.208444 4.20842 l -0.39739,1.826856 c -0.21858,1.004772 -1.42056,3.962213 -2.67109,6.572093 -4.251706,8.873399 -12.310381,15.014028 -22.532811,17.169785 -5.571473,1.174941 -6.707732,1.172177 -12.250699,-0.02976 z M 0,35.269763 c 0,-0.317647 1.221191,-2.111288 2.713759,-3.985868 l 2.713752,-3.408336 h 13.176423 13.176418 l 3.382255,-4.65018 c 1.860238,-2.557599 3.453654,-4.696469 3.540932,-4.753041 0.08727,-0.0566 4.64278,-0.280785 10.123348,-0.498234 l 9.964671,-0.395372 -2.657245,-2.603556 C 54.672827,13.543227 51.533956,11.458026 49.159043,10.341405 43.59691,7.7262303 37.000164,7.5685703 30.980295,9.9069193 25.811587,11.914654 19.833262,17.793444 18.155006,22.518704 l -1.194765,3.36392 H 12.715106 8.46997 L 8.889908,23.723613 C 10.235663,16.80469 17.427864,7.5220943 24.314329,3.8161343 c 9.16296,-4.9310637 20.450122,-5.0930896 29.905963,-0.429285 5.261545,2.595086 11.220839,8.6762977 13.821549,14.1043337 1.2485,2.605748 2.44881,5.559815 2.66739,6.564585 l 0.39739,1.826856 H 56.874162 42.64169 l -3.398684,4.584573 C 37.373734,32.98871 35.377877,35.230762 34.807771,35.449532 33.160504,36.081645 0,35.910385 0,35.269763 Z"
       style="fill:#df3e33;stroke-width:0.66431135" />
  </g>
  <path
     style="fill:#252525;fill-opacity:1;stroke:none;stroke-width:0.28174424px;stroke-linecap:butt;stroke-linejoin:miter;stroke-opacity:1"
     d="m 468.29799,30.749829 c -0.19162,9.86e-4 -0.39408,0.005 -0.6086,0.01101 -3.43257,0.09535 -42.71662,1.620529 -58.83064,2.001925 -16.11402,0.381398 -44.90913,1.048837 -47.29286,1.048837 -2.38373,0 -2.19323,1.048823 -1.62113,4.195348 0.57209,3.146525 2.19322,10.965635 3.7188,17.83078 1.5256,6.865146 5.33928,31.941809 7.15091,43.002319 0.85814,5.816302 1.14414,6.674372 3.52786,6.674372 2.38373,0 103.93061,-3.71851 107.07713,-3.9092 3.1465,-0.19071 3.33718,-0.66748 3.1465,-2.765172 -0.19069,-2.097682 -3.05084,-22.21641 -5.43457,-37.28159 -2.38372,-15.065179 -5.53036,-24.123238 -6.57918,-27.269762 -0.98329,-2.949867 -1.38012,-3.553527 -4.25422,-3.538862 z M 358.6391,47.339173 c -0.30756,-0.05523 -0.48823,1.466258 -0.60146,5.542438 -0.0953,6.579098 0.76269,47.388409 0.76269,48.913999 0,1.52559 0.19089,2.66982 1.62113,2.76516 1.43023,0.0953 3.71845,0.0953 5.24403,0 1.52564,-0.0954 1.71624,-0.57167 1.43018,-5.148434 -0.28604,-4.576763 -0.47669,-4.672179 -2.47902,-18.783868 -2.00234,-14.111687 -4.29068,-28.318887 -5.14883,-31.274713 -0.34862,-1.200804 -0.61829,-1.976792 -0.82872,-2.014582 z"
     id="path1869" />
  <path
     style="fill:#171717;fill-opacity:1;stroke:none;stroke-width:0.28174424px;stroke-linecap:butt;stroke-linejoin:miter;stroke-opacity:1"
     d="m 470.31147,23.41874 c 0.33453,3.347801 0.90581,3.861643 -1.38258,4.004666 -2.28838,0.143024 -77.42357,2.193033 -87.19686,2.288382 -9.7733,0.09535 -18.73613,0.190698 -20.69079,0.190698 -1.95467,0 -2.09769,-0.52442 -1.95467,-2.050008 0.14304,-1.525589 0.33373,-7.866314 1.00117,-11.394233 0.66745,-3.527924 0.85815,-4.147692 2.52676,-4.672115 1.66861,-0.524419 5.48258,-0.953493 10.05935,-1.477912 4.57676,-0.5244222 28.84314,-2.8604784 44.52809,-3.1465254 15.68495,-0.286046 39.76063,0.7151207 44.86183,1.3348906 5.10118,0.6197689 6.1977,0.6674437 6.67444,3.1941998 0.47674,2.526752 1.30737,9.067176 1.57326,11.727957 z"
     id="path1882" />
  <path
     style="fill:#ded2c7;fill-opacity:1;stroke:none;stroke-width:0.28174424px;stroke-linecap:butt;stroke-linejoin:miter;stroke-opacity:1"
     d="m 501.15694,46.254881 c 2.00233,0.667444 2.14538,1.096516 2.14538,3.003501 0,1.644774 -0.23844,1.954659 -1.28724,2.908152 -1.19187,0.905818 -2.09767,1.287215 -2.57441,-0.04767 -0.47677,-1.334889 -0.52033,-3.06556 -0.42908,-4.552926 0.1035,-1.687794 0.81045,-1.692449 2.14535,-1.311052 z"
     id="path1886" />
  <path
     style="fill:#191919;fill-opacity:1;stroke:none;stroke-width:0.28174424px;stroke-linecap:butt;stroke-linejoin:miter;stroke-opacity:1"
     d="m 346.50027,33.001582 c -2.14536,0 -28.07992,0.428719 -30.08225,0.571743 -2.00233,0.143025 -1.95515,0.571979 -1.95515,3.909202 0,3.337223 0.81077,41.81089 0.85844,45.863233 0,2.90815 -0.19075,3.8142 1.43018,3.861877 1.62095,0.04767 28.08032,0.14272 30.17801,0.190397 2.09767,0.04767 2.43134,-0.476689 2.47902,-1.430182 0.0477,-0.95349 -0.52422,-48.055995 -0.47655,-50.392052 0.0477,-2.336056 -0.28633,-2.574218 -2.4317,-2.574218 z m -41.52536,0.13647 c -0.29862,0.0019 -0.63093,0.0061 -1.00041,0.0061 -3.7663,0.04767 -41.61965,0.42942 -43.24059,0.477094 -1.62094,0.04767 -1.8592,0.619662 -1.81153,1.811528 0.0477,1.191865 0.57175,52.63254 0.57175,54.015105 0,1.382564 4e-5,1.573657 1.71633,1.669005 1.71628,0.09535 40.52363,0.619817 43.62248,0.667491 3.09885,0.04767 3.09864,-0.04782 3.09864,-2.002474 0,-1.95466 -0.33364,-50.821407 -0.38135,-53.872583 -0.0417,-2.669778 -0.48499,-2.784255 -2.57532,-2.771219 z m -50.05748,0.673545 c -6.48375,-0.04767 -41.23871,0.524419 -42.43057,0.524419 -1.19187,-10e-7 -1.43004,0.333713 -1.52538,2.097674 -0.0953,1.763961 -0.0475,51.822779 -0.0952,52.87162 -0.0477,1.048844 -0.19086,1.382159 1.66845,1.477507 1.85931,0.09535 42.43047,0.381546 43.71769,0.42922 1.28721,0.04767 1.7642,-0.381594 1.7642,-1.621128 0,-1.239545 -0.33422,-52.346697 -0.3819,-54.062983 -0.0477,-1.716287 -0.28588,-1.716329 -2.71729,-1.716329 z m -48.48477,0.620168 c -4.29072,0.04767 -39.18891,0.762541 -40.38078,0.857889 -1.19186,0.09535 -1.28731,0.429163 -1.33498,1.859402 -0.0477,1.430238 -0.23807,50.677945 -0.1904,51.536087 0.0477,0.858143 0.28619,1.430382 1.47806,1.478056 1.19186,0.04767 38.90221,0.476745 40.61849,0.524419 1.71629,0.04767 2.19308,-0.238564 2.24075,-1.621128 0.0477,-1.382564 1.5e-4,-51.917478 -0.0952,-53.109344 -0.0953,-1.191865 -0.0476,-1.573055 -2.33594,-1.525381 z m -46.44213,1.137982 c -0.25821,0.0023 -0.5414,0.0061 -0.85129,0.0061 -4.71979,0.143024 -36.66171,0.524419 -38.04428,0.524419 -1.38256,0 -1.38271,0.333614 -1.47805,1.811527 -0.0954,1.477913 0.61996,49.438762 0.57229,50.439929 -0.0477,1.001167 0.0951,1.382707 1.52538,1.478055 1.43024,0.09535 37.04326,0.381347 38.99792,0.381347 1.95466,0 2.00212,-0.333715 2.0498,-2.097676 0.0477,-1.763959 -0.2858,-48.485517 -0.33347,-50.630875 -0.0417,-1.877188 -0.63086,-1.929074 -2.4383,-1.912779 z m -44.63281,0.704911 c -0.31696,-0.0017 -0.67497,0.004 -1.0802,0.01596 -4.14769,0.09535 -30.512065,0.524619 -31.70393,0.572293 -1.191866,0.04767 -1.191911,0.476638 -1.191911,1.811528 0,1.334888 0.476745,47.055234 0.524419,48.914546 0.04767,1.85931 0.333864,1.954601 2.002475,1.954601 1.668613,0 29.748817,0.381344 31.989527,0.381344 2.24071,0 2.57442,-0.333757 2.62209,-2.765165 0.0477,-2.431405 -0.57159,-47.62723 -0.66694,-49.152818 -0.0834,-1.33489 -0.27679,-1.720554 -2.49553,-1.732287 z M 76.85286,36.86291 c -2.193033,-0.04767 -14.827031,0.428918 -17.115415,0.619617 -2.28838,0.190698 -2.622092,0.52456 -2.622092,2.526893 0,2.002335 -0.142622,41.143044 0.09575,45.767486 0.09535,3.432569 -0.04784,4.195346 3.24171,4.195346 3.28955,0 14.826834,-0.04752 17.06754,-0.0952 2.24071,-0.04767 2.574416,-0.142664 2.622093,-2.144998 0.04767,-2.002334 -0.619618,-46.482992 -0.619618,-48.485326 0,-2.002335 -0.476934,-2.336146 -2.669966,-2.38382 z m -49.915509,1.907276 c -2.240698,-0.04768 -16.304792,0.333671 -17.2106106,0.381345 -0.9058134,0.04767 -1.000857,0.381289 -1.0961627,1.811528 -0.095359,1.430238 -0.3335767,45.386329 -0.2382711,47.007268 0.095348,1.62094 0.4766859,2.144998 2.4790194,2.144998 h 16.828715 c 1.47792,0 1.859571,-0.333458 1.907279,-2.431143 0.142962,-3.718621 2.11e-4,-45.910853 -0.0952,-47.293416 -0.09535,-1.382565 -0.334055,-1.572906 -2.574767,-1.62058 z m 22.168652,7.293985 c -1.47792,0 -9.248683,0.238521 -10.583571,0.429219 -1.334887,0.190699 -1.906927,0.286089 -1.954601,2.240748 -0.04771,1.954659 -0.334019,36.94771 -0.334019,38.950044 0,2.002334 0.191099,2.622092 1.144586,2.622092 0.953496,0 7.341594,0.04782 10.297421,-0.0952 2.765134,0.04767 2.955965,-0.09534 3.051313,-1.573257 0.09531,-1.477912 0.09535,-38.759737 0.143072,-40.619047 0.04771,-1.859311 -0.286294,-1.954601 -1.764201,-1.954601 z M 316.0708,88.674138 c -0.23451,0.0017 -0.37728,0.005 -0.41602,0.01102 -0.61977,0.09535 -0.66732,0.381439 -0.61962,1.716329 0.0477,1.334888 0.42932,1.525527 2.28863,1.954601 1.85931,0.429071 29.3199,7.532903 30.84549,7.818952 1.52558,0.28604 2.00209,0.66704 2.0498,-0.620166 0.0477,-1.287217 -0.0956,-7.150904 -0.19095,-8.724166 -0.0953,-1.573263 -0.19069,-1.668656 -2.09767,-1.71633 -4.15663,-0.0447 -28.34203,-0.466239 -31.85966,-0.440225 z"
     id="path2039" />
  <path
     style="fill:#e7ded6;fill-opacity:1;stroke:none;stroke-width:0.28174424px;stroke-linecap:butt;stroke-linejoin:miter;stroke-opacity:1"
     d="m 341.2615,44.406813 c 5.32634,-0.337112 6.00056,0.202266 6.33767,2.764305 0.33711,2.56204 0,10.315581 -0.13484,12.338243 -0.13485,2.022663 -0.26969,3.168839 -5.73088,3.303683 -5.46119,0.134844 -5.39377,-0.809065 -5.86572,-2.157507 -0.47195,-1.348442 -1.75298,-9.169405 -1.55071,-12.338243 0.20227,-3.168839 0.43923,-3.509337 6.94448,-3.910481 z"
     id="path1888" />
  <path
     style="fill:#ded2c7;fill-opacity:1;stroke:none;stroke-width:0.28174424px;stroke-linecap:butt;stroke-linejoin:miter;stroke-opacity:1"
     d="m 341.44697,48.82931 c 3.24187,0.333723 3.52792,2.765128 3.43257,4.100018 -0.0953,1.334889 -0.85814,3.623271 -3.52792,3.670945 -2.66978,0.04767 -3.90932,-2.002334 -4.00467,-3.766295 -0.0953,-1.76396 0.66745,-4.052342 4.10002,-4.004668 z"
     id="path1890" />
  <path
     style="fill:#f2e7de;fill-opacity:1;stroke:none;stroke-width:0.28174424px;stroke-linecap:butt;stroke-linejoin:miter;stroke-opacity:1"
     d="m 349.50371,35.861947 c -0.85814,-0.04767 -6.67436,1.096509 -7.7232,1.573256 -1.04884,0.476746 -1.04849,0.81036 -1.09616,1.811527 -0.0477,1.001167 -0.19101,2.240948 0.19039,2.288622 0.3814,0.04767 0.3817,0.333466 0.33403,1.382308 -0.0477,1.048841 -0.71547,10.631229 -1.00152,13.73008 -0.0477,1.906984 -0.19055,1.954801 0.42922,2.002475 0.61976,0.04767 1.00137,-1.95e-4 1.09671,-1.096712 0.0953,-1.096516 0.4766,-8.533609 0.61962,-10.726642 0.14302,-2.193032 0.33373,-4.338165 0.52442,-5.720729 0.19069,-1.382563 -0.0952,-1.859352 2.38382,-1.716329 2.47908,0.143025 2.86057,0.09554 2.90824,1.096712 0.0477,1.001167 -0.38155,3.956726 0.61962,4.0044 1.00116,0.04767 2.71749,-0.09535 2.76516,0.524419 0.0477,0.61977 0.71486,-8.867544 0.33348,-8.152424 -0.38141,0.715118 -0.47664,0.858088 -0.7627,0.905763 -0.28604,0.04767 -0.61962,0.04772 -0.61962,-0.381345 0,-0.429073 -0.14337,-1.477707 -1.00151,-1.525381 z m -2.32604,1.566652 c 0.32026,0 0.21933,0.387933 0.20251,0.843032 -0.0168,0.455099 -0.18566,0.455083 -0.84304,0.455083 -0.65736,0 -1.53377,-0.0509 -2.27541,-0.118311 -0.74164,-0.06742 -0.47194,-0.404669 0.64053,-0.74178 1.04503,-0.337114 1.95516,-0.438024 2.27541,-0.438024 z"
     id="path1892" />
  <path
     style="fill:#1b1b1b;fill-opacity:1;stroke:none;stroke-width:0.28174424px;stroke-linecap:butt;stroke-linejoin:miter;stroke-opacity:1"
     d="m 254.82637,153.49576 c 3.91048,0.13484 3.77564,-0.20227 3.91048,2.02266 0.13485,2.22493 0.13485,11.25949 0.0674,13.14731 -0.0674,1.88782 -0.6068,1.95524 -3.034,1.95524 -2.42719,0 -144.9575,-6.67479 -147.18243,-6.7422 -2.22493,-0.0674 -2.32606,-0.40453 -2.39348,-2.22494 -0.0674,-1.82039 -0.0674,-11.86629 -0.0674,-12.67535 0,-0.80907 0.64051,-0.6068 1.8541,-0.6068 1.2136,0 139.42889,5.05666 146.84532,5.12408 z"
     id="path2020" />
  <path
     style="fill:#1b1b1b;fill-opacity:1;stroke:none;stroke-width:0.28174424px;stroke-linecap:butt;stroke-linejoin:miter;stroke-opacity:1"
     d="m 75.708638,147.2774 c 1.763961,0 1.859312,-0.14302 1.906986,1.38256 0.04767,1.52559 0.143024,7.91399 0.09535,9.63028 -0.04767,1.71628 -0.476744,1.90698 -2.860475,1.43024 -2.383731,-0.47675 -45.147864,-7.1512 -57.63861,-8.86748 -12.4907572,-1.71629 -14.2547194,-1.47791 -15.5896068,-1.57327 -1.33488747,-0.0953 -1.38256127,-0.38139 -1.43023506,-2.6221 -0.0477057,-2.24071 0.14302138,-11.68028 0.23836896,-13.25354 0.095305,-1.57327 0.6610759,-1.58926 1.996549,-1.56269 5.7847572,0.1151 5.7744174,0.0371 5.7744174,1.61036 0,1.57326 0.1906952,9.91632 0.2383689,10.96516 0.047706,1.04885 0.1430214,1.23954 2.3837326,1.28722 2.24071,0.0477 59.307227,1.62093 64.885157,1.57326 z"
     id="path2022" />
  <path
     style="fill:#252525;fill-opacity:1;stroke:none;stroke-width:0.28174424px;stroke-linecap:butt;stroke-linejoin:miter;stroke-opacity:1"
     d="m 9.0119242,131.4734 c -0.5482236,0.0238 -0.5721042,0.33342 -0.5959567,0.71482 -0.023864,0.3814 -0.047874,1.12055 -0.047874,1.62113 0,0.50058 0.071755,0.62 0.7153656,0.64383 0.6436025,0.0238 67.6264469,1.57305 68.5084299,1.52538 0.881978,-0.0477 1.286982,-0.16691 1.453843,-0.66749 0.16686,-0.50058 0.357933,-1.2633 0.548632,-1.88307 0.190698,-0.61977 0.26174,-0.81056 -1.359196,-0.81056 -2.383732,-0.0953 -68.6749807,-1.16787 -69.2232438,-1.14404 z m 96.7791558,1.90673 c -0.59593,0 -0.66714,0.28629 -0.71482,0.71536 -0.0477,0.42908 -0.0479,1.19194 0.0237,1.78787 0.0715,0.59594 0.42934,0.66732 1.31132,0.69115 0.88198,0.0238 70.91583,2.14538 71.75014,2.16922 0.8343,0.0238 1.04904,-0.11942 1.09671,-0.64384 0.0477,-0.52442 0.0475,-0.92967 0.0237,-1.64479 -0.0238,-0.71512 -0.0239,-0.95329 -1.12037,-1.00096 -2.24071,-0.14302 -71.77437,-2.07401 -72.37031,-2.07401 z m 83.26423,2.66996 c -0.47675,0 -0.4294,0.26228 -0.40556,1.78787 0.0238,1.52559 0.0716,1.59675 1.40652,1.62058 1.33489,0.0238 68.24639,1.85978 69.00919,1.88362 0.76279,0.0238 0.92932,-0.23842 1.16769,-0.6675 0.23838,-0.42907 0.5243,-1.02544 0.69116,-1.81208 0.16442,-0.77514 0.0728,-0.87446 -1.31077,-0.95308 -2.8119,-0.15977 -70.08148,-1.85941 -70.55823,-1.85941 z M 290.2923,138.982 c -1.02501,0 -0.6679,0.64352 -0.23883,1.88306 0.42907,1.23954 0.33374,1.57346 1.6448,1.62113 1.31104,0.0477 54.77839,1.97866 57.01909,2.07401 2.24071,0.0953 2.7415,0.0953 2.7415,-1.71633 0,-1.81163 -0.38184,-1.6687 -2.86091,-1.8594 -2.78898,-0.0953 -57.28065,-2.00247 -58.30565,-2.00247 z"
     id="path2024" />
  <g
     id="g2109"
     transform="matrix(0.17551594,0.00365077,0,0.31894244,166.81905,97.477627)">
    <path
       style="fill:#df3e33"
       d="m 80.458931,63.314209 c 0.32924,-0.9878 23.420579,-1.30336 110.083329,-1.5044 97.07027,-0.22519 109.6667,-0.08161 109.6667,1.25 0,1.33009 -12.75491,1.5044 -110.08333,1.5044 -87.62221,0 -109.998329,-0.25505 -109.666699,-1.25 z m 26.571209,-37.5 c -6.1419,-6.42509 -7.169429,-10.15901 -4.18564,-15.21017 3.2391,-5.4833497 5.51137,-6.0398297 24.66242,-6.0398297 h 17.48938 l -1.00675,3.96627 -1.00674,3.9662597 -10.03061,0.28374 c -8.23053,0.23281 -10.2264,0.59488 -11.12161,2.01757 -0.91036,1.44675 -0.14146,2.6934 4.64368,7.529 3.15408,3.18733 5.73469,6.11961 5.73469,6.51616 0,0.39655 -4.85867,0.721 -10.79705,0.721 h -10.79705 z m 36.22713,3.5 c 0.0266,-0.1375 1.49185,-5.65 3.25618,-12.25 l 3.20788,-11.9999997 14.37621,-0.27826 c 11.55905,-0.22374 14.83326,0.0212 16.70863,1.25 2.90887,1.90596 3.40279,1.91006 3.40279,0.02826 0,-1.25877 2.15679,-1.5 13.41111,-1.5 h 13.4111 l 2.5889,3.07673 c 3.15985,3.7552597 3.15324,3.5176797 0.38023,13.6732697 l -2.25269,8.25 h -8.26932 c -4.54813,0 -8.26446,-0.1125 -8.25851,-0.25 0.006,-0.1375 0.68096,-2.45902 1.5,-5.15893 2.25831,-7.4443 1.98919,-10.42747 -1.00858,-11.17986 -3.53073,-0.88616 -5.13962,-0.003 -5.93702,3.25803 -0.38067,1.55692 -1.37051,5.19326 -2.19963,8.08076 l -1.50751,5.25 h -8.32932 -8.32933 l 1.85313,-7.20435 c 2.11908,-8.23823 1.55738,-9.79565 -3.53287,-9.79565 -3.21432,0 -3.25033,0.0554 -5.51969,8.5 l -2.28426,8.5 h -8.35787 c -4.59683,0 -8.33613,-0.1125 -8.30956,-0.25 z m 72.95421,-1 c 0.002,-1.07557 4.01545,-16.85645 5.59488,-21.9999997 0.48676,-1.58516 2.29971,-1.75 19.24748,-1.75 19.90864,0 21.43189,0.32672 25.08896,5.38127 1.37629,1.9022097 1.48019,1.8440197 2.5886,-1.44976 l 1.15475,-3.43151 22.23493,-0.26933 22.23492,-0.26933 -0.70705,2.26933 c -2.12523,6.8210697 -1.90999,6.6564997 -9.11914,6.9726697 l -6.76414,0.29666 -2.12163,7.5 -2.12164,7.5 -8.15672,0.29044 c -9.35481,0.33311 -9.03968,0.79076 -6.2273,-9.04362 l 1.92941,-6.74682 h -6.42941 -6.42942 v 3.54966 c 0,1.95231 -0.68262,4.8697 -1.51693,6.48307 -2.41073,4.66184 -6.12058,5.96727 -16.95816,5.96727 -9.35737,0 -9.59652,-0.0582 -10.54966,-2.5651 -0.53639,-1.4108 -0.97525,-2.7608 -0.97525,-3 0,-0.23919 2.385,-0.4349 5.3,-0.4349 5.96504,0 7.7,-1.15889 7.7,-5.1433 0,-3.84179 -3.31255,-5.8567 -9.62851,-5.8567 h -5.18349 l -2.24546,8.5 -2.24547,8.5 h -7.84853 c -5.61351,0 -7.84782,-0.35596 -7.84602,-1.25 z"
       id="path4826-7" />
    <path
       style="fill:#16130f"
       d="m 85.007241,49.064209 1.53084,-5.5 h 13.33544 c 12.002109,0 13.535409,-0.19997 15.335439,-2 2.28336,-2.28336 2.37655,-2.8794 1.0115,-6.46976 l -0.9885,-2.59995 10.2385,0.28485 10.2385,0.28486 v 6.66997 c 0,5.72558 -0.35397,7.05351 -2.5,9.37887 -4.57579,4.95817 -7.2287,5.45116 -29.33417,5.45116 H 83.476391 Z m 52.281699,2.25 c 0.5172,-1.7875 1.88508,-6.7375 3.03974,-11 l 2.09938,-7.75 h 7.89045 c 4.33975,0 7.89823,0.3375 7.90773,0.75 0.01,0.4125 -1.21473,5.3625 -2.72053,11 l -2.73782,10.25 h -8.20966 -8.20966 z m 25.92002,2.10816 c 0,-0.62802 1.23116,-5.57802 2.73591,-11 l 2.73591,-9.85816 h 8.1935 8.19351 l -1.95435,6.75 c -1.07489,3.7125 -2.44655,8.6625 -3.04813,11 l -1.09378,4.25 h -7.88128 c -5.24021,0 -7.88129,-0.38264 -7.88129,-1.14184 z m 27.09552,-5.60816 c 1.07489,-3.7125 2.44655,-8.6625 3.04813,-11 l 1.09378,-4.25 h 7.94867 c 7.08942,0 7.89592,0.18918 7.46063,1.75 -0.26842,0.9625 -0.71964,2.65 -1.00272,3.75 -0.28307,1.1 -1.46283,5.2625 -2.62169,9.25 l -2.10701,7.25 h -7.88707 -7.88707 z m 19.10452,5.04437 c 0.25108,-0.9869 1.53678,-5.95687 2.8571,-11.04437 l 2.4006,-9.25 h 7.77113 c 4.27412,0 7.75274,0.3375 7.73027,0.75 -0.0225,0.4125 -1.26719,5.25 -2.76603,10.75 l -2.72517,10 -7.8622,0.29437 c -7.14237,0.26742 -7.82041,0.13009 -7.4057,-1.5 z m 37.39736,-0.04437 c -0.29555,-0.9625 -1.64342,-5.9125 -2.99526,-11 l -2.45788,-9.25 h 6.20536 c 3.95885,0 6.99833,0.55541 8.39571,1.53417 1.96428,1.37584 4.36032,7.6128 6.80583,17.71583 l 0.66566,2.75 h -8.04102 c -6.78674,0 -8.12485,-0.27298 -8.5784,-1.75 z m 23.93874,-1.41456 c 0.38228,-1.7405 1.67174,-6.578 2.86545,-10.75 l 2.1704,-7.58544 8.15471,-0.28948 8.15472,-0.28949 -1.96565,6.78949 c -1.0811,3.73421 -2.45784,8.70198 -3.05942,11.03948 l -1.09378,4.25 h -7.96074 -7.96074 z"
       id="path4822-9" />
    <path
       id="path1820-3"
       d="M 33.254631,62.714904 C 26.799418,61.315173 22.107174,58.715544 17.221648,53.832197 12.968063,49.580519 9.742983,44.205296 8.891655,39.948661 l -0.379667,-1.898336 7.535536,-0.434181 c 4.14454,-0.2388 10.532671,-0.435543 14.195843,-0.437203 l 6.66032,-0.0033 3.479935,-4.65018 3.479935,-4.650179 h 17.948426 17.948418 l -2.74836,3.64018 -2.74836,3.640181 -13.349602,0.17961 -13.349603,0.17961 -2.197635,2.989401 c -1.208701,1.644171 -2.908076,3.811486 -3.776384,4.816257 l -1.578749,1.826857 h -9.84734 -9.847348 l 2.96164,3.018963 c 1.628905,1.660427 4.605811,3.815446 6.615352,4.788928 3.107237,1.505237 4.547943,1.774056 9.632516,1.797294 5.303157,0.02424 6.429232,-0.193653 9.964671,-1.928177 5.08428,-2.494402 9.712099,-7.237041 11.66908,-11.958601 l 1.529478,-3.689845 h 4.208444 4.20842 l -0.39739,1.826856 c -0.21858,1.004772 -1.42056,3.962213 -2.67109,6.572093 -4.251706,8.873399 -12.310381,15.014028 -22.532811,17.169785 -5.571473,1.174941 -6.707732,1.172177 -12.250699,-0.02976 z M 0,35.269763 c 0,-0.317647 1.221191,-2.111288 2.713759,-3.985868 l 2.713752,-3.408336 h 13.176423 13.176418 l 3.382255,-4.65018 c 1.860238,-2.557599 3.453654,-4.696469 3.540932,-4.753041 0.08727,-0.0566 4.64278,-0.280785 10.123348,-0.498234 l 9.964671,-0.395372 -2.657245,-2.603556 C 54.672827,13.543227 51.533956,11.458026 49.159043,10.341405 43.59691,7.7262303 37.000164,7.5685703 30.980295,9.9069193 25.811587,11.914654 19.833262,17.793444 18.155006,22.518704 l -1.194765,3.36392 H 12.715106 8.46997 L 8.889908,23.723613 C 10.235663,16.80469 17.427864,7.5220943 24.314329,3.8161343 c 9.16296,-4.9310637 20.450122,-5.0930896 29.905963,-0.429285 5.261545,2.595086 11.220839,8.6762977 13.821549,14.1043337 1.2485,2.605748 2.44881,5.559815 2.66739,6.564585 l 0.39739,1.826856 H 56.874162 42.64169 l -3.398684,4.584573 C 37.373734,32.98871 35.377877,35.230762 34.807771,35.449532 33.160504,36.081645 0,35.910385 0,35.269763 Z"
       style="fill:#df3e33;stroke-width:0.66431135" />
  </g>
  <path
     style="fill:#6c6c6c;fill-opacity:1;stroke:none;stroke-width:0.26741701px;stroke-linecap:butt;stroke-linejoin:miter;stroke-opacity:1"
     d="m 92.451274,136.74003 c 6.175986,0.20935 8.583576,9.31631 8.792926,16.32972 0.20936,7.01341 -2.512262,15.38763 -7.850826,15.70166 -5.338562,0.31403 -8.269538,-7.64147 -8.583572,-16.01569 -0.314032,-8.37422 2.721621,-15.80634 7.641472,-16.01569 z"
     id="path2123" />
  <path
     style="fill:#6c6c6c;fill-opacity:1;stroke:none;stroke-width:0.28174424px;stroke-linecap:butt;stroke-linejoin:miter;stroke-opacity:1"
     d="m 279.24512,174.45782 c 7.16859,-0.11028 8.38173,-13.3446 8.27144,-18.63832 -0.11028,-5.29373 -3.41886,-17.20461 -8.71259,-17.3149 -5.29372,-0.11028 -8.27144,6.72745 -8.6023,17.20461 -0.33085,10.47716 3.52915,18.30747 9.04345,18.74861 z"
     id="path2137" />
  <g
     id="g13079"
     transform="matrix(0.4000914,-0.00577007,0,0.38370925,237.63791,32.58207)">
    <path
       id="path12756"
       d="m 397.27418,-31.716426 c 4.03173,-0.184047 3.86017,-1.748451 3.7744,-4.87726 -0.0858,-3.128812 -2.31611,-4.785241 -5.23267,-4.693216 -2.91656,0.09202 -3.08813,-1.012262 -3.08813,-2.300595 0,-1.288335 0,-2.208572 3.60281,-2.300597 3.60282,-0.09202 4.2033,0 4.11752,-0.920236 -0.0858,-0.92024 0,-1.380358 -1.71564,-1.472383 -1.71562,-0.09202 -5.14688,-0.09202 -6.77672,0.09202 -1.62985,0.184047 -3.25968,1.748451 -3.34546,4.32512 -0.0858,2.576666 1.20091,5.245356 4.37484,5.245356 3.1739,0 4.1175,0.92024 4.20328,2.576669 0.0858,1.656426 -0.94361,2.20857 -2.40188,2.20857 -1.45828,0 -3.17391,-0.09202 -4.37484,0 -1.20095,0.09202 -1.45829,0.276071 -1.45829,0.920239 0,0.644165 0.0858,1.288333 1.20095,1.380358 1.11515,0.09202 4.63218,-0.09202 7.11983,-0.18405 z"
       style="fill:#d06a1f;fill-opacity:1;stroke:none;stroke-width:0.25545174px;stroke-linecap:butt;stroke-linejoin:miter;stroke-opacity:1" />
    <path
       id="path12758"
       d="m 404.9997,-45.891822 c 0,-1.821979 0.0607,-1.952119 1.63773,-2.017191 1.57708,-0.06507 1.88034,0.325355 2.00166,2.017191 0.12132,1.691839 0.12132,2.79804 0.0607,3.70903 -0.0607,0.910989 0.18199,1.236342 2.06234,1.236342 1.88035,0 2.42625,0 2.48692,-0.650708 0.0607,-0.650706 0.0607,-3.709027 0.0607,-4.620017 0,-0.910989 -0.12132,-1.821979 1.94102,-1.887048 2.06232,-0.06507 1.88036,0.325353 1.941,1.561696 0.0607,1.236342 -0.0607,11.387367 -0.0607,12.883991 0,1.496626 -0.30329,1.821979 -1.63774,1.952119 -1.33444,0.130144 -2.06231,-0.650705 -2.06231,-1.756907 0,-1.106202 -0.12132,-2.212404 -0.18197,-3.448746 -0.0607,-1.236342 -0.30329,-1.626767 -1.94102,-1.691836 -1.63773,-0.06507 -2.42625,0.195213 -2.48692,1.236343 -0.0607,1.04113 0,3.513814 0,4.359735 0,0.845918 -0.18197,1.236342 -1.57706,1.236342 -1.39512,0 -1.94102,-0.325352 -2.06234,-1.756907 -0.1213,-1.431555 -0.24261,-10.020885 -0.18197,-12.363429 z"
       style="fill:#d06a1f;fill-opacity:1;stroke:none;stroke-width:0.25545174px;stroke-linecap:butt;stroke-linejoin:miter;stroke-opacity:1" />
    <path
       id="path12760"
       d="m 421.195,-45.761678 c 0,-2.017192 0.182,-2.277476 2.06234,-2.082263 1.88035,0.195212 2.12299,0.650705 2.18363,2.212403 0.0607,1.561695 -0.12132,8.654399 -0.18196,9.95581 -0.0607,1.301414 0.12132,1.561698 1.81969,1.626767 1.69839,0.06507 1.941,-0.13014 2.00168,-1.301411 0.0607,-1.171273 0.12129,-8.914683 0.0607,-10.476378 -0.0607,-1.561695 0,-2.082263 1.75905,-2.082263 1.75903,0 2.24428,-0.130141 2.30493,1.561698 0.0607,1.691836 -0.0607,11.062012 -0.12129,12.558638 -0.0607,1.496626 -0.18197,2.212404 -1.8197,2.212404 -1.63773,0 -4.97385,0.13014 -6.3083,0.13014 -1.33444,0 -3.57872,-1.496626 -3.82136,-4.554947 -0.24261,-3.058322 -0.0607,-7.548198 0.0607,-9.760598 z"
       style="fill:#d06a1f;fill-opacity:1;stroke:none;stroke-width:0.25545174px;stroke-linecap:butt;stroke-linejoin:miter;stroke-opacity:1" />
    <path
       id="path12762"
       d="m 446.67078,-48.299435 c 1.69838,0.06507 2.24431,0.195212 2.24431,1.431555 0,1.236342 -0.60658,1.106202 -1.94103,1.106202 -1.33444,0 -1.94102,0.390421 -1.94102,1.691835 0,1.301414 -0.0607,9.695529 -0.18197,10.931872 -0.12129,1.236345 -0.66721,1.561698 -2.12296,1.626767 -1.45576,0.06507 -1.81969,-0.976059 -1.81969,-2.082261 0,-1.106201 0.12129,-9.370176 0.18196,-10.411306 0.0607,-1.04113 -0.24264,-2.147332 -2.00166,-2.017191 -1.75906,0.13014 -2.06234,-0.06507 -2.06234,-0.91099 0,-0.845918 0.24263,-1.171271 1.27379,-1.301414 1.03116,-0.13014 5.76239,-0.13014 8.37061,-0.06507 z"
       style="fill:#d06a1f;fill-opacity:1;stroke:none;stroke-width:0.25545174px;stroke-linecap:butt;stroke-linejoin:miter;stroke-opacity:1" />
    <path
       style="fill:#d06a1f;fill-opacity:1;stroke:none;stroke-width:0.25545174px;stroke-linecap:butt;stroke-linejoin:miter;stroke-opacity:1"
       d="m 462.19721,-48.207411 c 1.69837,0.06507 2.24431,0.195212 2.24431,1.431555 0,1.236342 -0.60658,1.106202 -1.94103,1.106202 -1.33444,0 -1.94102,0.390421 -1.94102,1.691835 0,1.301414 -0.0607,9.695529 -0.18197,10.931872 -0.12129,1.236345 -0.66722,1.561698 -2.12296,1.626767 -1.45576,0.06507 -1.8197,-0.976059 -1.8197,-2.082261 0,-1.106201 0.1213,-9.370176 0.18197,-10.411306 0.0607,-1.04113 -0.24264,-2.147332 -2.00166,-2.017191 -1.75907,0.13014 -2.06234,-0.06507 -2.06234,-0.91099 0,-0.845918 0.24263,-1.171271 1.27379,-1.301414 1.03116,-0.13014 5.76239,-0.13014 8.37061,-0.06507 z"
       id="path12764" />
    <path
       id="path12766"
       d="m 468.74979,-45.69661 c 0.24262,-1.691835 0.36393,-2.147331 2.12296,-2.08226 1.75906,0.06507 1.88038,0.520565 1.88038,2.147332 0,1.626767 -0.36397,7.87355 -0.54593,9.630458 -0.18197,1.75691 0.12132,2.147331 1.33445,2.212403 1.21314,0.06507 2.18366,0 3.21481,0 1.03116,0 1.03116,0.325353 1.03116,1.04113 0,0.715777 -0.12132,1.04113 -1.15248,1.106202 -1.03115,0.06507 -6.12632,0.06507 -7.15748,0 -1.03115,-0.06507 -1.21312,-0.520565 -1.21312,-1.756907 0,-1.236343 0.30328,-9.500317 0.48525,-12.298358 z"
       style="fill:#d06a1f;fill-opacity:1;stroke:none;stroke-width:0.25545174px;stroke-linecap:butt;stroke-linejoin:miter;stroke-opacity:1" />
    <path
       id="path12768"
       d="m 481.73952,-45.704044 c 0.10165,-2.068744 0.25288,-2.162564 1.74839,-2.254586 1.49551,-0.09202 7.849,0 8.92411,0.04601 1.0751,0.04601 1.1722,0.230058 1.22035,1.012262 0.0482,0.782203 -0.22658,1.196311 -1.12728,1.196311 -0.90072,0 -4.33479,-0.04601 -5.44712,0 -1.11234,0.04601 -1.36401,0.138033 -1.47893,1.058272 -0.11493,0.920238 -0.13555,1.978512 -0.0987,2.576666 0.0368,0.598157 0.20515,1.242324 0.93714,1.288336 0.73199,0.04601 2.87651,0.04601 3.65139,0.09202 0.77484,0.04601 1.08642,0.23006 1.12891,0.920239 0.0425,0.690179 -0.15499,0.966251 -1.09857,0.966251 -0.9436,0 -2.26471,0.138035 -3.2512,0.138035 -0.98649,0 -1.31261,0.276071 -1.37898,1.288333 -0.0663,1.012261 -0.021,1.748452 0.0215,2.43863 0.0425,0.690179 0.4111,1.104288 1.40042,1.1503 0.98932,0.04601 3.1654,-0.138036 4.79526,-0.138036 1.62985,0 1.71845,0.04601 1.77794,1.012262 0.0595,0.96625 -0.0465,1.334345 -0.89868,1.426369 -0.85214,0.09202 -7.9635,0.230058 -9.46751,0.184046 -1.50401,-0.04601 -1.6665,-0.968603 -1.66303,-1.932498 0.015,-4.161693 0.10105,-8.325513 0.30465,-12.469222 z"
       style="fill:#d06a1f;fill-opacity:1;stroke:none;stroke-width:0.25545174px;stroke-linecap:butt;stroke-linejoin:miter;stroke-opacity:1" />
    <path
       id="path12770"
       d="m 512.56436,-48.142677 c 2.7445,0.07239 3.73148,1.656429 3.64571,4.279109 -0.0858,2.622677 -2.05874,2.898748 -2.18741,3.864999 -0.12867,0.96625 1.67272,1.288333 1.54406,3.772976 -0.12868,2.484644 -2.359,4.417145 -4.37487,4.555181 -2.01584,0.138036 -4.16039,0.138034 -5.23266,0.04601 -1.07225,-0.09202 -1.02935,-0.736189 -0.90068,-1.47238 0.12867,-0.736191 0.34312,-1.196311 1.50116,-1.1503 1.15805,0.04601 2.83078,0.138038 3.90305,0.09203 1.07228,-0.04601 1.45829,-0.598154 1.45829,-2.116548 0,-1.518393 -0.17156,-2.254586 -1.88719,-2.346608 -1.71564,-0.09202 -2.18742,-0.460118 -2.18742,-1.196308 0,-0.736192 0.17155,-1.334347 1.54405,-1.380358 1.3725,-0.04601 2.78788,-0.230061 2.95946,-2.208572 0.17157,-1.978513 -0.55758,-2.34661 -2.18741,-2.43863 -1.62987,-0.09202 -2.57345,-0.04601 -3.08815,-0.04601 -0.51468,0 -0.68622,-0.690179 -0.64334,-1.334344 0.0429,-0.644168 0.21356,-0.943052 0.98649,-0.96625 1.7455,-0.0086 3.53277,0.0034 5.14686,0.046 z"
       style="fill:#d06a1f;fill-opacity:1;stroke:none;stroke-width:0.25545174px;stroke-linecap:butt;stroke-linejoin:miter;stroke-opacity:1" />
    <path
       style="fill:#d06a1f;fill-opacity:1;stroke:none;stroke-width:0.25545174px;stroke-linecap:butt;stroke-linejoin:miter;stroke-opacity:1"
       d="m 471.41866,-25.199347 c 0,-2.017192 0.18199,-2.277476 2.06234,-2.082263 1.88034,0.195212 2.12299,0.650705 2.18363,2.212403 0.0607,1.561695 -0.12132,8.654399 -0.18197,9.95581 -0.0607,1.301414 0.12133,1.561698 1.8197,1.626767 1.69839,0.06507 1.941,-0.13014 2.00168,-1.301411 0.0607,-1.171273 0.12129,-8.914683 0.0607,-10.476378 -0.0607,-1.561695 0,-2.082263 1.75905,-2.082263 1.75903,0 2.24428,-0.130141 2.30493,1.561698 0.0607,1.691836 -0.0607,11.062012 -0.12129,12.558638 -0.0607,1.496626 -0.18197,2.212404 -1.8197,2.212404 -1.63773,0 -4.97385,0.13014 -6.3083,0.13014 -1.33444,0 -3.57872,-1.496626 -3.82136,-4.554947 -0.24262,-3.058322 -0.0607,-7.548198 0.0607,-9.760598 z"
       id="path12782" />
    <path
       style="fill:#d06a1f;fill-opacity:1;stroke:none;stroke-width:0.23692551px;stroke-linecap:butt;stroke-linejoin:miter;stroke-opacity:1"
       d="m 506.08541,-11.923545 c 3.63363,-0.178891 3.47901,-1.671913 3.4017,-4.658166 -0.0773,-2.986256 -2.0874,-4.565466 -4.71598,-4.475298 -2.62857,0.09016 -2.78319,-0.963693 -2.78319,-2.193355 0,-1.229663 0,-2.107992 3.24706,-2.198709 3.24706,-0.09071 3.78825,-0.0033 3.71094,-0.881622 -0.0773,-0.878263 0,-1.317496 -1.54623,-1.403957 -1.54622,-0.08646 -4.63866,-0.08371 -6.10758,0.09325 -1.4689,0.17697 -2.9378,1.671434 -3.01511,4.130828 -0.0773,2.459392 1.08232,5.005519 3.94285,5.00298 2.8605,-0.0025 3.71093,0.875037 3.78823,2.455963 0.0773,1.580923 -0.85042,2.108746 -2.16471,2.109912 -1.31428,0.0012 -2.8605,-0.08529 -3.94284,0.0035 -1.08237,0.08879 -1.3143,0.264666 -1.3143,0.879498 0,0.61483 0.0773,1.229593 1.08236,1.316535 1.00504,0.08693 4.17478,-0.09154 6.4168,-0.181365 z"
       id="path12784" />
    <path
       style="fill:#d06a1f;fill-opacity:1;stroke:none;stroke-width:0.25545174px;stroke-linecap:butt;stroke-linejoin:miter;stroke-opacity:1"
       d="m 518.46705,-25.497298 c 0.24262,-1.691835 0.36393,-2.147331 2.12296,-2.08226 1.75906,0.06507 1.88038,0.520565 1.88038,2.147332 0,1.626767 -0.36397,7.87355 -0.54594,9.630458 -0.18196,1.75691 0.12133,2.147331 1.33445,2.212403 1.21315,0.06507 2.18367,0 3.21482,0 1.03116,0 1.03116,0.325353 1.03116,1.04113 0,0.715777 -0.12132,1.04113 -1.15248,1.106202 -1.03115,0.06507 -6.12632,0.06507 -7.15748,0 -1.03115,-0.06507 -1.21312,-0.520565 -1.21312,-1.756907 0,-1.236343 0.30328,-9.500317 0.48525,-12.298358 z"
       id="path12809" />
    <path
       id="path12811"
       d="m 467.28352,-27.344499 c 1.69838,0.06507 2.24431,0.195212 2.24431,1.431555 0,1.236342 -0.60658,1.106202 -1.94103,1.106202 -1.33444,0 -1.94102,0.390421 -1.94102,1.691835 0,1.301414 -0.0607,9.695529 -0.18197,10.931872 -0.12129,1.236345 -0.66721,1.561698 -2.12296,1.626767 -1.45576,0.06507 -1.8197,-0.976059 -1.8197,-2.082261 0,-1.106201 0.1213,-9.370176 0.18197,-10.411306 0.0607,-1.04113 -0.24264,-2.147332 -2.00166,-2.017191 -1.75906,0.13014 -2.06234,-0.06507 -2.06234,-0.91099 0,-0.845918 0.24263,-1.171271 1.27379,-1.301414 1.03116,-0.13014 5.76239,-0.13014 8.37061,-0.06507 z"
       style="fill:#d06a1f;fill-opacity:1;stroke:none;stroke-width:0.25545174px;stroke-linecap:butt;stroke-linejoin:miter;stroke-opacity:1" />
    <path
       id="path12786"
       d="m 346.48375,-25.36678 c 0.0869,1.840478 0.13799,8.190118 -0.0451,10.306666 -0.18315,2.116547 -1.5672,4.233098 -5.35005,4.417144 -3.78284,0.184047 -4.69371,-2.392619 -4.97757,-3.680952 -0.28387,-1.288335 0.0677,-1.472382 1.27711,-1.656429 1.20942,-0.184049 1.8618,0.552143 1.8237,1.380358 -0.0381,0.828214 0.87587,1.472381 1.81525,1.564404 0.93935,0.09202 1.47944,-0.460118 1.5514,-2.024525 0.072,-1.564405 0.2401,-7.085831 0.2136,-8.374166 -0.0266,-1.288333 -0.86742,-1.656428 -2.41571,-1.564407 -1.5483,0.09202 -2.75347,0.18405 -3.69708,0.18405 -0.9436,0 -0.92667,-0.368097 -0.89281,-1.104287 0.0339,-0.736189 0.14052,-1.224507 1.34599,-1.288333 2.44344,-0.129371 4.87497,-0.263094 6.88012,-0.157091 2.39239,0.126474 2.3961,0.406722 2.47117,1.997568 z"
       style="fill:#d06a1f;fill-opacity:1;stroke:none;stroke-width:0.25545174px;stroke-linecap:butt;stroke-linejoin:miter;stroke-opacity:1" />
    <path
       id="path12788"
       d="m 354.40797,-27.476983 c -3.94467,0.06507 -5.93532,1.691925 -6.24235,5.791377 -0.13612,2.472685 4.8e-4,3.969215 0.17166,6.31176 0.17116,2.342544 1.98402,4.55532 5.86407,4.620389 3.88004,0.06507 6.17368,-1.561957 6.47983,-3.64422 0.30612,-2.08226 0.47109,-3.513995 0.16954,-7.548377 -0.30153,-4.03438 -2.4981,-5.595998 -6.44275,-5.530929 z m 0.23402,2.277379 c 2.54955,-0.06507 1.95398,1.561754 2.08236,3.318661 0.12837,1.756908 0.0999,4.685035 0.0483,6.376871 -0.0516,1.691839 -0.73713,2.277941 -2.25552,2.34301 -1.51841,0.06507 -2.10077,-0.715809 -2.28979,-2.472716 -0.18905,-1.756908 -0.21922,-4.750105 -0.10895,-6.376871 0.0675,-2.212404 -0.026,-3.12388 2.52364,-3.188955 z"
       style="fill:#d06a1f;fill-opacity:1;stroke:none;stroke-width:0.25545171px;stroke-linecap:butt;stroke-linejoin:miter;stroke-opacity:1" />
    <path
       style="fill:#d06a1f;fill-opacity:1;stroke:none;stroke-width:0.25545174px;stroke-linecap:butt;stroke-linejoin:miter;stroke-opacity:1"
       d="m 368.97755,-27.607125 c -3.94467,0.06507 -5.93531,1.691926 -6.24235,5.791377 -0.13612,2.472685 4.7e-4,3.969216 0.17167,6.31176 0.17116,2.342544 1.98402,4.555321 5.86406,4.62039 3.88004,0.06507 6.17368,-1.561957 6.47983,-3.64422 0.30613,-2.08226 0.47109,-3.513995 0.16954,-7.548377 -0.30153,-4.03438 -2.4981,-5.595999 -6.44275,-5.53093 z m 0.23402,2.27738 c 2.54955,-0.06507 1.95398,1.561754 2.08236,3.318661 0.12838,1.756907 0.0999,4.685035 0.0483,6.376871 -0.0516,1.691838 -0.73713,2.277941 -2.25552,2.34301 -1.51841,0.06507 -2.10076,-0.715809 -2.28979,-2.472717 -0.18905,-1.756907 -0.21921,-4.750104 -0.10895,-6.376871 0.0675,-2.212403 -0.026,-3.12388 2.52364,-3.188954 z"
       id="path12793" />
    <path
       style="fill:#d06a1f;fill-opacity:1;stroke:none;stroke-width:0.25263509px;stroke-linecap:butt;stroke-linejoin:miter;stroke-opacity:1"
       d="m 402.68,-27.225302 c -3.85623,0.06507 -5.75468,1.691925 -5.93268,5.791377 -0.0594,2.472685 0.11887,3.969215 0.35619,6.31176 0.23731,2.342544 2.07641,4.55532 5.87331,4.620389 3.79689,0.06507 5.99168,-1.561957 6.229,-3.64422 0.2373,-2.08226 0.35593,-3.513995 -0.0594,-7.548377 -0.41527,-4.03438 -2.61026,-5.595998 -6.46645,-5.530929 z m 0.29682,2.27738 c 2.4917,-0.06507 1.95773,1.561753 2.1357,3.31866 0.17798,1.756908 0.23744,4.685036 0.23744,6.376871 0,1.691839 -0.653,2.277941 -2.13615,2.34301 -1.48316,0.06507 -2.07605,-0.715809 -2.31335,-2.472716 -0.23732,-1.756908 -0.35611,-4.750105 -0.2968,-6.376871 0,-2.212404 -0.11859,-3.12388 2.37316,-3.188954 z"
       id="path12795" />
    <path
       id="path12797"
       d="m 416.92617,-27.355444 c -3.85622,0.06507 -5.75467,1.691926 -5.93268,5.791377 -0.0594,2.472685 0.11888,3.969216 0.3562,6.31176 0.2373,2.342544 2.07641,4.555321 5.87331,4.62039 3.79688,0.06507 5.99168,-1.561957 6.22899,-3.64422 0.23731,-2.08226 0.35593,-3.513995 -0.0594,-7.548377 -0.41527,-4.03438 -2.61026,-5.595999 -6.46646,-5.53093 z m 0.29683,2.27738 c 2.49169,-0.06507 1.95772,1.561754 2.1357,3.318661 0.17797,1.756907 0.23743,4.685035 0.23743,6.376871 0,1.691838 -0.653,2.277941 -2.13615,2.34301 -1.48316,0.06507 -2.07605,-0.715809 -2.31334,-2.472717 -0.23732,-1.756907 -0.35612,-4.750104 -0.2968,-6.376871 0,-2.212403 -0.11859,-3.12388 2.37316,-3.188954 z"
       style="fill:#d06a1f;fill-opacity:1;stroke:none;stroke-width:0.25263509px;stroke-linecap:butt;stroke-linejoin:miter;stroke-opacity:1" />
    <path
       id="path12799"
       d="m 382.92071,-25.134278 c 0.0607,-1.756907 -0.24264,-2.082263 1.88034,-2.147332 2.12299,-0.06507 2.24431,0.390425 2.24431,1.626767 0,1.236342 0.0607,1.626767 0,2.537756 -0.0607,0.91099 1.03115,0.976059 1.88035,-0.06507 0.84919,-1.04113 1.63773,-1.95212 2.42624,-2.798038 0.78855,-0.84592 1.03119,-1.236345 2.12299,-1.366485 1.09184,-0.130141 2.42628,0.585636 1.33445,2.082263 -1.09181,1.496623 -2.30495,3.12339 -3.45744,4.424804 -1.15247,1.301414 -1.03115,2.407616 0.0607,3.578886 1.09181,1.171274 2.97218,3.123393 3.88202,4.229595 0.90986,1.106202 -0.30329,1.887048 -1.75906,1.887048 -1.45574,0 -1.45574,-0.260281 -2.18364,-1.366483 -0.72787,-1.106202 -1.51641,-1.887051 -2.48692,-2.732969 -0.97049,-0.845917 -1.27377,-0.520565 -1.33444,1.496627 -0.0607,2.017188 -0.30326,2.407613 -2.06231,2.537756 -1.75904,0.130141 -1.94102,-0.325356 -2.06232,-1.691838 -0.12133,-1.366483 -0.48525,-10.085954 -0.48525,-12.233286 z"
       style="fill:#d06a1f;fill-opacity:1;stroke:none;stroke-width:0.25545174px;stroke-linecap:butt;stroke-linejoin:miter;stroke-opacity:1" />
    <path
       id="path12801"
       d="m 425.10288,-24.821179 c 0.12261,-2.667034 0.47917,-2.294055 1.68011,-2.294055 1.20095,0 1.14281,0.289947 3.46068,3.869624 1.59783,2.46763 2.62978,2.203949 2.62978,-0.0046 0,-2.208572 0.17159,-3.680954 1.71565,-3.772977 1.54406,-0.09202 1.97297,0.184046 2.23032,2.852738 0.25735,2.668689 0.0858,7.91405 0.0858,10.122622 0,2.20857 -0.85783,2.668689 -2.31611,2.576666 -1.45828,-0.09202 -1.80142,-0.644168 -1.80142,-1.932501 0,-1.288333 -0.60046,-2.392616 -2.14452,-4.417142 -1.54406,-2.024522 -1.97299,-0.184049 -1.97299,2.576666 0,2.760715 -0.34312,3.772977 -1.62983,3.957024 -1.28672,0.184049 -1.91774,-0.644472 -1.88719,-2.392619 0.0612,-3.504829 -0.21028,-7.660608 -0.0502,-11.141423 z"
       style="fill:#d06a1f;fill-opacity:1;stroke:none;stroke-width:0.25545174px;stroke-linecap:butt;stroke-linejoin:miter;stroke-opacity:1" />
    <path
       id="path12803"
       d="m 444.36816,-19.385234 c -0.0429,-1.196308 0.12867,-1.196308 2.78789,-1.058272 2.65923,0.138035 2.8737,0.276071 2.8737,1.058272 0,0.782204 0.21446,1.242322 -2.61633,1.196311 -2.8308,-0.04601 -3.00237,-0.230061 -3.04526,-1.196311 z"
       style="fill:#d06a1f;fill-opacity:1;stroke:none;stroke-width:0.25545174px;stroke-linecap:butt;stroke-linejoin:miter;stroke-opacity:1" />
    <path
       style="fill:#d06a1f;fill-opacity:1;stroke:none;stroke-width:0.25545174px;stroke-linecap:butt;stroke-linejoin:miter;stroke-opacity:1"
       d="m 553.32205,-25.394561 c 0.15636,-1.756907 -0.12925,-2.082263 1.99729,-2.147332 2.12653,-0.06507 2.22304,0.390425 2.15571,1.626767 -0.0673,1.236342 -0.0279,1.626767 -0.13819,2.537756 -0.11029,0.91099 0.978,0.976059 1.88389,-0.06507 0.90588,-1.04113 1.74403,-1.95212 2.57862,-2.798038 0.83461,-0.84592 1.09851,-1.236345 2.1974,-1.366485 1.09892,-0.130141 2.39439,0.585636 1.22105,2.082263 -1.17331,1.496623 -2.47504,3.12339 -3.69839,4.424804 -1.22334,1.301414 -1.16225,2.407616 -0.13421,3.578886 1.02803,1.171274 2.8021,3.123393 3.6517,4.229595 0.84962,1.106202 -0.40605,1.887048 -1.86182,1.887048 -1.45573,0 -1.44156,-0.260281 -2.10923,-1.366483 -0.66762,-1.106202 -1.41364,-1.887051 -2.33809,-2.732969 -0.92442,-0.845917 -1.24542,-0.520565 -1.41594,1.496627 -0.17053,2.017188 -0.43437,2.407613 -2.20051,2.537756 -1.76611,0.130141 -1.9233,-0.325356 -1.97019,-1.691838 -0.0469,-1.366483 0.064,-10.085954 0.18092,-12.233286 z"
       id="path12805" />
    <path
       style="fill:#d06a1f;fill-opacity:1;stroke:none;stroke-width:0.25545174px;stroke-linecap:butt;stroke-linejoin:miter;stroke-opacity:1"
       d="m 539.3799,-25.081462 c 0.12262,-2.667034 0.47918,-2.294055 1.68012,-2.294055 1.20095,0 1.14281,0.289947 3.46068,3.869624 1.59783,2.46763 2.62978,2.203949 2.62978,-0.0046 0,-2.208572 0.17158,-3.680954 1.71565,-3.772977 1.54405,-0.09202 1.97296,0.184046 2.23031,2.852738 0.25736,2.668689 0.0858,7.91405 0.0858,10.122622 0,2.20857 -0.85782,2.668689 -2.3161,2.576666 -1.45828,-0.09202 -1.80143,-0.644168 -1.80143,-1.932501 0,-1.288333 -0.60045,-2.392616 -2.14452,-4.417142 -1.54405,-2.024522 -1.97298,-0.184049 -1.97298,2.576666 0,2.760715 -0.34312,3.772977 -1.62983,3.957024 -1.28673,0.184049 -1.91775,-0.644472 -1.88719,-2.392619 0.0612,-3.504829 -0.21028,-7.660608 -0.0503,-11.141423 z"
       id="path12807" />
    <path
       id="path12813"
       d="m 490.99078,-27.442876 c -4.19262,-0.08024 -5.16981,1.363943 -5.35304,5.295799 -0.18629,2.327019 -0.26727,6.820633 -0.26805,8.345229 -8.2e-4,1.524598 0.48671,2.327132 1.8292,2.246891 1.34249,-0.08024 1.85084,-0.400923 1.86729,-1.604555 0.0164,-1.203629 -0.16066,-1.765495 -0.0888,-3.370336 0.0717,-1.604841 0.80776,-1.845651 2.76033,-1.685168 1.95253,0.160485 1.11662,2.969186 1.1906,4.493783 0.074,1.524598 0.0303,2.166276 1.97508,2.166276 1.94477,0 2.31109,-0.16034 2.31966,-1.524455 0.009,-1.364115 0.15688,-6.018183 0.0759,-9.227862 -0.0809,-3.209679 -2.11548,-5.055362 -6.30812,-5.135602 z m -0.10213,2.392619 c 0.19363,-0.0016 0.41493,0.0044 0.66787,0.01447 2.02344,0.08024 1.92042,1.043207 1.84478,2.567802 -0.0756,1.524598 -0.41455,2.246892 -2.06013,2.246892 -1.6456,0 -1.97173,-0.561811 -1.90387,-2.246892 0.0907,-2.176563 0.0959,-2.5713 1.45135,-2.58227 z"
       style="fill:#d06a1f;fill-opacity:1;stroke:none;stroke-width:0.25545171px;stroke-linecap:butt;stroke-linejoin:miter;stroke-opacity:1" />
    <path
       id="path12818"
       d="m 535.76413,-27.613018 c 1.94898,0.177156 2.08947,0.410943 2.07583,1.373848 -0.0136,0.962901 -0.37747,1.123385 -1.13053,1.043146 -0.7531,-0.08024 -0.88231,0.240728 -0.95038,1.524598 -0.068,1.283872 -0.39131,5.616939 -0.42881,7.382261 -0.0375,1.765323 -0.097,2.006047 0.81077,2.166533 0.90777,0.160483 1.15764,0.561692 1.21369,1.444355 0.056,0.882661 -0.22277,1.203629 -2.31715,1.203629 -2.09435,0 -3.05655,0.160482 -4.33321,0.08024 -1.27668,-0.08024 -1.32254,-0.80242 -1.36839,-1.524598 -0.0459,-0.722177 0.14286,-1.283871 0.97076,-1.203629 0.82786,0.08024 1.23589,-0.561697 1.33453,-1.364115 0.0986,-0.802421 0.22482,-7.06129 0.23337,-8.104439 0.008,-1.043141 -0.4011,-1.604838 -1.22391,-1.604838 -0.82277,0 -0.92813,-0.481449 -0.91449,-1.444355 0.0136,-0.962901 0.52585,-1.146225 1.42464,-1.123389 1.69061,0.04295 3.09751,0.01389 4.60328,0.150753 z"
       style="fill:#d06a1f;fill-opacity:1;stroke:none;stroke-width:0.25545174px;stroke-linecap:butt;stroke-linejoin:miter;stroke-opacity:1" />
  </g>
</svg>
