<?xml version="1.0" encoding="UTF-8" standalone="no"?>
<!-- Created with Inkscape (http://www.inkscape.org/) -->

<svg
   xmlns:dc="http://purl.org/dc/elements/1.1/"
   xmlns:cc="http://creativecommons.org/ns#"
   xmlns:rdf="http://www.w3.org/1999/02/22-rdf-syntax-ns#"
   xmlns:svg="http://www.w3.org/2000/svg"
   xmlns="http://www.w3.org/2000/svg"
   xmlns:sodipodi="http://sodipodi.sourceforge.net/DTD/sodipodi-0.dtd"
   xmlns:inkscape="http://www.inkscape.org/namespaces/inkscape"
   id="svg2"
   sodipodi:version="0.32"
   inkscape:version="0.92.1 unknown"
   width="605.15851"
   height="600"
   version="1.0"
   sodipodi:docname="non-wheelchair.svg">
  <metadata
     id="metadata7">
    <rdf:RDF>
      <cc:Work
         rdf:about="">
        <dc:format>image/svg+xml</dc:format>
        <dc:type
           rdf:resource="http://purl.org/dc/dcmitype/StillImage" />
        <dc:title></dc:title>
      </cc:Work>
    </rdf:RDF>
  </metadata>
  <defs
     id="defs5">
    <filter
       id="filter3031"
       inkscape:label="Raised border"
       inkscape:menu="Bevels"
       inkscape:menu-tooltip="Strongly raised border around a flat surface"
       height="1.5"
       width="1.5"
       y="-0.25"
       x="-0.25"
       style="color-interpolation-filters:sRGB">
      <feGaussianBlur
         id="feGaussianBlur3033"
         stdDeviation="4"
         result="result1" />
      <feComposite
         id="feComposite3035"
         in2="result1"
         in="result1"
         result="result4"
         operator="in" />
      <feGaussianBlur
         id="feGaussianBlur3037"
         stdDeviation="2"
         result="result6"
         in="result4" />
      <feComposite
         id="feComposite3039"
         in2="result4"
         operator="xor"
         in="result6"
         result="result8" />
      <feComposite
         id="feComposite3041"
         in2="result8"
         operator="atop"
         result="fbSourceGraphic"
         in="result4" />
      <feSpecularLighting
         id="feSpecularLighting3043"
         specularExponent="10"
         specularConstant="1.29999995"
         surfaceScale="3"
         lighting-color="#ffffff"
         result="result1"
         in="fbSourceGraphic">
        <feDistantLight
           id="feDistantLight3045"
           azimuth="235"
           elevation="55" />
      </feSpecularLighting>
      <feComposite
         id="feComposite3047"
         in2="fbSourceGraphic"
         operator="atop"
         result="result2"
         in="result1" />
      <feComposite
         id="feComposite3049"
         in2="result2"
         k3="1"
         k2="1"
         operator="arithmetic"
         result="result4"
         in="fbSourceGraphic"
         k1="0"
         k4="0" />
      <feComposite
         id="feComposite3051"
         in2="SourceGraphic"
         operator="over"
         in="result4"
         result="result9" />
      <feBlend
         id="feBlend3053"
         in2="result2"
         mode="multiply" />
    </filter>
    <filter
       id="filter3031-0"
       inkscape:label="Raised border"
       inkscape:menu="Bevels"
       inkscape:menu-tooltip="Strongly raised border around a flat surface"
       height="1.5"
       width="1.5"
       y="-0.25"
       x="-0.25"
       style="color-interpolation-filters:sRGB">
      <feGaussianBlur
         id="feGaussianBlur3033-9"
         stdDeviation="4"
         result="result1" />
      <feComposite
         id="feComposite3035-3"
         in2="result1"
         in="result1"
         result="result4"
         operator="in" />
      <feGaussianBlur
         id="feGaussianBlur3037-6"
         stdDeviation="2"
         result="result6"
         in="result4" />
      <feComposite
         id="feComposite3039-0"
         in2="result4"
         operator="xor"
         in="result6"
         result="result8" />
      <feComposite
         id="feComposite3041-6"
         in2="result8"
         operator="atop"
         result="fbSourceGraphic"
         in="result4" />
      <feSpecularLighting
         id="feSpecularLighting3043-2"
         specularExponent="10"
         specularConstant="1.29999995"
         surfaceScale="3"
         lighting-color="#ffffff"
         result="result1"
         in="fbSourceGraphic">
        <feDistantLight
           id="feDistantLight3045-6"
           azimuth="235"
           elevation="55" />
      </feSpecularLighting>
      <feComposite
         id="feComposite3047-1"
         in2="fbSourceGraphic"
         operator="atop"
         result="result2"
         in="result1" />
      <feComposite
         id="feComposite3049-8"
         in2="result2"
         k3="1"
         k2="1"
         operator="arithmetic"
         result="result4"
         in="fbSourceGraphic"
         k1="0"
         k4="0" />
      <feComposite
         id="feComposite3051-7"
         in2="SourceGraphic"
         operator="over"
         in="result4"
         result="result9" />
      <feBlend
         id="feBlend3053-9"
         in2="result2"
         mode="multiply" />
    </filter>
  </defs>
  <sodipodi:namedview
     inkscape:window-height="551"
     inkscape:window-width="1024"
     inkscape:pageshadow="2"
     inkscape:pageopacity="0.0"
     guidetolerance="10.0"
     gridtolerance="10.0"
     objecttolerance="10.0"
     borderopacity="1.0"
     bordercolor="#666666"
     pagecolor="#ffffff"
     id="base"
     showguides="true"
     inkscape:guide-bbox="true"
     inkscape:zoom="0.3723174"
     inkscape:cx="154.2919"
     inkscape:cy="312.32568"
     inkscape:window-x="0"
     inkscape:window-y="0"
     inkscape:current-layer="g5333"
     showgrid="false"
     inkscape:window-maximized="1"
     fit-margin-top="0"
     fit-margin-left="0"
     fit-margin-right="0"
     fit-margin-bottom="0" />
  <g
     id="g4607"
     transform="matrix(0.75527882,0,0,0.73049248,33.288028,14.986753)">
    <path
       id="path2768"
       d="m 140.66667,348.23333 c -9.42466,-0.12422 -18.42485,3.91244 -24.6,11.03334 -10.32836,11.5795 -19.306692,24.38969 -26.700003,38.2 -14.786631,27.6206 -23.200001,59.28442 -23.2,92.66666 -2e-6,108.24706 88.486283,196.73336 196.733333,196.73334 54.12351,-2e-5 103.53266,-22.06602 139.1,-57.63334 17.78364,-17.78366 32.16385,-38.97569 42.13333,-62.53333 4.75647,-10.58291 3.41245,-22.91134 -3.51263,-32.22076 -6.92508,-9.30942 -18.34643,-14.14152 -29.85008,-12.62887 -11.50365,1.51264 -21.28757,9.13309 -25.57062,19.9163 -6.70971,15.85486 -16.43364,30.16696 -28.46667,42.2 -24.06602,24.06602 -57.02362,38.89999 -93.83333,38.9 -73.61938,2e-5 -132.73333,-59.11393 -132.73333,-132.73334 0,-22.69767 5.63154,-43.84613 15.6,-62.46666 4.98422,-9.31028 11.07816,-17.96494 18.06666,-25.8 8.52893,-9.29834 10.79845,-22.74011 5.79517,-34.32324 -5.00327,-11.58312 -16.3454,-19.1454 -28.96183,-19.3101 z"
       style="opacity:1;fill:#000000;fill-opacity:1;fill-rule:evenodd;stroke:none;stroke-width:64;stroke-linecap:round;stroke-linejoin:round;stroke-miterlimit:4;stroke-dasharray:none;stroke-opacity:1"
       inkscape:connector-curvature="0" />
    <path
       sodipodi:nodetypes="ccccccccccscccccccsscccsc"
       id="path1879"
       d="m 207.93402,93.465072 c -36.37328,0 -65.89999,29.526718 -65.9,65.899998 -0.015,3.36052 0.28737,6.71057 0.76666,10.03333 0.004,0.0218 -0.004,0.0449 0,0.0667 l 39.73334,244.96666 c 2.50694,15.41873 15.77906,26.77471 31.4,26.86667 l 208.26666,1.3 71.96667,167.03333 c 6.68199,15.47307 24.21933,23.11194 40.1,17.46667 l 84.53333,-30.06667 c 16.65138,-5.92785 25.36119,-24.2486 19.43334,-40.9 -5.92785,-16.65139 -24.24862,-25.32786 -40.9,-19.4 l -56.26667,20.03334 -68.33333,-158.7 c -5.03116,-11.67065 -16.49131,-19.25841 -29.2,-19.33334 l -202.13334,-1.26666 -3.13333,-19.23334 h 142.96667 c 11.54033,0.16321 22.28219,-5.89874 28.1,-15.86666 5.8178,-9.96792 5.8178,-22.29876 0,-32.26667 -5.81781,-9.96793 -16.55965,-16.02988 -28.1,-15.86667 H 227.90068 l -11.3,-69.56666 c 32.27998,-4.24933 57.20001,-31.86594 57.2,-65.3 0,-36.37328 -29.49337,-65.899999 -65.86666,-65.899998 z"
       style="fill:#000000;fill-opacity:1;fill-rule:evenodd;stroke:none;stroke-width:10.66666698;stroke-linecap:round;stroke-linejoin:round;stroke-miterlimit:4;stroke-opacity:1"
       inkscape:connector-curvature="0" />
  </g>
  <g
     id="g5333"
     transform="matrix(2.4332345,0,0,2.3520252,-1059.3584,-232.59546)">
    <text
       transform="matrix(1.0490276,0,0,1.0846023,363.0481,-3.0879801)"
       id="text2985"
       y="310.00668"
       x="68.942268"
       style="font-style:normal;font-weight:normal;line-height:0%;font-family:'Bitstream Vera Sans';letter-spacing:0px;word-spacing:0px;fill:#ffffff;fill-opacity:1;stroke:#5fbcd3;stroke-width:1;filter:url(#filter3031-0)"
       xml:space="preserve"><tspan
         style="font-size:278.31326294px;line-height:1.25;stroke-width:1"
         y="310.00668"
         x="68.942268"
         id="tspan2987"
         sodipodi:role="line"> </tspan></text>
    <ellipse
       ry="111.90903"
       rx="107.65205"
       cy="226.44122"
       cx="560.78314"
       id="path3074"
       style="fill:none;stroke:#fb5b5b;stroke-width:31.28125191;stroke-miterlimit:4;stroke-dasharray:none;stroke-opacity:1" />
    <rect
       transform="rotate(49.214064)"
       y="-359.08002"
       x="538.02264"
       height="173.71429"
       width="12.190476"
       id="rect3844"
       style="fill:#e07676;fill-opacity:1;stroke:#fb5b5b;stroke-width:31.46666718;stroke-miterlimit:4;stroke-dasharray:none;stroke-opacity:1" />
  </g>
</svg>
