<?xml version="1.0" encoding="UTF-8" standalone="no"?>
<svg
xmlns:dc="http://purl.org/dc/elements/1.1/"
xmlns:cc="http://creativecommons.org/ns#"
xmlns:rdf="http://www.w3.org/1999/02/22-rdf-syntax-ns#"
xmlns:svg="http://www.w3.org/2000/svg"
xmlns="http://www.w3.org/2000/svg"
viewBox="0 0 599.89136 599.89136"
height="599.89136"
width="599.89136"
id="svg932"
version="1.1">
<metadata
id="metadata938">
<rdf:RDF>
<cc:Work
rdf:about="">
<dc:format>image/svg+xml</dc:format>
<dc:type
rdf:resource="http://purl.org/dc/dcmitype/StillImage" />
<dc:title></dc:title>
</cc:Work>
</rdf:RDF>
</metadata>
<defs
id="defs936">
<filter
style="color-interpolation-filters:sRGB"
x="-0.25"
y="-0.25"
width="1.5"
height="1.5"
id="filter3031">
<feGaussianBlur
result="result1"
stdDeviation="4"
id="feGaussianBlur3033" />
<feComposite
operator="in"
result="result4"
in="result1"
in2="result1"
id="feComposite3035" />
<feGaussianBlur
in="result4"
result="result6"
stdDeviation="2"
id="feGaussianBlur3037" />
<feComposite
result="result8"
in="result6"
operator="xor"
in2="result4"
id="feComposite3039" />
<feComposite
in="result4"
result="fbSourceGraphic"
operator="atop"
in2="result8"
id="feComposite3041" />
<feSpecularLighting
in="fbSourceGraphic"
result="result1"
lighting-color="#ffffff"
surfaceScale="3"
specularConstant="1.29999995"
specularExponent="10"
id="feSpecularLighting3043">
<feDistantLight
elevation="55"
azimuth="235"
id="feDistantLight3045" />
</feSpecularLighting>
<feComposite
in="result1"
result="result2"
operator="atop"
in2="fbSourceGraphic"
id="feComposite3047" />
<feComposite
k4="0"
k1="0"
in="fbSourceGraphic"
result="result4"
operator="arithmetic"
k2="1"
k3="1"
in2="result2"
id="feComposite3049" />
<feComposite
result="result9"
in="result4"
operator="over"
in2="SourceGraphic"
id="feComposite3051" />
<feBlend
mode="multiply"
in2="result2"
id="feBlend3053" />
</filter>
<filter
style="color-interpolation-filters:sRGB"
x="-0.25"
y="-0.25"
width="1.5"
height="1.5"
id="filter3031-0">
<feGaussianBlur
result="result1"
stdDeviation="4"
id="feGaussianBlur3033-9" />
<feComposite
operator="in"
result="result4"
in="result1"
in2="result1"
id="feComposite3035-3" />
<feGaussianBlur
in="result4"
result="result6"
stdDeviation="2"
id="feGaussianBlur3037-6" />
<feComposite
result="result8"
in="result6"
operator="xor"
in2="result4"
id="feComposite3039-0" />
<feComposite
in="result4"
result="fbSourceGraphic"
operator="atop"
in2="result8"
id="feComposite3041-6" />
<feSpecularLighting
in="fbSourceGraphic"
result="result1"
lighting-color="#ffffff"
surfaceScale="3"
specularConstant="1.29999995"
specularExponent="10"
id="feSpecularLighting3043-2">
<feDistantLight
elevation="55"
azimuth="235"
id="feDistantLight3045-6" />
</feSpecularLighting>
<feComposite
in="result1"
result="result2"
operator="atop"
in2="fbSourceGraphic"
id="feComposite3047-1" />
<feComposite
k4="0"
k1="0"
in="fbSourceGraphic"
result="result4"
operator="arithmetic"
k2="1"
k3="1"
in2="result2"
id="feComposite3049-8" />
<feComposite
result="result9"
in="result4"
operator="over"
in2="SourceGraphic"
id="feComposite3051-7" />
<feBlend
mode="multiply"
in2="result2"
id="feBlend3053-9" />
</filter>
<filter
style="color-interpolation-filters:sRGB"
x="-0.25"
y="-0.25"
width="1.5"
height="1.5"
id="filter3031-7">
<feGaussianBlur
result="result1"
stdDeviation="4"
id="feGaussianBlur3033-93" />
<feComposite
operator="in"
result="result4"
in="result1"
in2="result1"
id="feComposite3035-8" />
<feGaussianBlur
in="result4"
result="result6"
stdDeviation="2"
id="feGaussianBlur3037-0" />
<feComposite
result="result8"
in="result6"
operator="xor"
in2="result4"
id="feComposite3039-2" />
<feComposite
in="result4"
result="fbSourceGraphic"
operator="atop"
in2="result8"
id="feComposite3041-4" />
<feSpecularLighting
in="fbSourceGraphic"
result="result1"
lighting-color="#ffffff"
surfaceScale="3"
specularConstant="1.29999995"
specularExponent="10"
id="feSpecularLighting3043-8">
<feDistantLight
elevation="55"
azimuth="235"
id="feDistantLight3045-3" />
</feSpecularLighting>
<feComposite
in="result1"
result="result2"
operator="atop"
in2="fbSourceGraphic"
id="feComposite3047-9" />
<feComposite
k4="0"
k1="0"
in="fbSourceGraphic"
result="result4"
operator="arithmetic"
k2="1"
k3="1"
in2="result2"
id="feComposite3049-0" />
<feComposite
result="result9"
in="result4"
operator="over"
in2="SourceGraphic"
id="feComposite3051-5" />
<feBlend
mode="multiply"
in2="result2"
id="feBlend3053-2" />
</filter>
<filter
style="color-interpolation-filters:sRGB"
x="-0.25"
y="-0.25"
width="1.5"
height="1.5"
id="filter3031-0-2">
<feGaussianBlur
result="result1"
stdDeviation="4"
id="feGaussianBlur3033-9-7" />
<feComposite
operator="in"
result="result4"
in="result1"
in2="result1"
id="feComposite3035-3-3" />
<feGaussianBlur
in="result4"
result="result6"
stdDeviation="2"
id="feGaussianBlur3037-6-7" />
<feComposite
result="result8"
in="result6"
operator="xor"
in2="result4"
id="feComposite3039-0-9" />
<feComposite
in="result4"
result="fbSourceGraphic"
operator="atop"
in2="result8"
id="feComposite3041-6-0" />
<feSpecularLighting
in="fbSourceGraphic"
result="result1"
lighting-color="#ffffff"
surfaceScale="3"
specularConstant="1.29999995"
specularExponent="10"
id="feSpecularLighting3043-2-2">
<feDistantLight
elevation="55"
azimuth="235"
id="feDistantLight3045-6-3" />
</feSpecularLighting>
<feComposite
in="result1"
result="result2"
operator="atop"
in2="fbSourceGraphic"
id="feComposite3047-1-9" />
<feComposite
k4="0"
k1="0"
in="fbSourceGraphic"
result="result4"
operator="arithmetic"
k2="1"
k3="1"
in2="result2"
id="feComposite3049-8-9" />
<feComposite
result="result9"
in="result4"
operator="over"
in2="SourceGraphic"
id="feComposite3051-7-7" />
<feBlend
mode="multiply"
in2="result2"
id="feBlend3053-9-0" />
</filter>
</defs>
<g
transform="translate(164.73678,72.899812)"
id="g2047">
<path
style="fill:#a7effe;fill-opacity:1;stroke:none;stroke-width:1px;stroke-linecap:butt;stroke-linejoin:miter;stroke-opacity:1"
d="m 135.20864,41.664063 -98.419918,0.8125 3.97656,258.976567 94.443358,-6.26758 94.44336,6.26758 3.97657,-258.976567 z"
id="path1583" />
<path
style="fill:#258099;fill-opacity:1;stroke:none;stroke-width:1px;stroke-linecap:butt;stroke-linejoin:miter;stroke-opacity:1"
d="M 135.20864,0 C 118.66484,0.1892412 97.513952,0.9543977 71.085602,2.2128906 -1.9845682,5.6924228 0.00552179,31.541758 0.00552179,51.921875 c 0,20.380117 0.99411,102.894005 2.98242001,148.625005 1.9883,45.73099 8.9462702,195.35042 10.4375002,209.76562 1.49123,14.4152 -2.98167,33.80172 17.39844,37.28125 19.86474,3.39154 66.15101,6.77148 104.384758,6.48047 38.23375,0.29101 84.52003,-3.08893 104.38477,-6.48047 20.38011,-3.47953 15.90721,-22.86605 17.39844,-37.28125 1.49123,-14.4152 8.4492,-164.03463 10.4375,-209.76562 1.98831,-45.731 2.98242,-128.244888 2.98242,-148.625005 0,-20.380117 1.99009,-46.2294522 -71.08008,-49.7089844 C 172.90334,0.9543977 151.75244,0.1892412 135.20864,0 Z m -24.21875,49.789063 c 7.44466,0.0016 15.56433,0.01191 24.21875,0.02539 34.6177,-0.05392 60.6678,-0.06945 69.26563,0.408203 12.65349,0.702971 17.92571,-0.702472 17.57422,11.248047 -0.35149,11.950518 -6.67781,201.050667 -7.0293,209.486327 -0.35148,8.43566 -4.21879,9.84188 -13.35742,10.19336 -5.06666,0.19486 -37.20368,0.47691 -66.45313,0.52734 -29.24945,-0.0504 -61.386458,-0.33248 -66.453118,-0.52734 -9.13863,-0.35148 -13.00594,-1.7577 -13.35742,-10.19336 -0.35149,-8.43566 -6.67781,-197.535809 -7.0293,-209.486327 -0.35149,-11.950519 4.92073,-10.545076 17.57422,-11.248047 6.44837,-0.35824 22.71292,-0.438319 45.046868,-0.433593 z"
id="path1585" />
<path
id="path1589"
d="m 5.9411518,265.10743 c 0.0861,1.84492 0.12176,2.70076 0.20898,4.5664 -0.0697,-1.49052 -0.14806,-3.0919 -0.21679,-4.5664 z m 0.21289,4.67382 c 7.9068302,1.01469 10.9522802,1.29541 13.4394502,1.4668 2.57533,36.11365 7.36707,100.84652 8.03906,129.40625 0.67025,28.4857 1.95688,36.83925 -5.53906,43.64844 -10.22784,-6.98528 -7.444,-22.1586 -8.66797,-33.99024 -1.01121,-9.77501 -4.4886202,-80.99691 -7.2714802,-140.53125 z"
style="fill:#449aae;fill-opacity:1;stroke:none;stroke-width:1px;stroke-linecap:butt;stroke-linejoin:miter;stroke-opacity:1" />
<path
style="fill:#202020;fill-opacity:1;stroke:none;stroke-width:1px;stroke-linecap:butt;stroke-linejoin:miter;stroke-opacity:1"
d="m 135.20864,0 c -16.5438,0.1892412 -37.694688,0.9543977 -64.123038,2.2128906 -4.56689,0.2174708 -8.84057,0.5227649 -12.83985,0.9082031 -3.99931,0.3854281 -7.72403,0.8508315 -11.19336,1.390625 -1.73467,0.2698968 -3.40443,0.5592948 -5.01367,0.8652344 -1.60987,0.3060534 -3.15744,0.6283247 -4.64648,0.96875 -1.4885,0.3402835 -2.91661,0.6973841 -4.28906,1.0703125 h -0.002 c -1.37179,0.3727732 -2.6867,0.7623251 -3.94726,1.1660156 -1.26174,0.4040605 -2.46804,0.8225237 -3.62305,1.2558594 -1.15451,0.4331214 -2.25601,0.8811274 -3.30859,1.3417964 -1.05315,0.460908 -2.0559,0.933138 -3.01172,1.419922 -1.43305,0.729777 -2.75851,1.48847 -3.98633,2.271485 -2.86412,1.827442 -5.1909,3.793327 -7.0800802,5.859375 -0.53979,0.590278 -1.04288,1.187036 -1.51367,1.792969 -0.4711,0.60633 -0.90969,1.219539 -1.31641,1.839844 -0.81289,1.23982 -1.50202,2.505567 -2.08593,3.791015 -0.29199,0.642704 -0.55704,1.289844 -0.79883,1.941407 -0.48382,1.303709 -0.87055,2.622198 -1.18164,3.951171 -0.1555,0.664184 -0.29270001,1.330101 -0.41211001,1.998047 v 0.002 c -0.47746,2.671199 -0.68514,5.365875 -0.77344,8.029297 v 0.002 c -0.0883,2.664055 -0.0566,5.296236 -0.0566,7.84375 0,5.09503 0.0613,14.072495 0.18555,25.388672 0.18521,16.866613 0.50942,38.932409 0.97070001,61.068359 0.003,0.14063 0.005,0.27734 0.008,0.41797 v 0.002 c 0.004,0.16802 0.008,0.33199 0.0117,0.5 0.30855,14.68422 0.6774,29.37406 1.10742,42.56836 0.21747,6.67265 0.45068,12.96331 0.69922,18.67969 0.63937,14.70539 1.84171,40.88456 3.16211,69.12695 0.002,0.0438 0.002,0.0635 0.004,0.10742 10.0942502,1.2954 12.2788102,1.4 15.4726502,1.59961 3.97662,0.24854 8.20312,-1.49104 9.19727,-16.90039 0.99415,-15.40936 -2.23681,-80.5262 -2.98242,-94.9414 -0.74562,-14.41521 -0.74708,-90.468593 -0.25,-104.386722 0.49707,-13.918128 9.19705,-21.374475 28.08593,-24.605469 18.88889,-3.230994 57.163478,-2.982423 66.359378,-2.982421 9.19591,0 10.43945,-5.49e-4 10.43945,5.21875 0,5.219296 -0.49847,5.964843 -6.21484,5.964843 -5.71637,0 -65.365108,1.491674 -76.300778,3.728516 -10.93567,2.236842 -12.1787,10.439304 -12.67578,23.363281 -0.49707,12.923977 3.97753,122.030952 4.4746,148.873052 0.49707,26.84209 1.73874,70.33733 4.47266,76.55078 2.73392,6.21345 15.40949,7.45507 30.57031,8.44922 9.28461,0.60878 35.295738,0.74599 58.406248,0.65039 23.11051,0.0956 49.12164,-0.0416 58.40625,-0.65039 15.16082,-0.99415 27.8364,-2.23577 30.57032,-8.44922 2.73392,-6.21345 3.97558,-49.70869 4.47265,-76.55078 0.49708,-26.8421 4.97168,-135.949075 4.47461,-148.873052 -0.49708,-12.923977 -1.74011,-21.126439 -12.67578,-23.363281 -10.93567,-2.236842 -70.58441,-3.728516 -76.30078,-3.728516 -5.71637,0 -6.21484,-0.745547 -6.21484,-5.964843 0,-5.219299 1.24354,-5.21875 10.43945,-5.21875 9.1959,-2e-6 47.47048,-0.248573 66.35937,2.982421 18.88888,3.230994 27.58887,10.687341 28.08594,24.605469 0.49708,13.918129 0.49562,89.971512 -0.25,104.386722 -0.74561,14.4152 -3.97657,79.53204 -2.98242,94.9414 0.99415,15.40935 5.22064,17.14893 9.19727,16.90039 3.19384,-0.19961 5.3784,-0.30421 15.47265,-1.59961 0.002,-0.0439 0.002,-0.0636 0.004,-0.10742 1.3204,-28.24239 2.52274,-54.42156 3.16211,-69.12695 0.24854,-5.71638 0.48175,-12.00704 0.69922,-18.67969 0.43002,-13.1943 0.79887,-27.88414 1.10742,-42.56836 0.004,-0.16801 0.008,-0.33198 0.0117,-0.5 v -0.002 c 0.003,-0.14063 0.005,-0.27734 0.008,-0.41797 0.46128,-22.13595 0.78549,-44.201746 0.9707,-61.068359 0.12427,-11.316177 0.18555,-20.293642 0.18555,-25.388672 0,-2.547514 0.0317,-5.179695 -0.0566,-7.84375 v -0.002 c -0.0883,-2.663422 -0.29598,-5.358098 -0.77344,-8.029297 v -0.002 c -0.11941,-0.667946 -0.25661,-1.333863 -0.41211,-1.998047 -0.31109,-1.328973 -0.69782,-2.647462 -1.18164,-3.951171 -0.24179,-0.651563 -0.50684,-1.298703 -0.79883,-1.941407 -0.58391,-1.285448 -1.27305,-2.551195 -2.08593,-3.791015 -0.40672,-0.620305 -0.84531,-1.233514 -1.31641,-1.839844 -0.47079,-0.605933 -0.97388,-1.202691 -1.51367,-1.792969 -1.88918,-2.066048 -4.21596,-4.031933 -7.08008,-5.859375 -1.22838,-0.783015 -2.55384,-1.541708 -3.98689,-2.271485 -0.95582,-0.486784 -1.95857,-0.959014 -3.01172,-1.419922 -1.05258,-0.460669 -2.15408,-0.908675 -3.30859,-1.3417964 -1.15501,-0.4333357 -2.36131,-0.8517989 -3.62305,-1.2558594 -1.26056,-0.4036905 -2.57547,-0.7932424 -3.94726,-1.1660156 h -0.002 C 235.94161,7.0430872 234.51351,6.6859866 233.02501,6.3457031 231.53597,6.0052778 229.9884,5.6830065 228.37853,5.3769531 226.76929,5.0710135 225.09952,4.7816155 223.36485,4.5117187 219.89552,3.9719252 216.1708,3.5065218 212.17149,3.1210937 208.17221,2.7356555 203.89854,2.4303614 199.33165,2.2128906 172.9033,0.9543977 151.7524,0.1892412 135.2086,0 Z m -24.21875,49.789063 c 7.44464,0.0016 15.56442,0.01191 24.21875,0.02539 34.61735,-0.05392 60.66786,-0.06945 69.26563,0.408203 12.65349,0.702971 17.92571,-0.702472 17.57422,11.248047 -0.35149,11.950518 -6.67781,201.050667 -7.0293,209.486327 -0.35148,8.43566 -4.21879,9.84188 -13.35742,10.19336 -5.0654,0.19481 -37.22926,0.48123 -66.45313,0.53124 -29.22387,-0.05 -61.387718,-0.33643 -66.453118,-0.53124 -9.13863,-0.35148 -13.00594,-1.7577 -13.35742,-10.19336 -0.35149,-8.43566 -6.67781,-197.535809 -7.0293,-209.486327 -0.35149,-11.950519 4.92073,-10.545076 17.57422,-11.248047 6.44833,-0.35824 22.71295,-0.438319 45.046868,-0.433593 z"
id="path1587" />
<path
style="fill:#449aae;fill-opacity:1;stroke:none;stroke-width:1px;stroke-linecap:butt;stroke-linejoin:miter;stroke-opacity:1"
d="m 264.47622,265.10743 c -0.0861,1.84492 -0.12176,2.70076 -0.20898,4.5664 0.0697,-1.49052 0.14806,-3.0919 0.21679,-4.5664 z m -0.21289,4.67382 c -7.90683,1.01469 -10.95228,1.29541 -13.43945,1.4668 -2.57533,36.11365 -7.36707,100.84652 -8.03906,129.40625 -0.67025,28.4857 -1.95688,36.83925 5.53906,43.64844 10.22784,-6.98528 7.444,-22.1586 8.66797,-33.99024 1.01121,-9.77501 4.48862,-80.99691 7.27148,-140.53125 z"
id="path1514" />
<path
style="fill:none;stroke:#1b6675;stroke-width:4;stroke-linecap:round;stroke-linejoin:miter;stroke-miterlimit:4;stroke-dasharray:none;stroke-opacity:1"
d="m 153.33258,398.37012 c -4.56932,9.66586 -0.17574,14.93814 4.39357,14.93814 4.56932,0 9.2265,-3.0755 12.9171,-6.41461"
id="path1545" />
<path
style="fill:none;stroke:#1b6675;stroke-width:4;stroke-linecap:round;stroke-linejoin:miter;stroke-miterlimit:4;stroke-dasharray:none;stroke-opacity:1"
d="m 195.68662,364.97896 c 16.69558,5.97526 23.54955,8.6114 27.59164,21.26489 4.04209,12.65349 3.16337,17.5743 2.81189,23.7253"
id="path1543" />
<path
style="fill:#66827a;fill-opacity:1;stroke:none;stroke-width:1px;stroke-linecap:butt;stroke-linejoin:miter;stroke-opacity:1"
d="m 186.54799,320.516 c 9.13863,0 8.96289,0.35149 9.13863,6.50249 0.17575,6.151 0.17575,61.86151 0,66.43082 -0.17574,4.56932 -3.16337,5.27229 -7.02971,5.44803 -3.86635,0.17575 -32.86393,0.52723 -43.23276,0.52723 -10.36883,0 -66.430818,-0.70297 -71.527368,-0.70297 -5.09654,0 -5.97526,-1.75743 -6.32674,-7.20546 -0.35149,-5.44803 -0.70297,-58.69813 -0.52723,-63.97042 0.17574,-5.27229 1.2302,-6.32674 7.3812,-6.67823 6.151,-0.35149 104.742778,-0.52723 112.123978,-0.35149 z"
id="path1537" />
<path
style="fill:#174243;fill-opacity:1;stroke:none;stroke-width:1px;stroke-linecap:butt;stroke-linejoin:miter;stroke-opacity:1"
d="m 128.74599,357.25008 c 2.98246,0 3.85234,-0.24853 3.85234,2.73392 0,2.98246 0.24854,24.72953 0.12427,27.33918 -0.12427,2.60965 -0.99415,3.231 -3.10672,3.35527 -2.11258,0.12427 -44.861108,0.12427 -47.222228,0 -2.36111,-0.12427 -3.10672,-0.86989 -3.23099,-2.98246 -0.12427,-2.11257 -0.37281,-22.98976 -0.12427,-26.22076 0.24854,-3.23099 0.62135,-4.22514 2.85819,-4.34941 2.23684,-0.12427 42.251458,0.12426 46.849408,0.12426 z"
id="path1539" />
<path
style="fill:none;stroke:#1b6675;stroke-width:4;stroke-linecap:round;stroke-linejoin:miter;stroke-miterlimit:4;stroke-dasharray:none;stroke-opacity:1"
d="m 176.3549,421.56818 c -7.20546,-19.33172 -13.70795,-39.19067 -14.93815,-47.80207 -1.2302,-8.61141 7.73269,-15.64112 17.04707,-7.20546 9.31437,8.43566 20.73766,39.89364 23.02232,47.97781"
id="path1541" />
<path
style="fill:#202020;fill-opacity:1;stroke:none;stroke-width:1px;stroke-linecap:butt;stroke-linejoin:miter;stroke-opacity:1"
d="m 135.20864,433.875 c -22.9359,0.58438 -39.510128,4.17065 -39.392568,8.87305 0.11442,4.57668 22.125128,8.03885 39.392568,8.51172 17.26744,-0.47287 39.27816,-3.93504 39.39258,-8.51172 0.11756,-4.7024 -16.45668,-8.28867 -39.39258,-8.87305 z"
id="path1591" />
<path
style="fill:#434849;fill-opacity:1;stroke:none;stroke-width:1px;stroke-linecap:butt;stroke-linejoin:miter;stroke-opacity:1"
d="m 135.20864,0 c -7.56078,0.086486 -16.21438,0.3077735 -25.76367,0.6269531 0.1241,5.0352638 0.48529,11.6993789 0.69141,14.0859379 0.24917,2.884859 0.74794,5.549293 5.98047,5.105469 4.91863,-0.4172 11.86581,-0.636353 19.09179,-0.845703 7.22598,0.20935 14.17317,0.428503 19.0918,0.845703 5.23253,0.443824 5.7313,-2.22061 5.98047,-5.105469 0.20612,-2.386559 0.56731,-9.0506741 0.69141,-14.0859379 C 151.42303,0.3077735 142.76943,0.0864863 135.20864,0 Z M 173.902,1.1074218 c 0.38747,5.9594394 0.74024,11.7932412 0.74024,14.9707032 0,3.765975 0.94176,4.081366 4.08008,4.238282 3.13831,0.156915 31.06916,1.724566 36.40429,2.195312 5.33513,0.470747 6.74805,0.628012 6.74805,-3.765625 0,-3.013433 -0.20441,-9.2336502 -0.39453,-14.4980472 C 218.54236,3.8240652 215.47268,3.439237 212.17153,3.1210937 208.17225,2.7356555 203.89858,2.4303614 199.33169,2.2128906 190.15298,1.7758093 181.83565,1.4220303 173.902,1.1074218 Z M 87.491852,1.4726562 c -5.2598,0.2263476 -10.65321,0.46628 -16.40625,0.7402344 -4.56689,0.2174708 -8.84057,0.5227649 -12.83985,0.9082031 -3.99931,0.3854281 -7.72403,0.8508315 -11.19336,1.390625 -1.73467,0.2698968 -3.40443,0.5592948 -5.01367,0.8652344 -0.74913,0.1424184 -1.43957,0.3015347 -2.16211,0.4511719 -0.17148,4.950306 -0.33398,10.246841 -0.33398,12.917969 0,4.393637 1.41291,4.236372 6.74805,3.765625 5.33512,-0.470746 33.26598,-2.038397 36.40429,-2.195312 3.13832,-0.156916 4.08008,-0.472307 4.08008,-4.238282 0,-3.110918 0.33972,-8.7806029 0.7168,-14.6054688 z"
id="path1613" />
<path
style="opacity:1;vector-effect:none;fill:#ffd74f;fill-opacity:1;stroke:none;stroke-width:0.20605026;stroke-linecap:round;stroke-linejoin:round;stroke-miterlimit:4;stroke-dasharray:none;stroke-dashoffset:0;stroke-opacity:1;paint-order:normal"
d="m 106.04982,362.25415 c -0.13378,5.2e-4 -0.27563,0.003 -0.42736,0.008 -0.86537,0.0243 -1.14576,0.0532 -1.63006,0.16824 -2.79459,0.66422 -5.387698,2.7233 -7.776198,6.1747 -0.46607,0.67348 -1.1914,1.84616 -1.1914,1.92626 0,0.0653 0.79174,0.46184 2.09036,1.04703 2.48673,1.12056 3.215798,1.52724 4.617588,2.57562 1.18703,0.88778 1.63354,1.27596 3.27749,2.84897 2.96044,2.8327 3.42767,3.16426 4.7844,3.39589 0.4405,0.0752 0.77208,0.0828 2.19205,0.0506 l 1.67317,-0.0381 -0.16882,0.22144 c -0.66353,0.8704 -1.7177,1.51571 -2.97157,1.819 -0.41784,0.10106 -0.64931,0.12015 -1.44548,0.1195 -1.06313,-5.3e-4 -1.6927,-0.0775 -2.24893,-0.27388 -1.15515,-0.40782 -2.02072,-1.07484 -3.7791,-2.91219 -1.07388,-1.12212 -2.22844,-2.23517 -2.88184,-2.77829 -1.898638,-1.57819 -4.629698,-2.86575 -7.885958,-3.71796 -0.37432,-0.0979 -0.68894,-0.18617 -0.6992,-0.19595 -0.0317,-0.0303 0.35558,-0.72944 0.75161,-1.35652 0.20776,-0.32898 0.82654,-1.22554 1.37503,-1.99236 0.54848,-0.76681 1.17611,-1.66434 1.39478,-1.99458 0.47617,-0.71916 0.96193,-1.55523 0.92659,-1.5949 -0.014,-0.0157 -0.36002,-0.041 -0.76898,-0.0562 -1.31956,-0.049 -2.79101,0.16257 -3.68909,0.53059 -1.26975,0.52033 -2.11882,1.39164 -3.77853,3.87703 -0.78786,1.17981 -1.3504,1.97387 -2.33951,3.30239 -1.3203,1.77337 -2.01909,2.75111 -1.98782,2.78138 0.009,0.009 0.4099,0.0571 0.89118,0.10757 3.31842,0.34849 4.60006,0.59569 6.13712,1.18392 2.27393,0.87021 4.31216,2.14188 6.81828,4.25379 2.749528,2.31702 3.804158,3.06649 5.114438,3.63469 1.29347,0.5609 3.23404,0.7406 5.14293,0.47612 1.2326,-0.17078 2.32397,-0.58173 3.31622,-1.24863 1.69446,-1.13882 3.16623,-2.62024 4.58758,-4.61764 0.35823,-0.50344 1.43007,-2.24851 1.42972,-2.32775 0,-0.0223 -0.63997,-0.29527 -1.42193,-0.60673 -4.26883,-1.7003 -4.99031,-2.16788 -8.17897,-5.3004 -2.47564,-2.43202 -3.60287,-3.29397 -4.8127,-3.68011 -0.24064,-0.0769 -0.64534,-0.1763 -0.89934,-0.22111 -0.38954,-0.0687 -2.530568,-0.29855 -2.842348,-0.30511 -0.0782,-0.002 -0.0433,-0.0605 0.16863,-0.28295 0.63581,-0.66798 1.608498,-1.21572 2.600798,-1.46463 0.38269,-0.0959 0.64647,-0.12274 1.23964,-0.1257 1.12866,-0.006 1.8203,0.17137 2.84386,0.72774 1.00684,0.54728 1.89773,1.27002 3.3977,2.75654 1.30147,1.28978 1.97848,1.93387 2.44632,2.3271 2.37535,1.99659 4.22043,2.88462 8.60623,4.14217 0.11363,0.0325 0.20661,0.0736 0.20661,0.091 0,0.0866 -0.92277,1.56215 -1.65475,2.64598 -1.61321,2.38867 -2.0752,3.0834 -2.39563,3.60293 l -0.32452,0.52624 1.05724,0.0406 c 1.66747,0.064 2.73456,-0.0777 3.49341,-0.46409 1.10961,-0.56492 2.09578,-1.64542 3.83701,-4.2041 0.39839,-0.58542 1.21848,-1.76445 1.82232,-2.62008 1.39044,-1.97016 2.05682,-2.94719 2.03037,-2.9769 -0.0114,-0.0128 -0.46778,-0.0866 -1.01414,-0.16397 -4.22625,-0.59848 -7.34651,-1.63389 -9.79963,-3.25185 -0.72184,-0.4761 -1.65357,-1.20312 -3.19118,-2.4899 -2.85746,-2.39135 -4.14056,-3.22531 -5.77888,-3.75602 -0.80723,-0.2615 -1.3504,-0.34905 -2.28681,-0.34404 z"
id="rect1746" />
</g>
<g
style="fill:#f6493f;fill-opacity:1"
transform="translate(48.301123,47.791811)"
id="g2200">
<g
style="fill:#f6493f;fill-opacity:1;stroke:none"
transform="matrix(0.87118992,0,0,0.84259969,-57.643733,-78.753641)"
id="g4607" />
<rect
ry="10"
rx="10"
transform="rotate(-45)"
y="331.03653"
x="-297.31448"
height="50.405537"
width="593.90869"
id="rect4181"
style="fill:#f6493f;fill-opacity:1;stroke:none;stroke-opacity:1" />
</g>
</svg>
