<?xml version="1.0" encoding="UTF-8" standalone="no"?>
<svg
xmlns:dc="http://purl.org/dc/elements/1.1/"
xmlns:cc="http://creativecommons.org/ns#"
xmlns:rdf="http://www.w3.org/1999/02/22-rdf-syntax-ns#"
xmlns:svg="http://www.w3.org/2000/svg"
xmlns="http://www.w3.org/2000/svg"
id="svg8"
version="1.1"
viewBox="0 0 350.45709 350.45709"
height="350.45709mm"
width="350.45709mm">
<defs
id="defs2" />
<metadata
id="metadata5">
<rdf:RDF>
<cc:Work
rdf:about="">
<dc:format>image/svg+xml</dc:format>
<dc:type
rdf:resource="http://purl.org/dc/dcmitype/StillImage" />
<dc:title></dc:title>
</cc:Work>
</rdf:RDF>
</metadata>
<g
transform="translate(77.978935,-22.891262)"
id="layer1">
<path
id="path1389"
d="m 212.81752,137.12076 c 0,0 23.92027,-5.88203 29.74628,-7.11446 5.82601,-1.23242 53.94664,-11.42795 55.79529,-11.596 1.84864,-0.16806 0.3361,1.7366 0.3361,1.7366 l -86.21378,19.88687 z"
style="fill:#6a6973;fill-opacity:1;stroke:none;stroke-width:0.26458332px;stroke-linecap:butt;stroke-linejoin:miter;stroke-opacity:1" />
<path
id="path1387"
d="m 212.42539,139.36154 c 6.21815,-1.79263 38.31724,-9.29922 42.51869,-10.41961 4.20145,-1.12038 43.07888,-9.52329 44.14324,-9.63532 1.06437,-0.11204 -0.056,2.35281 -0.056,2.35281 l -87.27815,20.50308 z"
style="fill:#1d1e22;fill-opacity:1;stroke:none;stroke-width:0.26458332px;stroke-linecap:butt;stroke-linejoin:miter;stroke-opacity:1" />
<path
id="path1385"
d="m 212.59345,141.15415 c 8.01076,-2.24077 55.17906,-13.55668 61.22916,-14.90114 6.05009,-1.34447 25.09665,-5.4899 26.44113,-5.65796 1.34446,-0.16806 -2.35281,4.87369 -2.35281,4.87369 l -85.82165,21.39939 z"
style="fill:#a69c96;fill-opacity:1;stroke:none;stroke-width:0.26458332px;stroke-linecap:butt;stroke-linejoin:miter;stroke-opacity:1" />
<path
id="path1383"
d="m 212.25733,146.19589 c 7.17048,-2.24077 37.42093,-10.41959 41.6784,-11.37192 4.25747,-0.95233 43.58307,-10.47562 45.03957,-10.6997 1.4565,-0.22408 -0.22408,2.91301 -0.22408,2.91301 l -87.89437,23.36007 z"
style="fill:#1d1e22;fill-opacity:1;stroke:none;stroke-width:0.26458332px;stroke-linecap:butt;stroke-linejoin:miter;stroke-opacity:1" />
<path
id="path1377"
d="m 210.29665,154.0386 c 9.63533,-2.913 74.39372,-20.50308 78.31505,-21.62346 3.92137,-1.12039 11.31591,-2.68894 11.31591,-2.68894 0,0 6.72233,5.26582 -0.11202,6.61029 -6.83437,1.34446 -31.14678,7.39455 -41.56637,10.4196 -10.4196,3.02504 -46.6081,14.11688 -49.29703,15.01318 -2.68893,0.89632 1.34446,-7.73067 1.34446,-7.73067 z"
style="fill:#73746a;fill-opacity:1;stroke:none;stroke-width:0.26458332px;stroke-linecap:butt;stroke-linejoin:miter;stroke-opacity:1" />
<path
id="path1375"
d="m 227.13047,205.8285 c -0.028,1.56854 2e-5,1.87665 0.084,2.43684 0.084,0.56019 0.84029,0.028 0.8683,-1.90466 0.028,-1.93267 0.2801,-14.28493 0.22408,-14.87314 -0.056,-0.5882 -0.92432,-0.47616 -0.98034,0.81228 -0.008,4.50778 -0.28097,9.02117 -0.19606,13.52868 z"
style="fill:#395980;fill-opacity:1;stroke:none;stroke-width:0.26458332px;stroke-linecap:butt;stroke-linejoin:miter;stroke-opacity:1" />
<path
id="path1373"
d="m 215.84257,205.01622 c 5.82601,1.51252 10.25154,2.18475 11.31591,2.40883 1.06437,0.22408 -8.57096,3.97737 -8.57096,3.97737 0,0 -3.86534,-5.65795 -2.74495,-6.3862 z"
style="fill:#817a78;fill-opacity:1;stroke:none;stroke-width:0.26458332px;stroke-linecap:butt;stroke-linejoin:miter;stroke-opacity:1" />
<path
id="path1371"
d="m 216.06665,206.80884 c 3.86533,-1.62457 4.31349,-1.96068 4.31349,-1.00835 0,0.95233 -0.056,5.37786 -0.056,5.37786 l -4.9297,0.95232 z"
style="fill:#afa08f;fill-opacity:1;stroke:none;stroke-width:0.26458332px;stroke-linecap:butt;stroke-linejoin:miter;stroke-opacity:1" />
<path
id="path1358"
d="m 181.22337,236.98832 c 1.30718,0.0792 2.65398,-0.47534 4.04039,-1.06951 1.3864,-0.59418 42.82021,-24.91574 43.25594,-25.27224 0.43573,-0.35651 0.71301,-0.39612 0.6734,-1.30719 -0.0396,-0.91107 -0.0792,-1.74291 -0.0792,-2.21825 0,-0.47534 -0.23767,-1.06952 -0.91107,-0.79224 -0.6734,0.27729 -9.8633,4.00078 -10.57631,4.35729 -0.71301,0.3565 -0.99029,0.3565 -1.02991,-0.47534 -0.0396,-0.83185 0,-12.12117 0,-12.71535 0,-0.59417 -6.97165,2.05981 -6.97165,2.05981 l -28.59962,13.78486 z"
style="fill:#cfc2b4;fill-opacity:1;stroke:none;stroke-width:0.26458332px;stroke-linecap:butt;stroke-linejoin:miter;stroke-opacity:1" />
<path
id="path1356"
d="m 178.80705,209.61666 -8.39767,-5.62485 h -11.01204 l 0.55456,37.7103 21.23186,-8.95223 z"
style="fill:#18191a;fill-opacity:1;stroke:none;stroke-width:0.26458332px;stroke-linecap:butt;stroke-linejoin:miter;stroke-opacity:1" />
<path
id="path1342"
d="m 181.06492,213.00346 c 1.43224,0.77922 1.69651,0.90796 2.10253,1.10602 0.37041,0.18069 0.99029,0.37631 1.56466,0.21787 0.57437,-0.15845 47.86759,-24.39769 48.50137,-24.83341 0.63379,-0.43573 0.9903,-0.63379 0.27728,-1.26758 -0.71301,-0.63378 -3.84233,-2.61436 -4.55533,-2.7332 -0.71302,-0.11883 -8.59574,3.68388 -8.59574,3.68388 l -39.88894,19.96428 z"
style="fill:#889bd6;fill-opacity:1;stroke:none;stroke-width:0.26458332px;stroke-linecap:butt;stroke-linejoin:miter;stroke-opacity:1" />
<path
id="path1352"
d="m 180.70484,209.66864 11.55922,-5.76999 c 0,0 35.3986,-17.36882 36.60301,-18.01304 1.20442,-0.64422 1.56854,-0.8683 0.61621,-1.42849 -0.95233,-0.5602 -20.53109,-7.2265 -21.31536,-7.33854 -0.78427,-0.11204 -23.86424,9.69135 -23.86424,9.69135 l -12.32426,18.93454 z"
style="fill:#6b89b4;fill-opacity:1;stroke:none;stroke-width:0.26458332px;stroke-linecap:butt;stroke-linejoin:miter;stroke-opacity:1" />
<path
id="path1354"
d="m 202.65328,190.40501 c -2.65398,-0.71302 -13.74525,-4.3969 -14.29981,-4.63457 -0.55457,-0.23767 4.4365,-9.15029 4.4365,-9.15029 l 8.54359,-12.21796 c 0,0 2.12873,-2.52087 2.40883,0.11203 0.2801,2.63291 -1.08911,25.89079 -1.08911,25.89079 z"
style="fill:#6c6b6e;fill-opacity:1;stroke:none;stroke-width:0.26458332px;stroke-linecap:butt;stroke-linejoin:miter;stroke-opacity:1" />
<path
id="path1347"
transform="scale(0.26458333)"
d="m 866.68164,701.52539 c -8.07445,3.95608 -89.25925,43.43684 -101.64648,49.70508 -12.42622,6.28796 -79.49772,39.67398 -81.14454,40.57226 -1.64685,0.89828 1.34766,3.14454 1.34766,3.14454 13.17479,-6.13822 177.25977,-87.43333 181.15234,-89.5293 1.74773,-0.94108 2.27034,-1.23284 3.83204,-2.08399 -1.35322,-0.75418 -2.60525,-1.41132 -3.54102,-1.80859 z"
style="fill:#445f93;fill-opacity:1;stroke:none;stroke-width:0.99999994px;stroke-linecap:butt;stroke-linejoin:miter;stroke-opacity:1" />
<path
id="path1337"
d="m 172.78608,204.80385 c 4.55534,1.94097 7.54603,3.51864 8.16001,3.83553 0.61398,0.31689 0.6734,0.37631 0.6734,1.06952 0,0.6932 -0.0246,2.90242 -0.0246,3.06087 0,0.15844 -0.0396,0.43573 -0.47534,0.27728 -0.43573,-0.15845 -10.01015,-4.73136 -10.74296,-5.14728 -1.37895,-0.70022 -0.54229,-3.68963 2.40951,-3.09592 z"
style="fill:#222344;fill-opacity:1;stroke:none;stroke-width:0.26458332px;stroke-linecap:butt;stroke-linejoin:miter;stroke-opacity:1" />
<path
id="path1330"
d="m 167.47812,205.10093 c -0.0792,5.22874 -0.0792,31.29322 -0.0792,32.08545 0,0.79224 2.61437,-2.69359 2.61437,-2.69359 l -0.0792,-30.10487 z"
style="fill:#867769;fill-opacity:1;stroke:none;stroke-width:0.26458332px;stroke-linecap:butt;stroke-linejoin:miter;stroke-opacity:1" />
<path
id="path1328"
transform="scale(0.26458333)"
d="m 671.85156,799.27148 c -0.0249,0.30177 -0.043,0.62035 -0.043,0.78907 0,6.3518 0.74219,61.71791 0.74219,63.51757 0,1.79966 0.10547,10.58594 0.10547,10.58594 l 0.95313,20.53711 c 2.75244,-1.4821 2.22303,-0.84726 3.17578,-0.95312 0.95278,-0.10583 6.35112,1.96519 8.04492,1.85937 1.69383,-0.10583 3.70508,0.10589 3.70508,-2.11719 0,-2.20147 -0.51602,-81.90715 -0.62891,-86.52343 -0.55647,-0.29647 -1.20982,-0.64704 -1.98242,-1.06446 -0.40139,-0.20946 -0.61324,-0.31744 -1.19922,-0.63672 -0.0618,-0.019 -0.11114,-0.0246 -0.17773,-0.0488 -0.59984,-0.21813 -6.2148,-2.86591 -12.69532,-5.94532 z"
style="fill:#5e5d53;fill-opacity:1;stroke:none;stroke-width:0.99999994px;stroke-linecap:butt;stroke-linejoin:miter;stroke-opacity:1" />
<path
id="path1320"
d="m 90.473042,169.76733 28.361948,-8.87301 0.15845,5.07029 -26.93593,10.45748 z"
style="fill:#202835;fill-opacity:1;stroke:none;stroke-width:0.26458332px;stroke-linecap:butt;stroke-linejoin:miter;stroke-opacity:1" />
<path
id="path1318"
d="m 15.686219,187.51335 c 0,8.87302 0.07922,9.8237 0.158447,10.8536 0.07922,1.0299 8.476896,-6.49631 8.476896,-6.49631 z"
style="fill:#9c968b;fill-opacity:1;stroke:none;stroke-width:0.26458332px;stroke-linecap:butt;stroke-linejoin:miter;stroke-opacity:1" />
<path
id="path1313"
d="m 76.13362,173.64927 c 0,0 -42.622152,15.36933 -46.504094,16.39923 -3.881944,1.0299 -40.562345,12.04195 -46.028755,13.54719 -5.46641,1.50524 -62.982549,18.30059 -73.598473,21.78642 -10.615928,3.48582 -62.586428,19.96428 -65.755368,21.3903 -3.16893,1.42602 7.76389,8.23922 7.76389,8.23922 l 238.779116,-78.1142 -0.792234,-6.17942 z"
style="fill:#6a6973;fill-opacity:1;stroke:none;stroke-width:0.26458332px;stroke-linecap:butt;stroke-linejoin:miter;stroke-opacity:1" />
<path
id="path1311"
d="m 119.20919,166.13879 c -17.25397,5.26582 -44.255294,13.78076 -51.873926,16.13357 -7.618632,2.35281 -72.4890446,21.95959 -79.995638,24.3124 -7.506593,2.35281 -67.988975,21.49094 -89.379276,27.8288 -21.3903,6.33787 -49.9107,18.69671 -51.65361,19.01361 -1.74291,0.31689 5.38719,6.8132 5.38719,6.8132 l 65.755359,-24.71768 138.957723,-44.8404 63.220218,-20.12273 z"
style="fill:#1d1e22;fill-opacity:1;stroke:none;stroke-width:0.26458332px;stroke-linecap:butt;stroke-linejoin:miter;stroke-opacity:1" />
<path
style="fill:#2b2d2b;fill-opacity:1;stroke:none;stroke-width:0.99999994px;stroke-linecap:butt;stroke-linejoin:miter;stroke-opacity:1"
d="M 449.59375,639.31836 C 421.9927,647.469 385.49771,658.66891 347.5332,670.44727 v 42.67578 l 111.49024,-36.07617 z"
transform="scale(0.26458333)"
id="path1309" />
<path
id="path1300"
transform="scale(0.26458333)"
d="m 339.55859,672.92188 c -82.53639,25.64693 -170.40513,53.53319 -192.83984,60.34374 -33.53579,10.1805 -244.331944,76.65268 -310.80469,97.01368 -66.47274,20.36103 -368.29402,124.56193 -407.81836,147.31836 -39.52433,22.75654 1.79497,62.27974 9.58008,61.08204 7.78507,-1.1977 586.884767,-221.04689 586.884767,-221.04689 L 338.375,716.08594 Z"
style="fill:#a69c96;fill-opacity:1;stroke:none;stroke-width:0.99999994px;stroke-linecap:butt;stroke-linejoin:miter;stroke-opacity:1" />
<path
id="path1298"
d="m 99.266833,182.54767 c 26.619037,-9.42757 18.459037,-6.33786 20.043507,-6.73398 1.58446,-0.39611 0.71301,1.6637 0.71301,1.6637 l -8.39768,3.96116 z"
style="fill:#1d1e22;fill-opacity:1;stroke:none;stroke-width:0.26458332px;stroke-linecap:butt;stroke-linejoin:miter;stroke-opacity:1" />
<path
id="path1296"
d="m 83.184496,188.14714 c -20.598066,6.81321 -86.1949825,28.36195 -103.148775,34.54137 -16.953792,6.17942 -50.069145,18.22137 -72.727016,27.25283 -22.657875,9.03146 -67.973615,28.04507 -67.973615,28.04507 l 12.67573,5.38718 92.53285,-38.0272 92.849741,-35.01672 48.801573,-16.79534 z"
style="fill:#1d1e22;fill-opacity:1;stroke:none;stroke-width:0.26458332px;stroke-linecap:butt;stroke-linejoin:miter;stroke-opacity:1" />
<path
id="path1289"
d="m 15.013187,230.89716 103.299693,-36.7487 18.59842,3.58524 -0.89631,15.01319 -69.688074,30.25045 z"
style="fill:#323840;fill-opacity:1;stroke:none;stroke-width:0.26458332px;stroke-linecap:butt;stroke-linejoin:miter;stroke-opacity:1" />
<path
id="path1291"
d="m 83.97673,191.47452 c -16.003114,5.54563 -79.6986702,27.88661 -96.335569,33.59069 -16.636901,5.70408 -72.568571,28.20351 -97.761591,39.13633 -25.19302,10.93282 -41.82992,18.22137 -44.52351,19.48894 -2.69359,1.26757 7.1301,6.17942 7.1301,6.17942 l 87.145663,-38.0272 74.94527,-29.78797 71.459442,-25.03458 z"
style="fill:#6a6973;fill-opacity:1;stroke:none;stroke-width:0.26458332px;stroke-linecap:butt;stroke-linejoin:miter;stroke-opacity:1" />
<path
id="path1287"
d="m 68.290511,238.96891 c -0.71301,0.31689 -1.109126,0.11883 -2.178643,0 -1.069515,-0.11884 -51.455552,-7.96195 -51.455552,-7.96195 l -5.3871865,4.35728 59.1798265,10.45749 z"
style="fill:#456aa8;fill-opacity:1;stroke:none;stroke-width:0.26458332px;stroke-linecap:butt;stroke-linejoin:miter;stroke-opacity:1" />
<path
id="path1266"
d="m -39.136325,255.01163 c -0.158446,5.22874 0,25.43068 0,26.4606 0,1.02989 0.316894,1.66368 1.505244,1.90135 1.188349,0.23768 103.845961,21.3164 106.310808,21.76456 2.464857,0.44817 0.680298,-60.18787 -0.904167,-60.50477 -1.584468,-0.31689 -60.1305086,-9.82369 -62.5468203,-10.18019 -2.4163115,-0.35651 -34.9771007,7.36777 -34.9771007,7.36777 z"
style="fill:#aeaaa2;fill-opacity:1;stroke:none;stroke-width:0.26458332px;stroke-linecap:butt;stroke-linejoin:miter;stroke-opacity:1" />
<path
id="path1262"
d="m 119.20919,195.38089 c -13.10853,4.25747 -30.474535,11.20387 -39.213553,14.45299 -8.739018,3.24913 -74.3937017,26.88929 -90.415237,33.72365 -16.021535,6.83437 -71.368656,29.01802 -81.900295,34.28386 -10.531635,5.26582 -56.915665,27.33744 -56.915665,27.33744 l -1.79262,-12.10019 10.30756,-4.70562 66.775072,-30.36249 50.529458,-19.94289 59.716632,-22.8559 55.123045,-18.48639 12.100183,-4.03339 16.02153,-0.89631 z"
style="fill:#73746a;fill-opacity:1;stroke:none;stroke-width:0.26458332px;stroke-linecap:butt;stroke-linejoin:miter;stroke-opacity:1" />
<path
id="path1258"
d="m 120.6937,208.62946 c 2.18475,-0.70024 11.76406,-4.03339 12.38027,-4.34149 0.61622,-0.30811 -0.084,5.48989 -0.084,5.48989 0,0 -13.27659,-0.30811 -12.29625,-1.1484 z"
style="fill:#342d26;fill-opacity:1;stroke:none;stroke-width:0.26458332px;stroke-linecap:butt;stroke-linejoin:miter;stroke-opacity:1" />
<path
id="path1256"
d="m 120.38559,211.72453 c 1.61056,0.12605 9.22919,0.77027 9.62132,0.81229 0.39214,0.042 3.40318,-1.24644 3.40318,-1.24644 0,0 1.56854,-1.54053 -0.84029,-1.76461 -2.40883,-0.22407 -11.14785,-0.89631 -11.96013,-0.92431 -0.81228,-0.028 -0.22408,3.12307 -0.22408,3.12307 z"
style="fill:#535353;fill-opacity:1;stroke:none;stroke-width:0.26458332px;stroke-linecap:butt;stroke-linejoin:miter;stroke-opacity:1" />
<path
id="path1248"
d="m 87.558251,231.0092 c -0.05602,-2.52087 0,-9.57931 0,-11.03582 0,-1.4565 -0.392135,-18.65444 -0.392135,-19.15861 0,-0.50418 3.809314,-2.5769 3.809314,-0.5602 v 28.90599 c 0,0.95233 -3.417179,1.84864 -3.417179,1.84864 z"
style="fill:#7f7d7e;fill-opacity:1;stroke:none;stroke-width:0.26458332px;stroke-linecap:butt;stroke-linejoin:miter;stroke-opacity:1" />
<path
id="path1250"
d="m 93.328243,228.88046 c 0,-2.913 -0.336116,-28.79395 -0.448154,-30.02637 -0.112038,-1.23243 -2.184755,1.06437 -2.184755,1.06437 l 0.05602,29.74627 z"
style="fill:#aca7a3;fill-opacity:1;stroke:none;stroke-width:0.26458332px;stroke-linecap:butt;stroke-linejoin:miter;stroke-opacity:1" />
<path
id="path1221"
d="m 67.447302,245.96637 c -0.05602,-6.16213 0,-4.70563 0,-5.82602 0,-1.12038 0.504174,-1.06437 1.176406,-1.34446 0.672232,-0.2801 67.402262,-29.64454 68.466632,-30.03667 1.06437,-0.39214 0.67223,5.65795 0.67223,5.65795 z"
style="fill:#457bc3;fill-opacity:1;stroke:none;stroke-width:0.26458332px;stroke-linecap:butt;stroke-linejoin:miter;stroke-opacity:1" />
<path
id="path1260"
d="m 120.32957,198.46195 c 3.97738,0.2801 14.73309,0.95233 15.18125,0.95233 0.44815,0 -1.68058,-12.49231 -1.68058,-12.49231 l -14.56504,4.76164 z"
style="fill:#0e1113;fill-opacity:1;stroke:none;stroke-width:0.26458332px;stroke-linecap:butt;stroke-linejoin:miter;stroke-opacity:1" />
<path
id="path1219"
transform="scale(0.26458333)"
d="m 504.03906,701.66016 c -2.82694,0.0687 -4.93267,1.12484 -4.78711,4.18164 0.352,7.39193 0.69499,51.58744 0.56055,91.12304 9.96408,-4.35386 17.11341,-7.46568 17.9707,-7.80078 l -0.32226,-84.16992 c 0,0 -8.02498,-3.46506 -13.42188,-3.33398 z m 13.83008,109.99609 -18.19141,8.16211 c -10e-4,0.11349 -8.4e-4,0.24224 -0.002,0.35547 l 18.20703,-5.08203 z"
style="fill:#807d76;fill-opacity:1;stroke:none;stroke-width:0.99999994px;stroke-linecap:butt;stroke-linejoin:miter;stroke-opacity:1" />
<path
id="path1217"
transform="scale(0.26458333)"
d="m 396.51758,727.06445 c -0.50947,0.009 -0.80078,0.187 -0.80078,0.58399 0,2.59999 0.41006,74.70602 0.56445,115.14453 6.54334,-2.85457 11.90909,-5.18994 18.23633,-7.94922 l -0.16797,-99.57227 c 0,0 -14.26576,-8.26781 -17.83203,-8.20703 z m 18.03906,131.30664 -13.99805,6.24805 14.00196,-3.58203 z"
style="fill:#a3a3a1;fill-opacity:1;stroke:none;stroke-width:0.99999994px;stroke-linecap:butt;stroke-linejoin:miter;stroke-opacity:1" />
<path
id="path1215"
d="m 108.61518,227.20424 c -0.0792,-5.07029 -0.23766,-32.64001 -0.23766,-33.90758 0,-1.26758 1.90135,-2.61437 1.98058,0.95068 0.0792,3.56505 0.23767,31.29321 0.23767,32.64001 0,1.34679 -1.98059,0.31689 -1.98059,0.31689 z"
style="fill:#f1e9d3;fill-opacity:1;stroke:none;stroke-width:0.26458332px;stroke-linecap:butt;stroke-linejoin:miter;stroke-opacity:1" />
<path
id="path1213"
transform="scale(0.26458333)"
d="m 558.53516,691.86719 c 0,0 -44.46326,3.81074 -44.88672,8.46875 -0.42346,4.65796 0.42383,102.8999 0.42383,105.65234 0,2.75244 -2.6e-4,4.23394 -3.59961,5.92774 -3.59936,1.69383 -251.82869,110.73513 -255.0993,112.19535 -0.5242,0.23404 -0.54215,0.1309 -0.56086,0.76718 -0.13204,4.48946 1.19802,72.18163 1.79688,88.94955 0.59886,16.7679 0.89843,80.2461 0.89843,80.2461 0,0 -0.59961,47.6092 -0.59961,53.5977 0,5.9886 1.19777,6.886 7.78516,3.2929 6.58739,-3.5931 403.94956,-253.36504 408.14155,-255.76047 4.19187,-2.39542 3.89258,-3.59317 3.89258,-7.78515 0,-4.19195 5.1e-4,-11.67794 -0.29883,-16.46875 -0.29945,-4.79082 -1.00866,-4.59943 -5.90118,-2.0761 -5.09024,2.62531 -16.0685,9.68458 -19.96107,11.48114 -3.89254,1.79656 -5.60157,1.42515 -5.60157,-2.16797 0,-3.59312 0.29928,-93.87005 -0.29958,-102.25398 -0.59883,-8.38398 -4.49067,-6.73828 -4.49067,0.14851 0,6.88683 -0.29959,100.0104 -0.29959,103.60352 0,3.59312 0.59914,6.58687 -2.0957,8.08398 -2.69484,1.49715 -18.86333,11.67672 -22.75586,13.17383 -3.89254,1.49715 -5.0918,0.89824 -5.0918,-3.89258 0,-4.79085 1.49754,-96.7137 1.79688,-123.66211 34.56192,-7.4047 -53.19336,-81.52148 -53.19336,-81.52148 z"
style="fill:#cfc9bd;fill-opacity:1;stroke:none;stroke-width:0.99999994px;stroke-linecap:butt;stroke-linejoin:miter;stroke-opacity:1" />
<path
id="path1211"
d="m 153.69326,191.79141 c 3.88194,5.30797 6.25864,7.92234 6.97165,9.03146 0.71301,1.10913 0.57295,1.65889 0.63379,2.85204 0.0566,1.11051 -0.0792,1.50525 1.0299,1.66369 1.10913,0.15845 7.36777,0.55457 8.71457,0.63379 1.3468,0.0792 -12.75496,-17.19146 -12.75496,-17.19146 z"
style="fill:#877356;fill-opacity:1;stroke:none;stroke-width:0.26458332px;stroke-linecap:butt;stroke-linejoin:miter;stroke-opacity:1" />
<path
id="path1209"
d="m 142.06508,183.50478 c 4.48155,5.71398 6.49825,7.61864 7.61863,8.73903 1.12039,1.12038 2.0167,1.00834 5.4899,-0.11204 3.4732,-1.12039 -8.4029,-11.20388 -8.4029,-11.20388 z"
style="fill:#877356;fill-opacity:1;stroke:none;stroke-width:0.26458332px;stroke-linecap:butt;stroke-linejoin:miter;stroke-opacity:1" />
<path
id="path1196"
d="m 78.470709,141.8411 9.982139,-1.86174 5.070292,6.49631 -15.329712,3.72349 z"
style="fill:#4a7488;fill-opacity:1;stroke:none;stroke-width:0.26458332px;stroke-linecap:butt;stroke-linejoin:miter;stroke-opacity:1" />
<path
id="path1165"
transform="scale(0.26458333)"
d="m 336.40625,527.85742 -39.97461,5.83985 -1.04687,32.63671 23.95312,4.79102 41.32227,-14.9707 z m -26.73242,8.70703 c 0.18298,-0.0107 0.32099,-0.0113 0.40039,0.002 0.63518,0.10582 -0.81129,0.85773 -0.63516,2.22265 0.21172,1.64086 0.21133,4.55189 0.21133,6.35156 0,1.48585 -0.21129,1.90507 -1.16406,2.22266 -0.95277,0.31748 -4.33528,0.90965 -5.7115,1.22724 -1.37622,0.31748 -1.38185,-0.27367 -1.48772,-1.43818 -0.10586,-1.16447 -0.32881,-5.22053 -0.28093,-7.23135 0.058,-2.43645 0.49297,-2.08387 2.29265,-2.40146 1.57472,-0.27779 5.09409,-0.87979 6.375,-0.95508 z m 18.57226,7.98633 c 0,0 24.55286,8.01061 21.5586,9.0586 -2.99427,1.04798 -17.81537,4.19212 -19.3125,4.34179 -1.49713,0.14971 -1.94531,-0.37587 -1.94531,-1.64844 0,-1.27256 -0.0762,-4.26625 -0.30079,-11.75195 z m -19.69921,4.74805 c 0.92413,-0.005 1.10507,0.16508 1.21093,1.68945 0.083,1.19485 0.0517,5.28498 -0.0232,6.63242 -0.0749,1.3474 -0.20287,1.6775 -1.40059,1.97696 -1.19771,0.29933 -4.64011,0.89843 -5.38867,0.89843 -0.74857,0 -1.34702,0.37332 -1.42187,-1.72265 -0.0646,-1.80938 -0.2817,-3.81818 -0.26204,-6.47417 0.0128,-1.72818 0.33708,-1.53563 1.38508,-1.76021 1.04799,-0.2245 4.19034,-0.97272 5.4629,-1.19726 0.15904,-0.0281 0.30547,-0.0422 0.4375,-0.043 z"
style="fill:#0f1217;fill-opacity:1;stroke:none;stroke-width:0.99999994px;stroke-linecap:butt;stroke-linejoin:miter;stroke-opacity:1" />
<path
id="path1163"
d="m 79.099327,140.87406 c 0.05602,3.58524 0.168058,9.13115 0.11204,9.29921 -0.05602,0.16806 -11.932123,-2.40883 -11.932123,-2.40883 L 66.83109,136.9527 Z"
style="fill:#312e2a;fill-opacity:1;stroke:none;stroke-width:0.26458332px;stroke-linecap:butt;stroke-linejoin:miter;stroke-opacity:1" />
<path
id="path1161"
d="m 50.544483,139.66246 0.316894,5.0703 c 0,0 16.795348,-0.15845 16.87457,-3.80272 0.07922,-3.64428 -0.07922,-5.86253 -0.07922,-5.86253 z"
style="fill:#9c9a91;fill-opacity:1;stroke:none;stroke-width:0.26458332px;stroke-linecap:butt;stroke-linejoin:miter;stroke-opacity:1" />
<path
id="path1159"
d="m 7.8431098,152.41742 14.8147622,-3.24816 14.260199,-2.85204 17.904473,-3.64427 13.309521,-2.61437 0.23767,5.22874 -60.5266252,11.80427 z"
style="fill:#b9b9b9;fill-opacity:1;stroke:none;stroke-width:0.26458332px;stroke-linecap:butt;stroke-linejoin:miter;stroke-opacity:1" />
<path
id="path1157"
d="m 8.0807797,157.09159 9.3483533,-1.90135 9.506799,-1.98059 21.390301,-4.19883 -0.554564,8.39767 -39.0571027,8.87301 z"
style="fill:#4a7488;fill-opacity:1;stroke:none;stroke-width:0.26458332px;stroke-linecap:butt;stroke-linejoin:miter;stroke-opacity:1" />
<path
id="path1118"
d="m 12.438063,172.93626 28.5204,-7.92233 68.528177,-13.07185 3.80272,5.14951 -90.710711,24.00467 z"
style="fill:#21201f;fill-opacity:1;stroke:none;stroke-width:0.26458332px;stroke-linecap:butt;stroke-linejoin:miter;stroke-opacity:1" />
<path
id="path1116"
d="m 12.660374,174.20557 c 10.755716,-3.1931 24.872594,-7.00242 26.553175,-7.45057 1.68058,-0.44816 1.708589,-0.2801 1.736598,0.19607 0.02801,0.47616 0.08403,0.61621 0.588203,0.67223 0.504174,0.056 5.517906,0.16806 6.386208,0.19607 0.868299,0.028 10.727706,-2.18476 10.727706,-2.18476 l 53.106346,-13.50066 c 0,0 -12.100179,-6.49825 -16.581729,-5.43388 -4.481547,1.06437 -60.837018,14.45299 -63.413906,15.0692 -2.576891,0.61622 -24.0883236,5.54592 -25.4888073,5.82602 -1.400484,0.28009 4.3695093,7.89873 6.3862063,6.61028 z"
style="fill:#534c41;fill-opacity:1;stroke:none;stroke-width:0.26458332px;stroke-linecap:butt;stroke-linejoin:miter;stroke-opacity:1" />
<path
id="path1120"
d="m 72.093229,163.11257 c 4.278061,-1.0299 9.348354,-2.3767 10.219812,-2.61437 0.871455,-0.23767 -0.71301,-4.27806 -0.71301,-4.27806 l -10.853597,-0.87146 z"
style="fill:#1b1b1b;fill-opacity:1;stroke:none;stroke-width:0.26458332px;stroke-linecap:butt;stroke-linejoin:miter;stroke-opacity:1" />
<path
id="path1114"
d="m 51.099047,159.8248 c 4.872236,-1.14874 16.834959,-3.76311 17.904473,-4.00078 1.069515,-0.23767 3.050098,-1.14874 3.248158,0.0792 0.198056,1.22796 0.316894,6.10019 0.27728,6.57553 -0.03961,0.47534 -0.07922,0.47534 -0.554564,0.63379 -0.47534,0.15845 -20.320783,5.1099 -21.311073,5.22874 -0.990293,0.11883 0.435726,-8.51651 0.435726,-8.51651 z"
style="fill:#34332e;fill-opacity:1;stroke:none;stroke-width:0.26458332px;stroke-linecap:butt;stroke-linejoin:miter;stroke-opacity:1" />
<path
id="path1098"
transform="scale(0.26458333)"
d="m 257.62695,527.32227 c -0.41872,-0.0257 -0.90537,0.0111 -1.46679,0.0859 -2.2457,0.29934 -231.607582,47.90895 -232.505863,48.50782 -0.89828,0.59882 9.318359,55.11132 9.318359,55.11132 0,0 214.762824,-49.28156 221.050784,-51.07812 6.28797,-1.7966 6.47851,-8.22503 6.47851,-14.36328 0,-6.13826 -0.45058,-33.08577 -0.75,-35.63086 -0.22459,-1.90885 -0.86881,-2.55562 -2.125,-2.63281 z m -4.08984,4.02539 c 1.08776,0.0562 1.64847,0.7016 1.87305,2.94726 0.29941,2.99429 0.15039,5.09075 0.15039,6.58789 0,1.49711 8.8e-4,2.09713 -2.39453,2.84571 -2.39542,0.74857 -15.72059,3.89136 -18.71485,4.49023 -2.99427,0.59887 -4.6413,0.749 -4.79101,-1.19727 -0.17719,-2.94444 -0.18397,-5.58413 -0.28125,-7.89062 0,-2.24572 0.59865,-2.99488 2.54492,-3.59375 1.94628,-0.59887 18.39747,-3.78649 20.34375,-4.08594 0.48657,-0.0748 0.90694,-0.12224 1.26953,-0.10351 z m -28.23438,5.67773 c 1.27023,0.10524 1.54982,0.86346 1.66211,2.21094 0.14971,1.79656 0.15039,6.73723 0.15039,8.23437 0,1.49715 -0.59924,2.24492 -2.24609,2.84375 -1.64685,0.59887 -15.71942,3.74428 -17.36627,4.04373 -1.64685,0.29934 -3.7431,0.29807 -3.7431,0.29807 0.1497,-11.82735 -0.37458,-12.87519 1.5717,-13.62373 1.94627,-0.74857 15.64556,-3.44277 18.34041,-3.8919 0.6737,-0.11227 1.20745,-0.15031 1.63085,-0.11523 z m -25.93964,5.41542 c 0.82411,0.008 1.06821,0.4646 1.19921,1.57812 0.29942,2.54514 0.20391,10.93777 -0.0955,12.58459 -0.29942,1.64685 -14.43592,-6.35991 -8.29767,-12.64787 3.95804,-1.01058 6.13438,-1.52571 7.19396,-1.51484 z m -23.22081,4.64106 c 4.65179,-1.21826 5.09272,-1.22528 5.20498,-0.43931 0.14971,1.04796 0.85391,9.81057 0.85391,9.81056 h -19.61328 c 0,0 -5.20717,-5.90861 -3.05548,-6.41173 12.69555,-2.96855 13.4921,-2.85924 13.64181,-0.1644 0.14971,2.69484 3.02843,5.4818 2.43906,2.0859 -0.64731,-3.72978 -1.10903,-4.45203 0.529,-4.88102 z m -64.45478,12.8068 c 2.45879,0.55762 -14.822266,20.36914 -14.822266,20.36914 0,0 -6.288465,3.29318 -6.58789,0.74805 -0.299414,-2.5451 -0.59961,-9.73045 -0.59961,-13.17383 0,-2.54513 0.300483,-3.7442 2.396485,-4.19336 2.095986,-0.44912 15.419951,-2.99361 19.312501,-3.74219 0.12164,-0.0234 0.22146,-0.0258 0.30078,-0.008 z m 60.64453,3.97071 c 0.85851,0.005 1.40952,0.1169 1.48438,0.3789 0.29943,1.04799 0.44921,8.23528 0.44921,9.73242 0,1.49715 0.15128,3.14332 -2.24414,3.74219 -2.39541,0.59887 -17.96658,4.04116 -20.51171,4.49023 -2.54512,0.44916 -2.84444,10e-4 -2.99415,-2.69335 -0.29938,-3.89254 -0.44921,-7.03743 -0.44921,-8.83399 0,-1.79656 1.04862,-2.24488 3.59375,-2.84375 2.54511,-0.59883 4.64013,-1.19811 9.28125,-2.24609 3.48083,-0.78608 8.81508,-1.74062 11.39062,-1.72656 z m -87.720702,1.62695 c 1.948613,-0.0798 2.521485,0.88534 2.521484,2.19531 v 10.18164 c 2e-6,2.54514 -0.298702,2.5444 -3.292968,3.29297 -2.99427,0.74854 -39.523768,8.23342 -52.548828,10.17969 1e-6,0 -3.14458,-13.32311 0.298828,-14.3711 3.443406,-1.04798 49.404768,-10.92974 52.099609,-11.3789 0.336855,-0.0561 0.643502,-0.0882 0.921875,-0.0996 z m 59.412112,10.42969 c 0,0 0.60029,2.8448 0.75,5.24023 0.14971,2.39539 -0.2999,2.69414 -2.69532,3.29297 -2.39534,0.59886 -47.009478,10.63035 -49.105464,10.92969 -2.095986,0.29945 -2.695312,-0.30036 -2.695312,-1.49805 0,-1.19773 -0.150391,-4.94055 -0.150391,-7.33594 0,-2.39542 0.300294,-2.84391 4.941406,-3.74219 z m 29.20703,4.5625 c 0.85851,0.005 1.40952,0.11691 1.48437,0.3789 0.29944,1.04799 0.44922,8.23332 0.44922,9.73047 0,1.49715 0.15127,3.14332 -2.24414,3.74219 -2.39542,0.59886 -17.96659,4.04306 -20.51172,4.49219 -2.54512,0.44915 -2.84443,-4.8e-4 -2.99414,-2.69532 -0.29943,-3.89253 -0.44922,-7.03547 -0.44922,-8.83203 0,-1.79656 1.04862,-2.24684 3.59375,-2.8457 2.54512,-0.59883 4.64013,-1.19811 9.28125,-2.2461 3.48084,-0.78602 8.81509,-1.73866 11.39063,-1.7246 z m -87.82422,4.18164 c 1.417598,-0.014 1.614283,0.68786 1.726562,2.48437 0.149708,2.39543 0.150391,5.09084 0.150391,7.03711 0,1.94627 -0.898988,2.84449 -4.042969,3.44336 -3.143981,0.59883 -47.009119,10.17916 -50.751953,10.92773 -3.742835,0.74858 0.748047,-13.82496 0.748047,-13.82496 11.480963,-2.158 47.160707,-9.2305 50.304688,-9.82933 0.785995,-0.14972 1.392701,-0.23361 1.865234,-0.23828 z m 58.47266,2.10351 c 1.05267,0.0632 1.64257,0.56755 1.64257,1.57813 0,1.3474 0.15039,4.64172 0.1504,7.03711 -10e-6,2.39542 0.14871,3.29371 -1.94727,3.89257 -2.09599,0.59883 -47.308987,11.67784 -49.554688,12.12696 -2.245701,0.44916 -2.845117,-0.44885 -3.144531,-2.09571 -0.299433,-1.64685 -0.449219,-5.39025 -0.449219,-7.03711 0,-1.64679 -0.298278,-2.24558 2.845703,-2.54492 0,0 47.459295,-12.57566 49.255855,-12.875 0.44914,-0.0748 0.85029,-0.10308 1.20118,-0.082 z m -57.273441,13.25977 c 1.417598,-0.0696 1.612323,0.6259 1.724609,2.41797 0.149707,2.38956 0.150391,5.08303 0.150391,7.02929 0,1.94627 -0.898988,2.8814 -4.042969,3.60352 -3.143981,0.72208 -47.307947,10.97384 -51.050781,11.86914 -3.742835,0.89529 1.046875,-13.65234 1.046875,-13.65234 13.174775,-2.46274 47.160706,-10.233 50.304687,-10.95508 0.785996,-0.18053 1.394655,-0.28931 1.867188,-0.3125 z"
style="fill:#0f1217;fill-opacity:1;stroke:none;stroke-width:0.99999994px;stroke-linecap:butt;stroke-linejoin:miter;stroke-opacity:1" />
<path
id="path1090"
transform="scale(0.26458333)"
d="m 26.042969,575.62891 c -4.234536,0 -4.526651,0.63647 -4.447266,5.08203 0.132363,7.41229 0.212891,39.38099 0.212891,46.15625 0,6.77525 -0.212891,16.72656 -0.212891,16.72656 l 33.664063,29.64258 58.861324,5.08008 4.02149,-28.58203 c 0.15416,-0.60572 -1.78417,-0.0956 -1.79883,0.52929 l -3.81055,24.13672 -32.076169,-2.33008 c 0,0 -30.595821,-23.07738 -27.419922,-22.23047 3.1759,0.84692 52.191641,5.82351 56.320311,6.03516 4.12867,0.21173 3.70518,-4.3418 1.0586,-4.3418 -2.64658,0 -45.310829,-3.91725 -48.380864,-4.1289 -3.070038,-0.21173 -23.923828,-1.90505 -23.923828,-3.28125 0,-1.37624 -3.96e-4,-7.72769 0.105469,-9.52735 0.105864,-1.79969 0.63504,-2.75231 3.705078,-2.64648 3.070038,0.10586 47.426766,3.91689 52.402344,4.23437 4.975578,0.3176 8.150551,-4.12978 3.916015,-4.44726 -4.234533,-0.31756 -56.00071,-4.86843 -57.90625,-5.08008 -1.905539,-0.21173 -2.541015,-0.84645 -2.541015,-2.22266 0,-1.37624 -0.105865,-5.82338 0,-7.62304 0.105862,-1.79966 -0.105213,-2.53978 3.49414,-2.32813 3.599354,0.21173 47.42718,3.81019 51.767579,3.91602 4.340397,0.10586 6.668504,-3.70508 2.857421,-3.70508 -3.811079,0 -53.989365,-3.91797 -56.318359,-3.91797 -2.328993,0 -3.070708,-0.52923 -2.964844,-2.64648 -0.105867,-2.96417 -7.88e-4,-6.13899 0.210938,-7.6211 0.211727,-1.4821 0.847161,-2.11719 3.599609,-2.11719 2.752445,10e-6 49.120129,2.43484 54.095703,2.64649 4.347055,0.18498 10.263144,-3.64809 11.761724,-4.66602 -2.74992,-9.92005 -5.44596,-17.28547 -7.419927,-17.35351 -6.140073,-0.21173 -68.599451,-3.38867 -72.833984,-3.38867 z m 9.527343,3.07031 c 1.799678,0 56.635832,3.49295 59.494141,3.81055 2.858309,0.31748 4.129831,15.66836 0.212891,15.5625 -3.916944,-0.10583 -54.202985,-2.96366 -57.908203,-3.28125 -3.705218,-0.31748 -4.234375,-1.05812 -4.234375,-2.75196 0,-1.69379 -3.91e-4,-8.25889 0.105468,-11.11718 0,-2.43485 0.530403,-2.22266 2.330078,-2.22266 z"
style="fill:#12366e;fill-opacity:1;stroke:none;stroke-width:0.99999994px;stroke-linecap:butt;stroke-linejoin:miter;stroke-opacity:1" />
<path
id="path1080"
d="m 15.308036,173.07105 c 0.09449,-4.29947 -0.141741,-25.04092 -0.141741,-26.03311 0,-0.99218 4.535714,-2.92931 4.582961,-0.56696 0.04725,2.36235 0.04725,29.57664 0,30.89955 -0.04725,1.32292 -4.44122,-4.29948 -4.44122,-4.29948 z"
style="fill:#171836;fill-opacity:1;stroke:none;stroke-width:0.26458332px;stroke-linecap:butt;stroke-linejoin:miter;stroke-opacity:1" />
<path
id="path1049"
transform="scale(0.26458333)"
d="m 356.07227,600.01953 -0.26758,4.70313 c 9.46486,0.9482 80.60951,6.53616 84.36914,6.91211 3.78807,0.37882 3.53643,0.75715 3.41015,3.15625 -0.12623,2.39913 -0.3789,9.21856 -0.3789,10.98632 0,1.76776 -0.38008,2.39972 -2.40039,2.27344 -2.02031,-0.12623 -81.57013,-7.19794 -85.86328,-7.32422 -0.016,-4.7e-4 -0.0292,-0.005 -0.0449,-0.006 l -0.18164,3.21485 c 10.52974,0.94867 44.30879,4.15943 47.32618,5.125 3.15673,1.01015 4.29225,14.26876 -3.41016,13.76367 -7.3456,-0.48166 -37.61375,-2.44235 -44.80859,-3.17188 l -0.1875,3.30664 c 13.15664,1.15025 42.59949,4.67199 46.25976,4.91602 3.78807,0.25247 5.80826,13.50909 -0.37891,13.38281 -5.56642,-0.11356 -37.4814,-3.67874 -46.63281,-5.04101 l -0.20898,3.65625 c 13.32605,1.73181 47.54426,5.61337 50.6289,6.5625 3.28298,1.01011 4.04214,14.26932 -4.03906,13.51172 -7.35393,-0.68947 -38.92242,-2.97073 -47.51953,-3.67579 L 351.5,680.56836 c 13.91014,1.8887 16.69628,3.24473 13.66992,5.06055 -1.79199,1.07519 -9.43901,2.55365 -14.05664,1.74023 l -0.2207,3.90039 63.92969,-7.14258 9.16211,-1.72656 c -0.74933,-0.0578 -2.25875,-0.16375 -2.63672,-0.19727 -2.65524,-0.23556 -2.78321,-0.58746 -2.78321,-2.94335 -0.12623,-2.82705 -0.125,-7.18611 -0.125,-8.59961 0,-1.41355 0.63116,-2.35707 2.6543,-2.47461 2.02314,-0.11781 17.0711,1.41492 19.2207,1.65039 2.14976,0.23558 2.02344,1.52994 2.02344,3.29687 0,1.26576 -0.17902,3.80202 -0.33594,5.87305 l 9.78321,-1.84375 c 0,0 3.75111,-67.67829 -1.07032,-68.39258 -4.82143,-0.71429 -58.39258,-5.35712 -94.64257,-8.75 z m 65.54101,30.05078 c 2.02031,-0.12627 17.04482,1.51511 19.19141,1.76758 2.14654,0.25251 2.02148,1.64112 2.02148,3.53516 0,1.89403 -0.37962,7.0714 -0.50586,8.71289 -0.12623,1.64148 -0.63135,2.52466 -2.52539,2.39844 -1.89403,-0.12628 -15.27804,-1.1362 -17.92969,-1.38868 -2.65171,-0.25254 -2.77734,-0.63088 -2.77734,-3.15625 -0.12624,-3.03046 -0.12695,-7.70158 -0.12695,-9.21679 0,-1.51525 0.63203,-2.52611 2.65234,-2.65235 z m -0.51953,18.29102 c 2.02314,-0.11781 17.0711,1.41492 19.2207,1.65039 2.14976,0.23558 2.02344,1.52994 2.02344,3.29687 0,1.76693 -0.37962,6.5976 -0.50586,8.12891 -0.12642,1.53131 -0.63262,2.3562 -2.5293,2.23828 -1.89671,-0.11781 -15.29969,-1.06141 -17.95507,-1.29687 -2.65524,-0.23558 -2.78321,-0.58747 -2.78321,-2.94336 -0.12623,-2.82705 -0.125,-7.18611 -0.125,-8.59961 0,-1.41355 0.63116,-2.35707 2.6543,-2.47461 z"
style="fill:#11284e;fill-opacity:1;stroke:none;stroke-width:0.99999994px;stroke-linecap:butt;stroke-linejoin:miter;stroke-opacity:1" />
<path
id="path1047"
transform="scale(0.26458333)"
d="m 449.76953,601.28125 -19.2207,5.52344 c 10.24746,0.94177 18.53333,1.72296 20.16601,1.96484 0.88461,0.13105 1.47776,2.53007 1.86133,6.33789 3.6134,-1.10054 9.70948,-2.97252 10.57813,-3.2207 7.07104,-2.02031 -13.38477,-10.60547 -13.38477,-10.60547 z m -30.17969,8.67383 -43.45312,12.49023 c 14.87851,1.26943 27.04587,2.32485 40.94922,3.54102 9.73125,-2.99313 18.95111,-5.82689 26.37109,-8.10156 0.045,-1.10549 0.0929,-2.44614 0.12695,-3.09375 0.12628,-2.3991 0.37792,-2.77743 -3.41015,-3.15625 -1.19236,-0.11924 -9.95321,-0.82625 -20.58399,-1.67969 z m -52.63086,15.12695 -256.34765,73.67774 c 0,0 -14.393713,15.65765 -3.78711,20.96093 25.25382,-6.56598 213.64654,-64.14357 226.27344,-67.93164 3.32039,-0.99612 13.67417,-4.17361 26.85546,-8.22656 -2.32968,-0.23468 -4.49986,-0.44453 -6.31835,-0.60352 l 0.1875,-3.30664 c 2.6146,0.26511 8.55529,0.70385 15.05664,1.16407 11.01797,-3.38969 22.22693,-6.83863 34.39062,-10.58203 -0.35436,-0.59236 -0.76586,-1.02579 -1.22851,-1.17383 -2.2214,-0.71085 -21.0667,-2.63239 -35.08204,-3.97852 z"
style="fill:#262a32;fill-opacity:1;stroke:none;stroke-width:0.99999994px;stroke-linecap:butt;stroke-linejoin:miter;stroke-opacity:1" />
<path
id="path1037"
transform="scale(0.26458333)"
d="m 428.86719,586.74609 c -0.72539,-0.0142 -1.53544,0.11468 -2.43946,0.41602 -2.55208,0.8507 -23.40778,6.6041 -52.33984,14.50977 14.27114,1.30357 28.93071,2.62776 42.03516,3.8125 L 435,600.37695 c 0,0 0.87931,-13.49335 -6.13281,-13.63086 z m -67.72071,18.45508 c -82.18307,22.41581 -214.43193,58.14537 -229.53906,62.14063 l -0.17969,15.17773 223.39258,-60.44726 0.0762,-1.35157 c 0.0157,9.1e-4 0.029,0.005 0.0449,0.006 0.42575,0.0125 2.08281,0.13785 3.83984,0.27344 l 45.39453,-12.2832 c -16.5497,-1.32872 -33.87978,-2.72648 -43.0293,-3.51563 z"
style="fill:#2b2c2f;fill-opacity:1;stroke:none;stroke-width:0.99999994px;stroke-linecap:butt;stroke-linejoin:miter;stroke-opacity:1" />
<path
id="path1029"
d="m 94.613411,181.80683 c 0.133636,-4.27631 -0.06682,-30.40191 -0.06682,-31.33735 0,-0.93544 -0.359653,-1.21092 -1.800685,-1.23455 -1.441035,-0.0236 -0.472472,5.19717 -0.472472,5.19717 l 0.779577,28.04111 z"
style="fill:#181a1d;fill-opacity:1;stroke:none;stroke-width:0.26458332px;stroke-linecap:butt;stroke-linejoin:miter;stroke-opacity:1" />
<path
id="path1004"
d="m 28.773437,169.81101 c 0,3.35454 -0.04725,8.55171 -0.04725,9.26042 0,0.7087 6.142112,0.42522 6.142112,0.42522 l -0.944938,-11.57552 z"
style="fill:#143b76;fill-opacity:1;stroke:none;stroke-width:0.26458332px;stroke-linecap:butt;stroke-linejoin:miter;stroke-opacity:1" />
<path
id="path1002"
transform="scale(0.26458333)"
d="m 101.64648,576.6582 c -2.904181,0 -3.535152,-0.12689 -3.535152,2.39844 0,0.27657 0.171783,3.43474 0.25,5.02148 l -0.300781,-0.008 c 0.04088,9.14052 0.344612,55.94276 0.511719,58.44922 0.178571,2.67855 1.426898,3.57087 4.105464,3.03516 2.67857,-0.53575 14.82199,-3.74945 18.21485,-4.28516 3.39285,-0.53571 5.35742,-0.89259 5.35742,2.85742 0,3.75001 0.71484,22.67801 0.71484,31.78516 0,0 6.24916,7.14369 6.42774,2.32227 0.1785,-4.81944 -1.78354,-94.90358 -1.78516,-99.08008 -16.57291,-1.42044 -29.29232,-2.4961 -29.96094,-2.4961 z"
style="fill:#0c1938;fill-opacity:1;stroke:none;stroke-width:0.99999994px;stroke-linecap:butt;stroke-linejoin:miter;stroke-opacity:1" />
<path
id="path1104"
d="m 47.682743,167.25917 c 0.03058,1.00835 0.152887,1.09238 0.611551,1.12039 0.458664,0.028 2.140436,0.056 2.660253,0.028 0.519822,-0.028 0.580977,-0.39214 0.580977,-0.8683 0,-0.47616 0.06116,-27.08863 0,-27.81689 -0.06115,-0.72824 -3.975094,-1.40048 -3.975094,0 0,1.40049 0.122313,27.53679 0.122313,27.53679 z"
style="fill:#16161e;fill-opacity:1;stroke:none;stroke-width:0.27644598px;stroke-linecap:butt;stroke-linejoin:miter;stroke-opacity:1" />
<path
id="path1027"
d="m 28.831701,150.23562 c 0.03341,-5.41221 0.133633,-5.34539 0.133633,-5.84652 0,-0.50113 0.200454,-0.0334 1.00226,0 0.80181,0.0334 9.354434,0.66817 11.826677,0.80181 2.472245,0.13363 49.478271,3.87541 50.28008,3.94222 0.801809,0.0668 1.102487,0.16705 1.102487,0.90204 0,0.73499 0.100226,31.63803 0.100226,32.54006 0,0.90204 -5.412208,6.31424 -5.412208,3.34087 0,-2.97337 -0.03341,-11.39236 0,-12.22758 0.03341,-0.83522 -1.135896,-19.21 -1.135896,-19.21 z"
style="fill:#122d5f;fill-opacity:1;stroke:none;stroke-width:0.26458332px;stroke-linecap:butt;stroke-linejoin:miter;stroke-opacity:1" />
<path
id="path996"
d="m 7.2496859,167.20723 c 0.033409,1.30294 0.066817,2.33861 0.033409,2.87315 -0.033409,0.53454 -8.01808579,-0.7684 -6.78196425,-1.23612 1.23612155,-0.46772 6.74855555,-1.63703 6.74855525,-1.63703 z"
style="fill:#6f6f70;fill-opacity:1;stroke:none;stroke-width:0.26458332px;stroke-linecap:butt;stroke-linejoin:miter;stroke-opacity:1" />
<path
id="path994"
transform="scale(0.26458333)"
d="m 24.976562,631.41992 c -0.285338,-0.004 -0.575269,0.008 -0.859374,0.0391 -2.272844,0.25255 -20.4551869,4.79904 -23.3593755,5.55664 -2.9041886,0.75761 -3.2832031,1.7673 -3.2832031,5.68165 0,3.91434 -0.1255851,39.64854 0.1269531,42.55273 0.2525381,2.90419 1.136143,5.4304 3.9140625,5.55664 2.7779196,0.12627 22.221991,1.26244 27.146484,1.38867 4.924493,0.12628 7.829701,1.51378 11.365235,4.41797 3.468986,2.84953 29.573787,24.09549 39.146484,31.21875 13.033478,-3.8476 23.615652,-6.95057 29.263672,-8.55078 -0.012,-1.37278 -0.014,-2.92431 0.0273,-4.99023 C 98.74213,715.04862 49.75,670.85547 49.75,670.85547 l -43.1835938,-2.9668 -1.34375,-27.42187 c 10e-8,0 -2.0075336,-1.92047 -1.3378906,-2.32227 0.6696427,-0.40176 20.3587004,-4.91682 22.7578124,-5.42187 2.099224,-0.44196 0.331354,-1.27163 -1.666016,-1.30274 z"
style="fill:#c9c4bc;fill-opacity:1;stroke:none;stroke-width:0.99999994px;stroke-linecap:butt;stroke-linejoin:miter;stroke-opacity:1" />
<path
id="path973"
d="m 105.17187,150.9122 c 0,7.65402 0.0945,27.78125 0.0945,30.1436 0,2.36235 4.15774,2.07887 4.25223,-1.88988 0.0945,-3.96875 0.0945,-25.13542 0.0945,-27.97024 0,-2.83482 -4.44122,-0.28348 -4.44122,-0.28348 z"
style="fill:#1a1c33;fill-opacity:1;stroke:none;stroke-width:0.26458332px;stroke-linecap:butt;stroke-linejoin:miter;stroke-opacity:1" />
<path
id="path957"
d="m 82.185379,196.03893 c 0,-2.53906 0.133633,-7.01582 0.200451,-7.98467 0.06682,-0.96886 0.300678,-1.00226 0.801809,-1.00226 0.501132,0 1.102487,0 1.57021,0 0.46772,0 1.069078,-0.3675 1.670434,-0.7684 0.601355,-0.40091 10.557147,-6.74856 11.258729,-7.18287 0.701583,-0.43432 1.670434,-0.73499 2.505648,-0.70159 0.83522,0.0334 13.19644,1.16931 14.1987,1.16931 1.00226,0 -0.7684,9.72193 -0.7684,9.72193 l -13.730976,-0.96885 -13.530519,7.78422 z"
style="fill:#6a6a6a;fill-opacity:1;stroke:none;stroke-width:0.26458332px;stroke-linecap:butt;stroke-linejoin:miter;stroke-opacity:1" />
<path
style="fill:#0c1938;fill-opacity:1;stroke:none;stroke-width:0.99999994px;stroke-linecap:butt;stroke-linejoin:miter;stroke-opacity:1"
d="m 101.64648,576.6582 c -2.904181,0 -3.482399,-0.24946 -3.535152,2.39844 -0.03097,1.55437 -0.03529,3.96279 -0.05078,5.01367 -0.134734,9.13962 0.344612,55.94276 0.511719,58.44922 0.178571,2.67855 1.426898,3.57087 4.105463,3.03516 2.67857,-0.53575 14.82199,-3.74945 18.21485,-4.28516 3.39285,-0.53571 5.35742,-0.89259 5.35742,2.85742 0,3.75001 0.71484,22.67801 0.71484,31.78516 0,0 6.24916,7.14369 6.42774,2.32227 0.1785,-4.81944 -1.78354,-94.90358 -1.78516,-99.08008 -16.57291,-1.42044 -29.29232,-2.4961 -29.96094,-2.4961 z"
transform="scale(0.26458333)"
id="path1014" />
<path
id="path1000"
transform="scale(0.26458333)"
d="m 447.49219,593.18359 c -0.16719,-0.004 -0.33427,-1.6e-4 -0.5,0.0156 -1.01383,0.0965 -13.83737,3.54285 -32.73438,8.7168 -0.001,1.32754 -0.003,2.34932 -0.004,3.39843 10.5176,0.95005 19.6223,1.78093 26.24023,2.40821 3.97447,-1.12725 7.81299,-2.21447 8.51953,-2.40039 9.2966,-2.44645 3.66126,-12.00299 -1.52148,-12.13868 z m -54.64063,14.61914 c -10.91136,3.00727 -22.29842,6.15076 -35.22851,9.73438 0.007,1.35374 0.009,2.28991 0.0137,3.38281 4.48666,0.32808 15.62162,1.27456 28.32812,2.3711 3.69044,-1.05505 7.92272,-2.26664 11.66211,-3.33594 -0.0141,-3.98211 -0.0265,-7.8864 -0.0391,-11.76758 -1.66598,-0.13403 -3.08085,-0.25128 -4.73633,-0.38477 z m 21.40039,1.72461 c -0.001,1.69132 -0.002,3.16091 -0.006,5.67383 6.19303,-1.76898 10.64165,-3.03632 15.50977,-4.42383 -4.3426,-0.35151 -9.28495,-0.75114 -15.50391,-1.25 z m -56.60156,14.68164 c 0.008,2.13301 0.0174,4.23126 0.0293,7.17188 7.1489,-2.04708 12.6249,-3.61149 18.74414,-5.36133 -7.32044,-0.73244 -14.03283,-1.37524 -18.77344,-1.81055 z m -27.29687,0.89454 c -88.07882,24.46831 -193.8019,54.05222 -194.99219,54.27539 -2.02033,0.37882 -1.96427,-0.94018 -1.93555,-2.83399 0.0223,-1.46993 -0.18153,-1.38371 -3.76172,-0.80469 l -1.69726,2.36524 c 0,0 -3.33993,29.74733 -1.19336,29.62109 2.14658,-0.12627 5.42979,-0.25338 8.33398,-0.50586 2.90419,-0.25251 3.03125,-1.64239 3.03125,-3.41015 v -6.81836 c 0,-2.65164 1.26329,-3.02891 4.79883,-4.03907 2.08652,-0.59613 102.29205,-29.35532 188.24609,-53.98242 -0.24993,-4.28122 -0.5316,-8.94991 -0.83007,-13.86718 z"
style="fill:#585c61;fill-opacity:1;stroke:none;stroke-width:0.99999994px;stroke-linecap:butt;stroke-linejoin:miter;stroke-opacity:1" />
<path
id="path1264"
d="m -150.24391,289.26933 c 7.84271,-3.92137 54.674892,-24.98464 66.21488,-29.8023 11.539987,-4.81767 61.621288,-25.32075 79.5474816,-31.93103 17.9261934,-6.61029 86.6059204,-31.14676 88.6226194,-31.70696 2.016696,-0.56019 7.73067,1.68058 -2.352815,5.26582 -10.083483,3.58524 -55.571198,20.05493 -68.903805,24.8726 -13.33260584,4.81766 -54.674888,20.72716 -72.937199,28.34579 -18.262309,7.61863 -90.303202,40.44597 -93.552322,42.68675 -3.24912,2.24078 3.36116,-7.73067 3.36116,-7.73067 z"
style="fill:#d5d2cb;fill-opacity:1;stroke:none;stroke-width:0.26458332px;stroke-linecap:butt;stroke-linejoin:miter;stroke-opacity:1" />
<path
id="path955"
d="m 114.29055,194.99367 c -1.98437,-0.14174 -9.40216,-0.89769 -10.53609,-0.99218 -1.13393,-0.0945 -1.79538,0 -2.64583,0.47246 -0.85045,0.47248 -11.57552,6.47285 -12.142485,6.94532 -0.566965,0.47247 -1.27567,0.33073 -1.889882,0.33073 -0.614212,0 -4.204983,-0.23624 -4.913691,-0.33073 -0.708705,-0.0945 -0.755951,-0.18899 -0.803198,-0.8032 -0.04725,-0.61421 -0.04725,-4.016 0,-4.53572 0.04725,-0.51971 0.283482,-0.56696 0.850448,-0.61421 0.566962,-0.0472 1.937125,0.0472 2.598584,0.0472 0.661458,0 1.086683,-0.18899 1.700895,-0.56696 0.614209,-0.37798 10.819566,-6.47285 11.764507,-6.99256 0.944941,-0.51972 1.370163,-0.70871 2.126122,-0.66146 0.75595,0.0473 10.86681,1.08668 11.71726,1.18117 0.85044,0.0945 0.99218,-0.14174 0.99218,-0.8032 0,-0.66145 0.14175,-6.2366 0.0945,-6.89806 -0.0472,-0.66146 0.18899,-1.18118 1.46466,-1.46466 1.27567,-0.28348 -0.37798,15.68601 -0.37798,15.68601 z"
style="fill:#c9c4bc;fill-opacity:1;stroke:none;stroke-width:0.26458332px;stroke-linecap:butt;stroke-linejoin:miter;stroke-opacity:1" />
<path
id="path1254"
d="m 118.65674,212.20384 c 2.09942,-0.55456 2.39651,-0.55456 2.39651,-1.10912 0,-0.55457 -0.0396,-18.39224 -0.0396,-18.86758 0,-0.47534 -2.41632,0.43573 -2.45593,1.26758 0.0719,6.47971 0.003,13.07427 0.099,18.70912 z"
style="fill:#756b62;fill-opacity:1;stroke:none;stroke-width:0.26458332px;stroke-linecap:butt;stroke-linejoin:miter;stroke-opacity:1" />
<path
id="path1252"
d="m 115.90373,211.13433 c 0,0.75262 0.0792,0.79223 0.63379,0.87145 0.55456,0.0792 1.10912,0.15845 1.74291,0.19806 0.63379,0.0396 0.6734,-0.0396 0.6734,-0.71301 0,-0.6734 -0.079,-17.75534 -0.11856,-18.70602 -0.0396,-0.95068 -3.01077,-0.35961 -3.01077,1.58136 0,1.94097 0,15.42136 0.0792,16.76816 z"
style="fill:#595046;fill-opacity:1;stroke:none;stroke-width:0.26458332px;stroke-linecap:butt;stroke-linejoin:miter;stroke-opacity:1" />
<path
id="path1381"
d="m 212.16008,149.40693 c 5.46641,-1.82213 44.28584,-12.51728 51.9705,-14.41864 7.68466,-1.90136 33.11535,-8.31845 35.57127,-8.87302 2.45594,-0.55456 -0.47533,2.93127 -0.47533,2.93127 l -87.9379,24.40078 z"
style="fill:#6a6973;fill-opacity:1;stroke:none;stroke-width:0.26458332px;stroke-linecap:butt;stroke-linejoin:miter;stroke-opacity:1" />
<path
id="path1379"
d="m 211.47306,155.43909 c 4.25747,-1.34446 37.81306,-11.37193 43.91917,-13.16455 6.10611,-1.79262 42.40665,-11.48397 43.58307,-11.70804 1.17639,-0.22408 2.85697,-3.19311 -0.50419,-2.2968 -3.36116,0.89631 -16.30161,4.14544 -21.90356,5.65796 -5.60194,1.51252 -28.96201,7.67465 -33.77967,9.07513 -4.81766,1.40049 -31.87501,9.35523 -33.16346,9.69135 -1.28844,0.33612 1.84864,2.74495 1.84864,2.74495 z"
style="fill:#d5d2cb;fill-opacity:1;stroke:none;stroke-width:0.26458332px;stroke-linecap:butt;stroke-linejoin:miter;stroke-opacity:1" />
<path
id="path953"
d="m 120.13765,177.49711 c -3.04019,0.93544 -4.07586,1.23612 -5.0113,1.60362 -0.93544,0.36749 -1.10249,0.43431 -1.10249,1.36975 0,0.93545 0,13.16303 0.0334,13.8312 0.0334,0.66818 -0.10023,0.80181 0.83522,0.60136 0.93544,-0.20045 28.02989,-10.49033 29.49987,-11.02487 1.46998,-0.53454 2.33861,-0.4009 2.93997,0.33409 0.60135,0.73499 5.54584,6.5481 6.21401,7.41673 0.66818,0.86862 1.00226,0.73499 1.80407,0.4009 0.80181,-0.33409 1.06908,-0.46772 1.73725,-0.66817 0.66818,-0.20045 0.80181,0 1.40317,0.60135 0.60135,0.60136 10.87142,12.74732 11.5396,13.41549 0.66817,0.66817 0.93544,0.66817 1.87088,0.40091 0.93545,-0.26727 8.63926,-3.72697 9.5747,-4.12788 0.93544,-0.4009 0.93544,-0.73499 1.33634,-1.60361 0.40091,-0.86863 9.42126,-18.4416 10.28988,-20.17885 0.86863,-1.73725 1.5368,-2.60588 2.47225,-2.93997 0.93544,-0.33409 1.20271,-0.80181 1.87088,-2.20497 0.66818,-1.40317 3.87541,-7.88445 4.67722,-9.48807 0.80181,-1.60362 1.00226,-1.5368 0.93544,0.46772 -0.0668,2.00452 -0.66817,22.78473 -0.66817,23.85381 0,1.06908 0.0668,1.06908 0.93544,0.66817 0.86863,-0.4009 5.21176,-2.60588 5.81311,-2.87315 0.60136,-0.26727 0.73499,-0.26727 0.73499,-1.53679 0,-1.26954 0.40091,-24.45517 0.46772,-25.39061 0.0668,-0.93544 0.26728,-1.26953 0.93545,-1.40317 0.66817,-0.13363 0.93544,-0.20045 0.93544,-1.06907 0,-0.86863 0.33409,-9.55489 0.26727,-11.02487 -0.0668,-1.46998 -6.38205,2.15043 -6.38205,2.15043 z"
style="fill:#e3dacb;fill-opacity:1;stroke:none;stroke-width:0.26458332px;stroke-linecap:butt;stroke-linejoin:miter;stroke-opacity:1" />
<path
id="path951"
d="m 121.14137,177.79576 c -2.36235,0 -2.50409,0.18899 -2.50409,-0.70871 0,-0.89769 0.0945,-16.5837 0.0945,-17.57589 0,-0.99219 3.02381,2.12611 3.02381,2.12611 z"
style="fill:#0a306e;fill-opacity:1;stroke:none;stroke-width:0.26458332px;stroke-linecap:butt;stroke-linejoin:miter;stroke-opacity:1" />
<path
id="path947"
d="m -11.386533,152.99107 c 8.2682295,-1.46466 72.760417,-14.64658 76.256695,-15.26079 3.496281,-0.61421 -20.741443,-2.03162 -20.741443,-2.03162 L -5.1971725,146.1875 Z"
style="fill:#212428;fill-opacity:1;stroke:none;stroke-width:0.26458332px;stroke-linecap:butt;stroke-linejoin:miter;stroke-opacity:1" />
<path
id="path942"
d="m 6.3810599,142.65185 c -5.96828419,4.38088 -8.2519465,5.81311 -9.1539813,6.51469 -0.6967194,0.54189 0,0.3675 0.7684,0.26727 0.7683999,-0.10023 62.4742504,-11.86009 65.9487564,-12.66189 3.474503,-0.80181 -10.690784,-3.87541 -10.690784,-3.87541 l -42.629487,5.87993 z"
style="fill:#5f5f5f;fill-opacity:1;stroke:none;stroke-width:0.26458332px;stroke-linecap:butt;stroke-linejoin:miter;stroke-opacity:1" />
<path
id="path949"
d="m 212.89509,137.73028 c 0,3.49628 0.0945,8.22098 0.0709,8.90606 -0.0236,0.68509 -0.0236,0.73233 -0.75596,1.11031 -0.73232,0.37798 -88.93193,29.38297 -90.13464,29.81728 -1.20272,0.43431 -1.30294,0.46772 -1.30294,-0.46772 0,-0.93545 -0.0334,-15.40141 -0.0668,-16.00277 -0.0334,-0.60135 92.1895,-23.36316 92.1895,-23.36316 z"
style="fill:#385483;fill-opacity:1;stroke:none;stroke-width:0.26458332px;stroke-linecap:butt;stroke-linejoin:miter;stroke-opacity:1" />
<path
id="path940"
d="m 124.28033,163.83296 c -5.27857,-2.77292 -14.13188,-8.85331 -19.44386,-11.69305 -5.311982,-2.83974 -20.64657,-9.82215 -34.544585,-12.89575 -13.898015,-3.0736 -28.130119,-3.40769 -40.02361,-2.07134 -11.893495,1.33635 -31.7382574,9.55489 -35.8809349,12.22758 -4.1426778,2.6727 -4.5435821,2.87315 -5.1449381,3.27405 -0.601357,0.40091 -1.069078,0.26727 -2.539061,-0.20045 -1.469982,-0.46772 -6.214016,-2.27179 -6.949007,-2.63929 -0.734992,-0.36749 -0.701583,-0.60135 -0.100227,-1.03566 0.601357,-0.43432 13.2966594,-8.419 21.8492841,-11.75986 8.5526249,-3.34087 10.8517059,-4.43521 11.5131639,-4.64782 0.661458,-0.21262 8.929687,-1.2993 8.929687,-1.2993 l 18.119233,-1.96075 27.875743,2.26786 23.481773,8.22098 30.994049,16.01674 7.03981,5.90588 z"
style="fill:#1a1e3a;fill-opacity:1;stroke:none;stroke-width:0.26458332px;stroke-linecap:butt;stroke-linejoin:miter;stroke-opacity:1" />
<path
id="path938"
d="m 127.92188,161.26049 c -1.97112,0.86862 -2.63929,1.5368 -3.17383,1.97111 -0.53454,0.43431 -1.03567,0.86862 0.66817,0.60136 1.70385,-0.26727 48.0417,-14.13188 51.34916,-15.03391 3.30746,-0.90204 53.55413,-16.03618 55.89274,-16.77117 2.33861,-0.73499 2.58774,-1.21368 2.4207,-2.21594 -0.16705,-1.00226 -7.59904,1.88185 -7.59904,1.88185 L 129.158,159.89073 Z"
style="fill:#121528;fill-opacity:1;stroke:none;stroke-width:0.26458332px;stroke-linecap:butt;stroke-linejoin:miter;stroke-opacity:1" />
<path
id="path915"
d="m 125.21577,160.158 c 1.87089,1.40316 1.87089,1.26953 3.40769,0.93544 1.5368,-0.33409 40.55815,-11.1585 47.17307,-13.22984 6.61492,-2.07134 57.59658,-16.83798 58.66566,-17.37252 1.06908,-0.53454 0.65017,-0.93265 -0.46772,-1.80407 -1.28574,-1.00226 -19.84476,-10.75759 -23.11881,-12.2944 -3.27406,-1.5368 -13.96484,-4.47676 -21.84929,-6.5481 -7.88445,-2.07134 -21.64883,-2.93996 -25.45742,-2.73951 -3.80859,0.20045 -7.01583,0.13363 -11.22532,0.60135 -4.2095,0.46773 -34.47777,6.48129 -40.69179,7.61719 -6.21401,1.13589 -69.356438,11.5594 -72.697308,12.09394 -3.340867,0.53454 -20.713387,3.27405 -25.123334,4.67722 -4.4099473,1.40316 3.808591,0 8.285355,-0.73499 4.476765,-0.73499 23.386083,-2.6727 38.353176,0.20045 14.967095,2.87315 27.662396,7.34991 35.680483,10.89123 8.018088,3.54133 26.058778,15.368 29.065558,17.70661 z"
style="fill:#3f4d96;fill-opacity:1;stroke:none;stroke-width:0.26458332px;stroke-linecap:butt;stroke-linejoin:miter;stroke-opacity:1" />
<path
id="path936"
d="m 120.67219,151.53856 c 2.42587,1.66625 2.6727,1.9377 4.74403,1.40316 2.07134,-0.53454 96.68476,-25.92514 98.42201,-26.5265 1.73725,-0.60135 1.13589,-0.93544 -0.33409,-1.80407 -1.46998,-0.86862 -11.75986,-6.01356 -14.83346,-7.28309 -3.0736,-1.26953 -19.64431,-6.41447 -26.25923,-7.684 -6.61492,-1.26953 -18.50841,-1.60362 -20.71339,-1.60362 -2.20497,0 -5.0113,0.80181 -7.08264,1.1359 -2.07134,0.33408 -57.93067,10.62396 -63.476512,11.49259 -5.545844,0.86862 -31.805072,5.67947 -34.745038,6.1472 -2.939965,0.46772 -4.209497,0.86862 -1.737251,1.00226 2.472243,0.13363 26.259229,4.27631 37.484549,8.88671 11.225322,4.6104 24.327482,11.94618 28.531022,14.83346 z"
style="fill:#7a98cd;fill-opacity:1;stroke:none;stroke-width:0.26458332px;stroke-linecap:butt;stroke-linejoin:miter;stroke-opacity:1" />
<path
id="path959"
transform="scale(0.26458333)"
d="m 381.81709,678.71602 c -0.90821,0.0586 -1.37836,0.39285 -1.44531,1.53125 -0.0892,1.51786 -0.58801,18.91586 -0.49873,21.86231 0,1.87498 0.26938,2.05387 2.41211,2.23242 2.14284,0.17877 11.78515,1.16183 14.28515,1.42969 2.50001,0.26797 2.67831,0.0883 2.76758,-1.07227 0.0892,-1.16073 -0.12696,-20.43455 -0.21611,-22.30957 -0.0892,-1.87499 -0.53545,-2.14231 -2.14258,-2.41016 -1.60713,-0.26797 -12.50029,-1.16073 -14.10742,-1.25 -0.4018,-0.0223 -0.75195,-0.0332 -1.05469,-0.0137 z m -6.22529,0.84843 c -0.30078,-3.4e-4 -0.65705,0.0907 -1.06836,0.29102 -1.64522,0.80073 -11.76195,6.6272 -13.07813,7.54687 -1.31619,0.91964 -2.14017,1.80065 -2.30469,3.96485 -0.16452,2.16423 -0.32787,16.44933 -0.41015,19.40625 0,2.44165 0.57617,2.93388 1.97461,2.10937 1.39844,-0.82461 13.57273,-7.93561 14.80664,-8.60156 1.23392,-0.66599 1.64478,-1.32445 1.5625,-3.59961 -0.0822,-2.27516 -0.16406,-17.54368 -0.16406,-19.11328 0,-1.17725 -0.41606,-2.00281 -1.31836,-2.00391 z m 30.10029,1.74922 c -0.90821,0.0586 -1.37641,0.39481 -1.44336,1.53321 -0.0892,1.51786 -0.588,18.91586 -0.49873,21.86231 0,1.87498 0.26743,2.05387 2.41016,2.23242 2.14284,0.17877 11.7871,1.15988 14.28711,1.42773 2.5,0.26797 2.6783,0.0883 2.76757,-1.07226 0.0892,-1.16073 -0.12695,-20.43261 -0.21611,-22.30762 -0.0892,-1.87499 -0.53545,-2.14231 -2.14258,-2.41016 -1.60713,-0.26797 -12.50029,-1.16073 -14.10742,-1.25 -0.40179,-0.0223 -0.7539,-0.0352 -1.05664,-0.0156 z m -52.92647,10.35625 c -0.32644,0.0293 -0.71177,0.15876 -1.1582,0.4043 -1.78571,0.98215 -12.76869,7.94616 -14.19726,9.01758 -1.42859,1.07142 -2.32144,2.053 -2.5,4.28515 -0.17859,2.23215 -0.35605,16.87444 -0.44532,19.91016 0,2.50001 0.62473,2.94699 2.14258,1.96484 1.51786,-0.98214 14.73104,-9.46402 16.07031,-10.26757 1.3393,-0.80357 1.78655,-1.51843 1.69727,-3.83985 -0.0893,-2.32142 -0.17773,-17.9456 -0.17773,-19.55273 0,-1.20538 -0.45229,-2.00978 -1.43165,-1.92188 z m -22.32421,13.80469 c -0.37877,-0.011 -0.87751,0.2154 -1.51368,0.61719 -1.69643,1.07142 -4.28487,2.50001 -5.17773,3.125 -0.89286,0.62502 -1.60797,0.89257 -2.94727,0.89258 -1.33927,0 -3.83872,-10e-4 -4.91015,0.0879 -1.07143,0.0892 -1.78516,0.44754 -1.78516,1.42968 0,0.98215 -0.17858,17.49972 0,21.51758 -0.0893,2.23215 0.35744,2.41073 1.60742,2.5 1.25,0.0892 4.28544,0.0898 5.89258,0.0898 1.60715,0 4.0173,-1.33957 6.16016,-2.85743 2.14286,-1.51786 3.12612,-1.96483 3.30469,-4.46484 0.17858,-2.50001 0.44477,-18.03572 0.35546,-20.625 -0.0558,-1.6183 -0.35505,-2.29419 -0.98632,-2.3125 z"
style="fill:#5592ab;fill-opacity:1;stroke:none;stroke-width:0.99999994px;stroke-linecap:butt;stroke-linejoin:miter;stroke-opacity:1" />
<path
id="path998"
d="m 21.166666,177.46503 c 5.055432,0.28348 11.984207,1.18194 12.933873,1.28747 0.265766,0.0295 0.271671,-0.0413 0.289388,0.31893 0.03489,0.70942 0.0059,6.70907 -0.04134,7.32328 -0.04725,0.61422 -0.09449,0.85045 -1.039434,0.85045 -0.944941,0 -4.866444,-0.14174 -5.811385,-0.28348 -0.944941,-0.14174 -6.331101,-9.49665 -6.331101,-9.49665 z"
style="fill:#1b417d;fill-opacity:1;stroke:none;stroke-width:0.26458332px;stroke-linecap:butt;stroke-linejoin:miter;stroke-opacity:1" />
<path
id="path975"
d="m 0.73499117,169.71289 c 0,-0.86863 0.2004522,-0.90204 0.63476523,-0.93545 0.4343129,-0.0334 8.9535286,0.56795 10.0560156,0.70158 1.102487,0.13364 1.503391,0.30068 2.338608,1.10249 0.835218,0.80181 10.657373,9.12057 11.292138,9.78875 0.634765,0.66817 1.26953,0.83521 2.171565,0.83521 0.902036,0 1.403164,-0.0334 1.469982,0.56795 0.06682,0.60136 0,6.5147 0,7.01583 0,0.50113 -0.133635,0.63476 -0.668173,0.60135 -0.534541,-0.0334 -1.703844,-0.10022 -2.171565,-0.10022 -0.467722,0 -0.7684,-0.26727 -1.603618,-1.20272 -0.835217,-0.93544 -9.855563,-8.61944 -10.557146,-9.15398 -0.701582,-0.53454 -1.202713,-1.00226 -1.904295,-1.03566 -0.701583,-0.0334 -8.1183119,-0.50114 -9.4880684,-0.56795 -1.36975627,-0.0668 -1.53679971,-0.13364 -1.53679971,-0.70159 0,-0.56794 -0.0334087,-6.04697 -0.0334087,-6.91559 z"
style="fill:#6a6a6a;fill-opacity:1;stroke:none;stroke-width:0.26458332px;stroke-linecap:butt;stroke-linejoin:miter;stroke-opacity:1" />
<g
style="fill:#5592ab;fill-opacity:1;stroke:none"
id="g992">
<path
style="fill:#5592ab;fill-opacity:1;stroke:none;stroke-width:0.26274833px;stroke-linecap:butt;stroke-linejoin:miter;stroke-opacity:1"
d="m 2.0552455,170.53174 c 0,-0.60572 0.070871,-0.6989 0.4724703,-0.6989 0.4015998,0 2.6458331,0.0465 3.236421,0.13978 0.5905878,0.0932 0.6850819,0.23298 0.6850819,0.65232 0,0.41935 0.023625,4.84577 0,5.24182 -0.023625,0.39605 -0.047247,0.51253 -0.4015997,0.55912 -0.3543527,0.0465 -2.7167038,0 -3.2364211,0 -0.5197173,0 -0.6850819,-0.0465 -0.7323289,-0.44264 -0.047247,-0.39604 -0.047247,-4.6128 -0.023624,-5.4515 z"
id="path977" />
<path
id="path979"
d="m 7.4605678,171.00728 c 0,-0.59129 0.068345,-0.68225 0.4556295,-0.68225 0.387285,0 2.5515247,0.0454 3.1210607,0.13645 0.569537,0.091 0.660663,0.22743 0.660663,0.63678 0,0.40936 0.02279,4.73033 0,5.11695 -0.02278,0.38662 -0.04557,0.50032 -0.387285,0.5458 -0.341721,0.0454 -2.6198688,0 -3.1210611,0 -0.5011924,0 -0.6606627,-0.0454 -0.7062256,-0.43209 -0.045563,-0.38661 -0.045563,-4.50292 -0.022782,-5.32164 z"
style="fill:#5592ab;fill-opacity:1;stroke:none;stroke-width:0.25493136px;stroke-linecap:butt;stroke-linejoin:miter;stroke-opacity:1" />
<path
style="fill:#5592ab;fill-opacity:1;stroke:none;stroke-width:0.26458332px;stroke-linecap:butt;stroke-linejoin:miter;stroke-opacity:1"
d="m 12.473214,171.77176 c 0.01538,-0.92149 -0.02362,-0.87407 0.566964,-0.37798 0.590588,0.4961 2.976563,2.64584 3.378163,3.04744 0.401599,0.4016 0.425223,0.66146 0.448846,1.13393 0.02362,0.47247 0,3.54352 -0.02362,4.13411 -0.02362,0.59059 -0.118118,0.59059 -0.566965,0.21261 -0.448846,-0.37797 -2.882068,-2.48047 -3.283668,-2.85844 -0.401599,-0.37798 -0.54334,-0.4961 -0.54334,-0.85045 0,-0.35435 0.0094,-3.59006 0.02362,-4.44122 z"
id="path981" />
<path
id="path983"
d="m 17.250657,175.91444 c 0.01538,-0.92149 -0.02362,-0.87407 0.566964,-0.37798 0.590588,0.4961 2.976563,2.64584 3.378163,3.04744 0.401599,0.4016 0.425223,0.66146 0.448846,1.13393 0.02362,0.47247 0,3.54352 -0.02362,4.13411 -0.02362,0.59059 -0.118118,0.59059 -0.566965,0.21261 -0.448846,-0.37797 -2.882068,-2.48047 -3.283668,-2.85844 -0.401599,-0.37798 -0.54334,-0.4961 -0.54334,-0.85045 0,-0.35435 0.0094,-3.59006 0.02362,-4.44122 z"
style="fill:#5592ab;fill-opacity:1;stroke:none;stroke-width:0.26458332px;stroke-linecap:butt;stroke-linejoin:miter;stroke-opacity:1" />
<path
style="fill:#5592ab;fill-opacity:1;stroke:none;stroke-width:0.26458332px;stroke-linecap:butt;stroke-linejoin:miter;stroke-opacity:1"
d="m 22.46596,180.39434 c 0.04515,-0.89686 0.212611,-1.06306 0.685081,-0.51972 0.472471,0.54335 1.370164,1.2993 1.700893,1.6064 0.33073,0.30711 1.34654,0.33073 2.244233,0.37798 0.897694,0.0472 0.946475,0.23624 0.944941,0.59059 l -0.02362,5.45703 c -0.0016,0.37798 0,0.54334 -0.377976,0.51972 -0.377976,-0.0236 -1.335076,-0.0236 -1.642182,-0.0709 -0.307105,-0.0472 -0.73609,-0.43577 -1.145392,-0.77958 -0.590585,-0.49609 -1.81901,-1.79538 -2.102492,-2.12611 -0.283482,-0.33073 -0.265279,-0.52022 -0.283482,-0.85045 -0.07115,-1.29071 -0.06968,-2.82095 0,-4.20496 z"
id="path985" />
</g>
<path
id="path1025"
d="m 88.633257,153.34263 c -0.751698,-0.35079 -1.787367,-0.45102 -2.939966,-0.51784 -1.152599,-0.0668 -26.927405,-2.05463 -29.666916,-2.22168 -2.739515,-0.16704 -20.980659,-1.63702 -22.550866,-1.77066 -1.57021,-0.13363 -1.804069,-0.0334 -2.505652,0.13364 -0.701582,0.16704 -5.562548,1.95441 -5.796409,2.07134 -0.23386,0.11693 0.835218,0.51783 0.835218,0.51783 l 56.531885,4.95571 z"
style="fill:#152a59;fill-opacity:1;stroke:none;stroke-width:0.26458332px;stroke-linecap:butt;stroke-linejoin:miter;stroke-opacity:1" />
<path
id="path1023"
d="m 82.15197,155.78146 c 1.837479,-0.86862 5.245164,-2.20497 5.779704,-2.40542 0.534538,-0.20046 1.035669,-0.10023 1.069078,0.66817 0.03341,0.7684 0.100227,18.97613 0.100227,19.6109 0,0.63477 -0.06682,0.80181 -0.567949,1.00226 -0.501129,0.20045 -5.946746,1.73725 -6.414469,1.70384 -0.467722,-0.0334 -0.501131,-6.04697 -0.501131,-6.04697 z"
style="fill:#0d1b3e;fill-opacity:1;stroke:none;stroke-width:0.26458332px;stroke-linecap:butt;stroke-linejoin:miter;stroke-opacity:1" />
<path
id="path1006"
transform="scale(0.26458333)"
d="m 96.980469,570.56641 c -2.042008,0.071 -3.03711,0.56791 -3.03711,2.55664 0,2.65168 -0.757133,67.42704 -0.630859,69.82617 0.118481,2.25116 0.326621,2.50039 7.12109,2.62695 -1.149838,-0.31629 -1.743654,-1.29159 -1.861324,-3.05664 -0.167107,-2.50646 -0.646453,-49.3096 -0.511719,-58.44922 0.01549,-1.05088 0.01981,-3.4593 0.05078,-5.01367 0,-0.66029 0.0484,-1.13112 0.164063,-1.47852 0.318216,-1.05926 1.185128,-0.91992 3.37109,-0.91992 2.90419,0 198.36857,17.1726 201.14649,17.29883 2.77792,0.12628 3.02997,1.13674 3.15625,3.66211 0.12627,2.52537 0,64.52326 0,66.29102 0,1.76776 0.3796,2.65234 3.03125,2.65234 2.65164,0 2.77734,-0.25206 2.77734,-3.15625 0,-2.90419 0.12628,-68.18574 0,-71.46875 -0.12627,-3.28301 -0.75752,-3.78855 -4.67187,-4.41992 -3.91434,-0.63133 -204.05109,-16.79369 -207.712894,-16.91992 -0.915451,-0.0316 -1.711909,-0.0549 -2.392578,-0.0312 z"
style="fill:#143c7f;fill-opacity:1;stroke:none;stroke-width:0.99999994px;stroke-linecap:butt;stroke-linejoin:miter;stroke-opacity:1" />
<path
id="path1198"
transform="scale(0.26458333)"
d="m 722.26367,631.96484 c -0.80896,0.0202 -2.00995,0.30077 -3.66406,0.83008 -5.29319,1.6938 -100.35767,35.99367 -103.95703,37.6875 -3.59932,1.6938 -4.23492,2.11897 -0.42383,6.35352 2.71281,3.70751 8.73992,12.21644 14.92773,20.84961 22.43534,-9.18724 66.11263,-27.27165 79.35938,-32.70508 6.4934,-13.46889 13.32921,-27.64477 14.11719,-29.2207 1.31004,-2.62013 1.42034,-3.83928 -0.35938,-3.79493 z"
style="fill:#3d5177;fill-opacity:1;stroke:none;stroke-width:0.99999994px;stroke-linecap:butt;stroke-linejoin:miter;stroke-opacity:1" />
<path
id="path1202"
d="m 170.33016,187.75102 c 4.15923,-1.50524 26.26253,-10.2198 26.89632,-10.5367 0.63379,-0.31689 0.71301,-0.63379 -0.43573,-1.0299 -1.14874,-0.39612 -4.91184,-1.22796 -5.70408,-1.30719 -0.79223,-0.0792 -1.06951,0.0396 -1.90136,0.35651 -0.83184,0.31689 -25.4703,10.5367 -26.02486,10.69515 -0.55457,0.15845 7.16971,1.82213 7.16971,1.82213 z"
style="fill:#6f91c5;fill-opacity:1;stroke:none;stroke-width:0.26458332px;stroke-linecap:butt;stroke-linejoin:miter;stroke-opacity:1" />
<path
id="path1200"
d="m 162.88317,186.76073 c 0.0396,-0.95068 0.19805,-0.83184 0.87145,-0.79223 0.6734,0.0396 4.99107,0.83184 5.62486,1.10913 0.63379,0.27728 1.7033,0.75262 -0.15845,0.83184 -1.86174,0.0792 -4.83262,-0.0792 -5.54563,-0.0792 -0.71301,0 -0.83185,-0.0792 -0.79223,-1.06952 z"
style="fill:#374d6f;fill-opacity:1;stroke:none;stroke-width:0.26458332px;stroke-linecap:butt;stroke-linejoin:miter;stroke-opacity:1" />
<path
style="fill:#212c40;fill-opacity:1;stroke:none;stroke-width:0.99999994px;stroke-linecap:butt;stroke-linejoin:miter;stroke-opacity:1"
d="m 696.90625,689.0625 c -22.32475,8.76387 -45.59238,17.81585 -53.13867,20.54688 0,-10e-6 -3.21931,-0.70519 -7.16211,-1.5879 5.48741,7.51002 10.18982,13.71125 11.70117,14.97071 3.81109,3.17593 5.71784,3.38756 9.10547,2.11719 3.38763,-1.27038 19.68928,-8.47064 23.92383,-10.5879 4.23454,-2.11725 4.87103,-3.17482 6.98828,-7.62109 0.52735,-1.10743 5.43432,-11.29574 8.58203,-17.83789 z"
transform="scale(0.26458333)"
id="path1207" />
<path
id="path1273"
transform="scale(0.26458333)"
d="m -29.248047,916.33203 c -3.741992,1.52315 -7.216207,2.95703 -10.132812,4.20117 -8.423646,3.59331 -20.166237,8.48189 -33.486329,13.99219 32.997222,5.8499 249.567198,43.94252 261.207028,45.76563 12.42621,1.9463 70.91814,12.02508 73.06055,9.73242 0,0 1.24657,-25.98129 -0.97656,-25.24024 -2.22313,0.74106 -3.38771,0.31762 -8.36328,-0.52929 -4.86534,-0.82816 -243.8211366,-42.43464 -281.308597,-47.92188 z"
style="fill:#30527c;fill-opacity:1;stroke:none;stroke-width:0.99999994px;stroke-linecap:butt;stroke-linejoin:miter;stroke-opacity:1" />
<path
id="path1271"
d="m 68.39963,257.33829 c 0.05602,-1.90465 -0.168058,-1.79262 0.672232,-2.24077 0.84029,-0.44816 40.053838,-18.59843 41.230248,-19.1026 1.1764,-0.50418 2.35281,-0.84029 2.46485,0.39213 0.11204,1.23243 0.11204,2.63292 0.11204,3.58524 0,0.95233 -0.22408,1.06437 -1.17641,1.68058 -0.95233,0.61622 -40.782087,19.60678 -41.790438,20.11095 -1.008348,0.50418 -1.232423,0.16806 -1.344464,-0.56019 -0.112038,-0.72825 -0.168058,-3.02504 -0.168058,-3.86534 z"
style="fill:#47658a;fill-opacity:1;stroke:none;stroke-width:0.26458332px;stroke-linecap:butt;stroke-linejoin:miter;stroke-opacity:1" />
<path
id="path1275"
d="m 57.139741,262.71615 c 1.232427,-0.61621 1.400485,-0.56019 2.240775,0.22408 0.84029,0.78427 7.058438,7.95474 7.78669,8.73901 0.72825,0.78428 1.176406,0.78428 1.960676,0.39214 0.78427,-0.39214 38.653358,-19.83085 39.493648,-20.279 0.84029,-0.44816 1.23242,-0.2801 1.79262,0.39213 0.56019,0.67224 9.13115,10.36358 9.69134,11.20387 0.5602,0.84029 0.22408,1.51253 -0.50417,1.90467 -0.72825,0.39214 -49.353049,26.88928 -50.025284,27.33744 -0.672232,0.44815 -1.120386,0.16806 -2.016696,-0.67223 -0.896308,-0.84029 -18.374347,-21.79153 -19.438715,-22.79989 -1.064369,-1.00835 -0.896311,-1.68058 -0.280096,-2.01668 0.616212,-0.33612 7.954748,-3.92136 9.299212,-4.42554 z"
style="fill:#4dcbe5;fill-opacity:1;stroke:none;stroke-width:0.26458332px;stroke-linecap:butt;stroke-linejoin:miter;stroke-opacity:1" />
<path
id="path1277"
d="m 47.392372,267.75791 c 0.05602,2.46483 1.008349,18.48637 1.064369,19.66278 0.05602,1.17639 0.392136,1.06437 1.288447,1.06437 0.896308,0 18.09425,4.42551 19.214636,4.31349 1.120386,-0.11205 -20.166967,-24.87261 -21.567452,-25.04064 z"
style="fill:#2c7da1;fill-opacity:1;stroke:none;stroke-width:0.26458332px;stroke-linecap:butt;stroke-linejoin:miter;stroke-opacity:1" />
</g>
</svg>
