<?xml version="1.0" encoding="UTF-8" standalone="no"?>
<svg xmlns:dc="http://purl.org/dc/elements/1.1/" xmlns:cc="http://creativecommons.org/ns#" xmlns:rdf="http://www.w3.org/1999/02/22-rdf-syntax-ns#" xmlns:svg="http://www.w3.org/2000/svg" xmlns="http://www.w3.org/2000/svg" id="svg848" version="1.1" viewBox="0 0 8.4666665 8.466667" height="32" width="32">
<defs id="defs842" />
<metadata id="metadata845">
<rdf:RDF>
<cc:Work rdf:about="">
<dc:format>image/svg+xml</dc:format>
<dc:type rdf:resource="http://purl.org/dc/dcmitype/StillImage" />
<dc:title></dc:title>
</cc:Work>
</rdf:RDF>
</metadata>
<g transform="translate(-60.378251,-64.829423)" id="layer1">
<path id="path1458" d="m 68.009958,73.282028 c -0.200204,-0.03938 -0.191642,-0.03192 -1.267856,-1.105461 -0.554437,-0.55306 -1.028696,-1.035384 -1.053908,-1.071828 -0.02521,-0.03645 -0.05949,-0.10354 -0.0762,-0.149096 -0.0167,-0.04555 -0.03244,-0.08562 -0.03498,-0.08902 -0.0026,-0.0034 -0.06614,0.03325 -0.141317,0.08146 -0.495399,0.317674 -1.126614,0.496271 -1.753954,0.496271 -0.88812,0 -1.69546,-0.330833 -2.329085,-0.954418 -0.504811,-0.496811 -0.830669,-1.138875 -0.945511,-1.863014 -0.03814,-0.240525 -0.0386,-0.744737 -8.47e-4,-0.972502 0.09738,-0.588008 0.30005,-1.07351 0.637712,-1.5276 0.119101,-0.160169 0.472532,-0.513474 0.632758,-0.632533 0.458015,-0.340338 0.984283,-0.557269 1.565856,-0.645456 0.196012,-0.02972 0.725754,-0.02484 0.935134,0.0086 0.974651,0.155764 1.777081,0.678214 2.309992,1.504002 0.534991,0.829009 0.657851,1.92489 0.322767,2.878995 -0.06857,0.195266 -0.206416,0.481374 -0.308721,0.640801 -0.09278,0.144579 -0.097,0.154975 -0.06299,0.154975 0.01245,0 0.07397,0.02578 0.13672,0.05729 0.104104,0.05228 0.203565,0.14687 1.136583,1.080942 0.890466,0.891466 1.028032,1.035771 1.065341,1.117531 0.241736,0.529726 -0.201396,1.101393 -0.767438,0.99004 z m -3.905415,-2.708311 c 0.804139,-0.137749 1.489597,-0.663182 1.829243,-1.402191 0.257524,-0.560326 0.297451,-1.23608 0.106497,-1.802456 -0.213883,-0.634388 -0.628695,-1.122114 -1.217133,-1.431075 -0.758269,-0.398131 -1.723538,-0.359588 -2.451533,0.09789 -0.295132,0.185463 -0.599291,0.489545 -0.785776,0.785576 -0.344967,0.547613 -0.46045,1.266793 -0.304732,1.897751 0.313065,1.268524 1.539943,2.074369 2.823434,1.854505 z" style="fill:#c5c5c5;stroke-width:0.01656909;fill-opacity:1" />
</g>
</svg>
